<?xml version="1.0" standalone="no"?>
 <!DOCTYPE svg PUBLIC "-//W3C//DTD SVG 1.1//EN" 
 "http://www.w3.org/Graphics/SVG/1.1/DTD/svg11.dtd"> 
<svg
  xmlns:svg="http://www.w3.org/2000/svg"
  xmlns="http://www.w3.org/2000/svg"
  xmlns:xlink="http://www.w3.org/1999/xlink"
  version="1.1"
  width="29.700220cm" height="21.000720cm" viewBox="0 0 116930 82680">
<title>SVG Picture created as MicroTrainer-F_Fab.svg date 2021/10/02 13:16:15 </title>
  <desc>Picture generated by PCBNEW </desc>
<g style="fill:#000000; fill-opacity:1;stroke:#000000; stroke-opacity:1;
stroke-linecap:round; stroke-linejoin:round;"
 transform="translate(0 0) scale(1 1)">
</g>
<g style="fill:#000000; fill-opacity:0.0; 
stroke:#000000; stroke-width:-0.000393701; stroke-opacity:1; 
stroke-linecap:round; stroke-linejoin:round;">
</g>
<g style="fill:#000000; fill-opacity:0.0; 
stroke:#000000; stroke-width:39.3701; stroke-opacity:1; 
stroke-linecap:round; stroke-linejoin:round;">
<path d="M46551 20332
L46551 19582
" />
<path d="M46551 19582
L48551 19582
" />
<path d="M48551 19582
L48551 20582
" />
<path d="M48551 20582
L46801 20582
" />
<path d="M46801 20582
L46551 20332
" />
<path d="M8948 10665
L9698 10665
" />
<path d="M9698 10665
L9948 10915
" />
<path d="M9948 10915
L9948 18665
" />
<path d="M9948 18665
L8948 18665
" />
<path d="M8948 18665
L8948 10665
" />
<path d="M29814 12665
L30564 12665
" />
<path d="M30564 12665
L30814 12915
" />
<path d="M30814 12915
L30814 16665
" />
<path d="M30814 16665
L29814 16665
" />
<path d="M29814 16665
L29814 12665
" />
<path d="M53059 14539
L53059 15289
" />
<path d="M53059 15289
L52809 15539
" />
<path d="M52809 15539
L33059 15539
" />
<path d="M33059 15539
L33059 14539
" />
<path d="M33059 14539
L53059 14539
" />
<path d="M53059 8555
L53059 9305
" />
<path d="M53059 9305
L52809 9555
" />
<path d="M52809 9555
L33059 9555
" />
<path d="M33059 9555
L33059 8555
" />
<path d="M33059 8555
L53059 8555
" />
<path d="M32283 17421
L32283 19192
" />
<path d="M32283 19192
L35039 19192
" />
<path d="M35039 19192
L35039 17421
" />
<path d="M35039 17421
L32283 17421
" />
<path d="M36023 17421
L36023 19192
" />
<path d="M36023 19192
L38779 19192
" />
<path d="M38779 19192
L38779 17421
" />
<path d="M38779 17421
L36023 17421
" />
<path d="M46062 17421
L46062 19192
" />
<path d="M46062 19192
L48818 19192
" />
<path d="M48818 19192
L48818 17421
" />
<path d="M48818 17421
L46062 17421
" />
<path d="M49803 17421
L49803 19192
" />
<path d="M49803 19192
L52559 19192
" />
<path d="M52559 19192
L52559 17421
" />
<path d="M52559 17421
L49803 17421
" />
<path d="M48681 46712
L53681 46712
" />
<path d="M53681 46712
L53681 51712
" />
<path d="M53681 51712
L48681 51712
" />
<path d="M48681 51712
L48681 46712
" />
<path d="M40807 46712
L45807 46712
" />
<path d="M45807 46712
L45807 51712
" />
<path d="M45807 51712
L40807 51712
" />
<path d="M40807 51712
L40807 46712
" />
<path d="M32933 46712
L37933 46712
" />
<path d="M37933 46712
L37933 51712
" />
<path d="M37933 51712
L32933 51712
" />
<path d="M32933 51712
L32933 46712
" />
<path d="M25059 46712
L30059 46712
" />
<path d="M30059 46712
L30059 51712
" />
<path d="M30059 51712
L25059 51712
" />
<path d="M25059 51712
L25059 46712
" />
<path d="M17185 46712
L22185 46712
" />
<path d="M22185 46712
L22185 51712
" />
<path d="M22185 51712
L17185 51712
" />
<path d="M17185 51712
L17185 46712
" />
<path d="M9311 46712
L14311 46712
" />
<path d="M14311 46712
L14311 51712
" />
<path d="M14311 51712
L9311 51712
" />
<path d="M9311 51712
L9311 46712
" />
<path d="M48681 38838
L53681 38838
" />
<path d="M53681 38838
L53681 43838
" />
<path d="M53681 43838
L48681 43838
" />
<path d="M48681 43838
L48681 38838
" />
<path d="M40807 38838
L45807 38838
" />
<path d="M45807 38838
L45807 43838
" />
<path d="M45807 43838
L40807 43838
" />
<path d="M40807 43838
L40807 38838
" />
<path d="M32933 38838
L37933 38838
" />
<path d="M37933 38838
L37933 43838
" />
<path d="M37933 43838
L32933 43838
" />
<path d="M32933 43838
L32933 38838
" />
<path d="M25059 38838
L30059 38838
" />
<path d="M30059 38838
L30059 43838
" />
<path d="M30059 43838
L25059 43838
" />
<path d="M25059 43838
L25059 38838
" />
<path d="M17185 38838
L22185 38838
" />
<path d="M22185 38838
L22185 43838
" />
<path d="M22185 43838
L17185 43838
" />
<path d="M17185 43838
L17185 38838
" />
<path d="M9311 38838
L14311 38838
" />
<path d="M14311 38838
L14311 43838
" />
<path d="M14311 43838
L9311 43838
" />
<path d="M9311 43838
L9311 38838
" />
<path d="M40807 30964
L45807 30964
" />
<path d="M45807 30964
L45807 35964
" />
<path d="M45807 35964
L40807 35964
" />
<path d="M40807 35964
L40807 30964
" />
<path d="M32933 30964
L37933 30964
" />
<path d="M37933 30964
L37933 35964
" />
<path d="M37933 35964
L32933 35964
" />
<path d="M32933 35964
L32933 30964
" />
<path d="M25059 30964
L30059 30964
" />
<path d="M30059 30964
L30059 35964
" />
<path d="M30059 35964
L25059 35964
" />
<path d="M25059 35964
L25059 30964
" />
<path d="M17185 30964
L22185 30964
" />
<path d="M22185 30964
L22185 35964
" />
<path d="M22185 35964
L17185 35964
" />
<path d="M17185 35964
L17185 30964
" />
<path d="M9311 30964
L14311 30964
" />
<path d="M14311 30964
L14311 35964
" />
<path d="M14311 35964
L9311 35964
" />
<path d="M9311 35964
L9311 30964
" />
<path d="M40807 23090
L45807 23090
" />
<path d="M45807 23090
L45807 28090
" />
<path d="M45807 28090
L40807 28090
" />
<path d="M40807 28090
L40807 23090
" />
<path d="M32933 23090
L37933 23090
" />
<path d="M37933 23090
L37933 28090
" />
<path d="M37933 28090
L32933 28090
" />
<path d="M32933 28090
L32933 23090
" />
<path d="M25059 23090
L30059 23090
" />
<path d="M30059 23090
L30059 28090
" />
<path d="M30059 28090
L25059 28090
" />
<path d="M25059 28090
L25059 23090
" />
<path d="M17185 23090
L22185 23090
" />
<path d="M22185 23090
L22185 28090
" />
<path d="M22185 28090
L17185 28090
" />
<path d="M17185 28090
L17185 23090
" />
<path d="M9311 23090
L14311 23090
" />
<path d="M14311 23090
L14311 28090
" />
<path d="M14311 28090
L9311 28090
" />
<path d="M9311 28090
L9311 23090
" />
<path d="M51082 32255
L50098 32255
" />
<path d="M50098 32255
L50098 34736
" />
<path d="M50098 34736
L51082 34736
" />
<path d="M51082 34736
L51082 32255
" />
<path d="M50590 31496
L50590 32255
" />
<path d="M50590 35496
L50590 34736
" />
<path d="M51082 24381
L50098 24381
" />
<path d="M50098 24381
L50098 26862
" />
<path d="M50098 26862
L51082 26862
" />
<path d="M51082 26862
L51082 24381
" />
<path d="M50590 23622
L50590 24381
" />
<path d="M50590 27622
L50590 26862
" />
<path d="M48917 32255
L47933 32255
" />
<path d="M47933 32255
L47933 34736
" />
<path d="M47933 34736
L48917 34736
" />
<path d="M48917 34736
L48917 32255
" />
<path d="M48425 31496
L48425 32255
" />
<path d="M48425 35496
L48425 34736
" />
<path d="M48917 24381
L47933 24381
" />
<path d="M47933 24381
L47933 26862
" />
<path d="M47933 26862
L48917 26862
" />
<path d="M48917 26862
L48917 24381
" />
<path d="M48425 23622
L48425 24381
" />
<path d="M48425 27622
L48425 26862
" />
<g >
</g>
<g >
</g>
<g >
</g>
<g >
</g>
<g >
</g>
<g >
</g>
<g >
</g>
<g >
</g>
<g >
</g>
<g >
</g>
<g >
</g>
<g >
</g>
<g >
</g>
<g >
</g>
<g >
</g>
<g >
</g>
<g >
</g>
<g >
</g>
<g >
</g>
<g >
</g>
<g >
</g>
<g >
</g>
<g >
</g>
<g >
</g>
<g >
</g>
<g >
</g>
<g >
</g>
<g >
</g>
<g >
</g>
<g >
</g>
<g >
</g>
<g >
</g>
<g >
</g>
<g >
</g>
<g >
</g>
<g >
</g>
<g >
</g>
<g >
</g>
<g >
</g>
<g >
</g>
<g >
</g>
<g >
</g>
<g >
</g>
<g >
</g>
<g >
</g>
<g >
</g>
<g >
</g>
</g>
<g style="fill:#000000; fill-opacity:0.0; 
stroke:#000000; stroke-width:39.3701; stroke-opacity:1; 
stroke-linecap:round; stroke-linejoin:round;">
</g>
<g style="fill:#000000; fill-opacity:0.0; 
stroke:#000000; stroke-width:59.0551; stroke-opacity:1; 
stroke-linecap:round; stroke-linejoin:round;">
<text x="47551.2" y="20279.5"
textLength="751.687" font-size="524.934" lengthAdjust="spacingAndGlyphs"
text-anchor="middle" opacity="0">J3</text>
<path d="M47419 19867
L47419 20148
L47401 20204
L47363 20242
L47307 20260
L47269 20260
" />
<path d="M47569 19867
L47813 19867
L47682 20017
L47738 20017
L47776 20035
L47794 20054
L47813 20092
L47813 20185
L47794 20223
L47776 20242
L47738 20260
L47626 20260
L47588 20242
L47569 20223
" />
<g transform="rotate(-90 9448.82 14665.4)">
<text x="9448.82" y="14862.2"
textLength="751.687" font-size="524.934" lengthAdjust="spacingAndGlyphs"
text-anchor="middle" opacity="0">J5</text>
</g>
<path d="M9233 14796
L9514 14796
L9570 14815
L9608 14852
L9626 14909
L9626 14946
" />
<path d="M9233 14421
L9233 14609
L9420 14627
L9401 14609
L9383 14571
L9383 14477
L9401 14440
L9420 14421
L9458 14402
L9551 14402
L9589 14421
L9608 14440
L9626 14477
L9626 14571
L9608 14609
L9589 14627
" />
<g transform="rotate(-90 30315 14665.4)">
<text x="30315" y="14862.2"
textLength="751.687" font-size="524.934" lengthAdjust="spacingAndGlyphs"
text-anchor="middle" opacity="0">J4</text>
</g>
<path d="M30099 14796
L30380 14796
L30436 14815
L30474 14852
L30493 14909
L30493 14946
" />
<path d="M30230 14440
L30493 14440
" />
<path d="M30080 14534
L30361 14627
L30361 14384
" />
<text x="43059.1" y="15236.2"
textLength="751.687" font-size="524.934" lengthAdjust="spacingAndGlyphs"
text-anchor="middle" opacity="0">J2</text>
<path d="M42927 14823
L42927 15104
L42909 15161
L42871 15198
L42815 15217
L42777 15217
" />
<path d="M43096 14861
L43115 14842
L43152 14823
L43246 14823
L43284 14842
L43302 14861
L43321 14898
L43321 14936
L43302 14992
L43077 15217
L43321 15217
" />
<text x="43059.1" y="9251.97"
textLength="751.687" font-size="524.934" lengthAdjust="spacingAndGlyphs"
text-anchor="middle" opacity="0">J1</text>
<path d="M42927 8839
L42927 9120
L42909 9176
L42871 9214
L42815 9233
L42777 9233
" />
<path d="M43321 9233
L43096 9233
" />
<path d="M43209 9233
L43209 8839
L43171 8895
L43134 8933
L43096 8952
" />
<text x="9763.78" y="20472.4"
textLength="1764.06" font-size="524.934" lengthAdjust="spacingAndGlyphs"
text-anchor="middle" opacity="0">REF**</text>
<path d="M9238 20453
L9107 20266
" />
<path d="M9013 20453
L9013 20059
L9163 20059
L9201 20078
L9220 20097
L9238 20134
L9238 20191
L9220 20228
L9201 20247
L9163 20266
L9013 20266
" />
<path d="M9407 20247
L9538 20247
" />
<path d="M9595 20453
L9407 20453
L9407 20059
L9595 20059
" />
<path d="M9895 20247
L9763 20247
" />
<path d="M9763 20453
L9763 20059
L9951 20059
" />
<path d="M10157 20059
L10157 20153
" />
<path d="M10063 20116
L10157 20153
L10251 20116
" />
<path d="M10101 20228
L10157 20153
L10213 20228
" />
<path d="M10457 20059
L10457 20153
" />
<path d="M10363 20116
L10457 20153
L10551 20116
" />
<path d="M10401 20228
L10457 20153
L10513 20228
" />
<text x="30236.2" y="20472.4"
textLength="1764.06" font-size="524.934" lengthAdjust="spacingAndGlyphs"
text-anchor="middle" opacity="0">REF**</text>
<path d="M29711 20453
L29580 20266
" />
<path d="M29486 20453
L29486 20059
L29636 20059
L29673 20078
L29692 20097
L29711 20134
L29711 20191
L29692 20228
L29673 20247
L29636 20266
L29486 20266
" />
<path d="M29880 20247
L30011 20247
" />
<path d="M30067 20453
L29880 20453
L29880 20059
L30067 20059
" />
<path d="M30367 20247
L30236 20247
" />
<path d="M30236 20453
L30236 20059
L30423 20059
" />
<path d="M30629 20059
L30629 20153
" />
<path d="M30536 20116
L30629 20153
L30723 20116
" />
<path d="M30573 20228
L30629 20153
L30686 20228
" />
<path d="M30929 20059
L30929 20153
" />
<path d="M30836 20116
L30929 20153
L31023 20116
" />
<path d="M30873 20228
L30929 20153
L30986 20228
" />
<text x="30236.2" y="9251.97"
textLength="1764.06" font-size="524.934" lengthAdjust="spacingAndGlyphs"
text-anchor="middle" opacity="0">REF**</text>
<path d="M29711 9233
L29580 9045
" />
<path d="M29486 9233
L29486 8839
L29636 8839
L29673 8858
L29692 8877
L29711 8914
L29711 8970
L29692 9008
L29673 9026
L29636 9045
L29486 9045
" />
<path d="M29880 9026
L30011 9026
" />
<path d="M30067 9233
L29880 9233
L29880 8839
L30067 8839
" />
<path d="M30367 9026
L30236 9026
" />
<path d="M30236 9233
L30236 8839
L30423 8839
" />
<path d="M30629 8839
L30629 8933
" />
<path d="M30536 8895
L30629 8933
L30723 8895
" />
<path d="M30573 9008
L30629 8933
L30686 9008
" />
<path d="M30929 8839
L30929 8933
" />
<path d="M30836 8895
L30929 8933
L31023 8895
" />
<path d="M30873 9008
L30929 8933
L30986 9008
" />
<text x="9763.78" y="9251.97"
textLength="1764.06" font-size="524.934" lengthAdjust="spacingAndGlyphs"
text-anchor="middle" opacity="0">REF**</text>
<path d="M9238 9233
L9107 9045
" />
<path d="M9013 9233
L9013 8839
L9163 8839
L9201 8858
L9220 8877
L9238 8914
L9238 8970
L9220 9008
L9201 9026
L9163 9045
L9013 9045
" />
<path d="M9407 9026
L9538 9026
" />
<path d="M9595 9233
L9407 9233
L9407 8839
L9595 8839
" />
<path d="M9895 9026
L9763 9026
" />
<path d="M9763 9233
L9763 8839
L9951 8839
" />
<path d="M10157 8839
L10157 8933
" />
<path d="M10063 8895
L10157 8933
L10251 8895
" />
<path d="M10101 9008
L10157 8933
L10213 9008
" />
<path d="M10457 8839
L10457 8933
" />
<path d="M10363 8895
L10457 8933
L10551 8895
" />
<path d="M10401 9008
L10457 8933
L10513 9008
" />
<text x="6811.02" y="8858.27"
textLength="1764.06" font-size="524.934" lengthAdjust="spacingAndGlyphs"
text-anchor="middle" opacity="0">REF**</text>
<path d="M6286 8839
L6154 8652
" />
<path d="M6061 8839
L6061 8445
L6211 8445
L6248 8464
L6267 8483
L6286 8520
L6286 8577
L6267 8614
L6248 8633
L6211 8652
L6061 8652
" />
<path d="M6454 8633
L6586 8633
" />
<path d="M6642 8839
L6454 8839
L6454 8445
L6642 8445
" />
<path d="M6942 8633
L6811 8633
" />
<path d="M6811 8839
L6811 8445
L6998 8445
" />
<path d="M7204 8445
L7204 8539
" />
<path d="M7110 8502
L7204 8539
L7298 8502
" />
<path d="M7148 8614
L7204 8539
L7260 8614
" />
<path d="M7504 8445
L7504 8539
" />
<path d="M7410 8502
L7504 8539
L7598 8502
" />
<path d="M7448 8614
L7504 8539
L7560 8614
" />
<text x="56417.3" y="8858.27"
textLength="1764.06" font-size="524.934" lengthAdjust="spacingAndGlyphs"
text-anchor="middle" opacity="0">REF**</text>
<path d="M55892 8839
L55761 8652
" />
<path d="M55667 8839
L55667 8445
L55817 8445
L55854 8464
L55873 8483
L55892 8520
L55892 8577
L55873 8614
L55854 8633
L55817 8652
L55667 8652
" />
<path d="M56061 8633
L56192 8633
" />
<path d="M56248 8839
L56061 8839
L56061 8445
L56248 8445
" />
<path d="M56548 8633
L56417 8633
" />
<path d="M56417 8839
L56417 8445
L56604 8445
" />
<path d="M56811 8445
L56811 8539
" />
<path d="M56717 8502
L56811 8539
L56904 8502
" />
<path d="M56754 8614
L56811 8539
L56867 8614
" />
<path d="M57110 8445
L57110 8539
" />
<path d="M57017 8502
L57110 8539
L57204 8502
" />
<path d="M57054 8614
L57110 8539
L57167 8614
" />
<text x="56417.3" y="52165.4"
textLength="1764.06" font-size="524.934" lengthAdjust="spacingAndGlyphs"
text-anchor="middle" opacity="0">REF**</text>
<path d="M55892 52146
L55761 51959
" />
<path d="M55667 52146
L55667 51752
L55817 51752
L55854 51771
L55873 51790
L55892 51827
L55892 51884
L55873 51921
L55854 51940
L55817 51959
L55667 51959
" />
<path d="M56061 51940
L56192 51940
" />
<path d="M56248 52146
L56061 52146
L56061 51752
L56248 51752
" />
<path d="M56548 51940
L56417 51940
" />
<path d="M56417 52146
L56417 51752
L56604 51752
" />
<path d="M56811 51752
L56811 51846
" />
<path d="M56717 51809
L56811 51846
L56904 51809
" />
<path d="M56754 51921
L56811 51846
L56867 51921
" />
<path d="M57110 51752
L57110 51846
" />
<path d="M57017 51809
L57110 51846
L57204 51809
" />
<path d="M57054 51921
L57110 51846
L57167 51921
" />
<text x="6811.02" y="52165.4"
textLength="1951.54" font-size="524.934" lengthAdjust="spacingAndGlyphs"
text-anchor="middle" opacity="0">REF##</text>
<path d="M6192 52146
L6061 51959
" />
<path d="M5967 52146
L5967 51752
L6117 51752
L6154 51771
L6173 51790
L6192 51827
L6192 51884
L6173 51921
L6154 51940
L6117 51959
L5967 51959
" />
<path d="M6361 51940
L6492 51940
" />
<path d="M6548 52146
L6361 52146
L6361 51752
L6548 51752
" />
<path d="M6848 51940
L6717 51940
" />
<path d="M6717 52146
L6717 51752
L6904 51752
" />
<path d="M7035 51884
L7317 51884
" />
<path d="M7148 51715
L7035 52221
" />
<path d="M7279 52052
L6998 52052
" />
<path d="M7167 52221
L7279 51715
" />
<path d="M7429 51884
L7710 51884
" />
<path d="M7542 51715
L7429 52221
" />
<path d="M7673 52052
L7392 52052
" />
<path d="M7560 52221
L7673 51715
" />
<text x="33661.4" y="18503.9"
textLength="845.426" font-size="524.934" lengthAdjust="spacingAndGlyphs"
text-anchor="middle" opacity="0">C4</text>
<path d="M33595 18447
L33577 18466
L33520 18485
L33483 18485
L33427 18466
L33389 18428
L33370 18391
L33352 18316
L33352 18260
L33370 18185
L33389 18147
L33427 18110
L33483 18091
L33520 18091
L33577 18110
L33595 18128
" />
<path d="M33933 18222
L33933 18485
" />
<path d="M33839 18072
L33745 18353
L33989 18353
" />
<text x="37401.6" y="18503.9"
textLength="845.426" font-size="524.934" lengthAdjust="spacingAndGlyphs"
text-anchor="middle" opacity="0">C3</text>
<path d="M37335 18447
L37317 18466
L37260 18485
L37223 18485
L37167 18466
L37129 18428
L37110 18391
L37092 18316
L37092 18260
L37110 18185
L37129 18147
L37167 18110
L37223 18091
L37260 18091
L37317 18110
L37335 18128
" />
<path d="M37467 18091
L37710 18091
L37579 18241
L37635 18241
L37673 18260
L37692 18278
L37710 18316
L37710 18410
L37692 18447
L37673 18466
L37635 18485
L37523 18485
L37485 18466
L37467 18447
" />
<text x="47440.9" y="18503.9"
textLength="845.426" font-size="524.934" lengthAdjust="spacingAndGlyphs"
text-anchor="middle" opacity="0">C2</text>
<path d="M47375 18447
L47356 18466
L47300 18485
L47262 18485
L47206 18466
L47169 18428
L47150 18391
L47131 18316
L47131 18260
L47150 18185
L47169 18147
L47206 18110
L47262 18091
L47300 18091
L47356 18110
L47375 18128
" />
<path d="M47525 18128
L47544 18110
L47581 18091
L47675 18091
L47712 18110
L47731 18128
L47750 18166
L47750 18203
L47731 18260
L47506 18485
L47750 18485
" />
<text x="51181.1" y="18503.9"
textLength="845.426" font-size="524.934" lengthAdjust="spacingAndGlyphs"
text-anchor="middle" opacity="0">C1</text>
<path d="M51115 18447
L51096 18466
L51040 18485
L51002 18485
L50946 18466
L50909 18428
L50890 18391
L50871 18316
L50871 18260
L50890 18185
L50909 18147
L50946 18110
L51002 18091
L51040 18091
L51096 18110
L51115 18128
" />
<path d="M51490 18485
L51265 18485
" />
<path d="M51377 18485
L51377 18091
L51340 18147
L51302 18185
L51265 18203
" />
<text x="51181.1" y="46309.4"
textLength="1651.57" font-size="524.934" lengthAdjust="spacingAndGlyphs"
text-anchor="middle" opacity="0">SW24</text>
<path d="M50468 46271
L50524 46290
L50618 46290
L50656 46271
L50674 46253
L50693 46215
L50693 46178
L50674 46140
L50656 46121
L50618 46103
L50543 46084
L50506 46065
L50487 46046
L50468 46009
L50468 45971
L50487 45934
L50506 45915
L50543 45897
L50637 45897
L50693 45915
" />
<path d="M50824 45897
L50918 46290
L50993 46009
L51068 46290
L51162 45897
" />
<path d="M51293 45934
L51312 45915
L51349 45897
L51443 45897
L51481 45915
L51499 45934
L51518 45971
L51518 46009
L51499 46065
L51274 46290
L51518 46290
" />
<path d="M51856 46028
L51856 46290
" />
<path d="M51762 45878
L51668 46159
L51912 46159
" />
<text x="43307.1" y="46309.4"
textLength="1651.57" font-size="524.934" lengthAdjust="spacingAndGlyphs"
text-anchor="middle" opacity="0">SW23</text>
<path d="M42594 46271
L42650 46290
L42744 46290
L42782 46271
L42800 46253
L42819 46215
L42819 46178
L42800 46140
L42782 46121
L42744 46103
L42669 46084
L42632 46065
L42613 46046
L42594 46009
L42594 45971
L42613 45934
L42632 45915
L42669 45897
L42763 45897
L42819 45915
" />
<path d="M42950 45897
L43044 46290
L43119 46009
L43194 46290
L43288 45897
" />
<path d="M43419 45934
L43438 45915
L43475 45897
L43569 45897
L43607 45915
L43625 45934
L43644 45971
L43644 46009
L43625 46065
L43400 46290
L43644 46290
" />
<path d="M43775 45897
L44019 45897
L43888 46046
L43944 46046
L43982 46065
L44000 46084
L44019 46121
L44019 46215
L44000 46253
L43982 46271
L43944 46290
L43832 46290
L43794 46271
L43775 46253
" />
<text x="35433.1" y="46309.4"
textLength="1651.57" font-size="524.934" lengthAdjust="spacingAndGlyphs"
text-anchor="middle" opacity="0">SW22</text>
<path d="M34720 46271
L34776 46290
L34870 46290
L34908 46271
L34926 46253
L34945 46215
L34945 46178
L34926 46140
L34908 46121
L34870 46103
L34795 46084
L34758 46065
L34739 46046
L34720 46009
L34720 45971
L34739 45934
L34758 45915
L34795 45897
L34889 45897
L34945 45915
" />
<path d="M35076 45897
L35170 46290
L35245 46009
L35320 46290
L35414 45897
" />
<path d="M35545 45934
L35564 45915
L35601 45897
L35695 45897
L35733 45915
L35751 45934
L35770 45971
L35770 46009
L35751 46065
L35526 46290
L35770 46290
" />
<path d="M35920 45934
L35939 45915
L35976 45897
L36070 45897
L36107 45915
L36126 45934
L36145 45971
L36145 46009
L36126 46065
L35901 46290
L36145 46290
" />
<text x="27559.1" y="46309.4"
textLength="1651.57" font-size="524.934" lengthAdjust="spacingAndGlyphs"
text-anchor="middle" opacity="0">SW21</text>
<path d="M26846 46271
L26902 46290
L26996 46290
L27034 46271
L27052 46253
L27071 46215
L27071 46178
L27052 46140
L27034 46121
L26996 46103
L26921 46084
L26884 46065
L26865 46046
L26846 46009
L26846 45971
L26865 45934
L26884 45915
L26921 45897
L27015 45897
L27071 45915
" />
<path d="M27202 45897
L27296 46290
L27371 46009
L27446 46290
L27540 45897
" />
<path d="M27671 45934
L27690 45915
L27727 45897
L27821 45897
L27859 45915
L27877 45934
L27896 45971
L27896 46009
L27877 46065
L27652 46290
L27896 46290
" />
<path d="M28271 46290
L28046 46290
" />
<path d="M28158 46290
L28158 45897
L28121 45953
L28083 45990
L28046 46009
" />
<text x="19685" y="46309.4"
textLength="1651.57" font-size="524.934" lengthAdjust="spacingAndGlyphs"
text-anchor="middle" opacity="0">SW20</text>
<path d="M18972 46271
L19028 46290
L19122 46290
L19160 46271
L19178 46253
L19197 46215
L19197 46178
L19178 46140
L19160 46121
L19122 46103
L19047 46084
L19010 46065
L18991 46046
L18972 46009
L18972 45971
L18991 45934
L19010 45915
L19047 45897
L19141 45897
L19197 45915
" />
<path d="M19328 45897
L19422 46290
L19497 46009
L19572 46290
L19666 45897
" />
<path d="M19797 45934
L19816 45915
L19853 45897
L19947 45897
L19985 45915
L20003 45934
L20022 45971
L20022 46009
L20003 46065
L19778 46290
L20022 46290
" />
<path d="M20266 45897
L20303 45897
L20341 45915
L20359 45934
L20378 45971
L20397 46046
L20397 46140
L20378 46215
L20359 46253
L20341 46271
L20303 46290
L20266 46290
L20228 46271
L20209 46253
L20191 46215
L20172 46140
L20172 46046
L20191 45971
L20209 45934
L20228 45915
L20266 45897
" />
<text x="11811" y="46309.4"
textLength="1651.57" font-size="524.934" lengthAdjust="spacingAndGlyphs"
text-anchor="middle" opacity="0">SW19</text>
<path d="M11098 46271
L11154 46290
L11248 46290
L11286 46271
L11304 46253
L11323 46215
L11323 46178
L11304 46140
L11286 46121
L11248 46103
L11173 46084
L11136 46065
L11117 46046
L11098 46009
L11098 45971
L11117 45934
L11136 45915
L11173 45897
L11267 45897
L11323 45915
" />
<path d="M11454 45897
L11548 46290
L11623 46009
L11698 46290
L11792 45897
" />
<path d="M12148 46290
L11923 46290
" />
<path d="M12035 46290
L12035 45897
L11998 45953
L11961 45990
L11923 46009
" />
<path d="M12335 46290
L12410 46290
L12448 46271
L12467 46253
L12504 46196
L12523 46121
L12523 45971
L12504 45934
L12485 45915
L12448 45897
L12373 45897
L12335 45915
L12317 45934
L12298 45971
L12298 46065
L12317 46103
L12335 46121
L12373 46140
L12448 46140
L12485 46121
L12504 46103
L12523 46065
" />
<text x="51181.1" y="38435.4"
textLength="1651.57" font-size="524.934" lengthAdjust="spacingAndGlyphs"
text-anchor="middle" opacity="0">SW18</text>
<path d="M50468 38397
L50524 38416
L50618 38416
L50656 38397
L50674 38379
L50693 38341
L50693 38304
L50674 38266
L50656 38247
L50618 38229
L50543 38210
L50506 38191
L50487 38172
L50468 38135
L50468 38097
L50487 38060
L50506 38041
L50543 38022
L50637 38022
L50693 38041
" />
<path d="M50824 38022
L50918 38416
L50993 38135
L51068 38416
L51162 38022
" />
<path d="M51518 38416
L51293 38416
" />
<path d="M51406 38416
L51406 38022
L51368 38079
L51331 38116
L51293 38135
" />
<path d="M51743 38191
L51706 38172
L51687 38154
L51668 38116
L51668 38097
L51687 38060
L51706 38041
L51743 38022
L51818 38022
L51856 38041
L51874 38060
L51893 38097
L51893 38116
L51874 38154
L51856 38172
L51818 38191
L51743 38191
L51706 38210
L51687 38229
L51668 38266
L51668 38341
L51687 38379
L51706 38397
L51743 38416
L51818 38416
L51856 38397
L51874 38379
L51893 38341
L51893 38266
L51874 38229
L51856 38210
L51818 38191
" />
<text x="43307.1" y="38435.4"
textLength="1651.57" font-size="524.934" lengthAdjust="spacingAndGlyphs"
text-anchor="middle" opacity="0">SW17</text>
<path d="M42594 38397
L42650 38416
L42744 38416
L42782 38397
L42800 38379
L42819 38341
L42819 38304
L42800 38266
L42782 38247
L42744 38229
L42669 38210
L42632 38191
L42613 38172
L42594 38135
L42594 38097
L42613 38060
L42632 38041
L42669 38022
L42763 38022
L42819 38041
" />
<path d="M42950 38022
L43044 38416
L43119 38135
L43194 38416
L43288 38022
" />
<path d="M43644 38416
L43419 38416
" />
<path d="M43532 38416
L43532 38022
L43494 38079
L43457 38116
L43419 38135
" />
<path d="M43775 38022
L44038 38022
L43869 38416
" />
<text x="35433.1" y="38435.4"
textLength="1651.57" font-size="524.934" lengthAdjust="spacingAndGlyphs"
text-anchor="middle" opacity="0">SW16</text>
<path d="M34720 38397
L34776 38416
L34870 38416
L34908 38397
L34926 38379
L34945 38341
L34945 38304
L34926 38266
L34908 38247
L34870 38229
L34795 38210
L34758 38191
L34739 38172
L34720 38135
L34720 38097
L34739 38060
L34758 38041
L34795 38022
L34889 38022
L34945 38041
" />
<path d="M35076 38022
L35170 38416
L35245 38135
L35320 38416
L35414 38022
" />
<path d="M35770 38416
L35545 38416
" />
<path d="M35658 38416
L35658 38022
L35620 38079
L35583 38116
L35545 38135
" />
<path d="M36107 38022
L36032 38022
L35995 38041
L35976 38060
L35939 38116
L35920 38191
L35920 38341
L35939 38379
L35958 38397
L35995 38416
L36070 38416
L36107 38397
L36126 38379
L36145 38341
L36145 38247
L36126 38210
L36107 38191
L36070 38172
L35995 38172
L35958 38191
L35939 38210
L35920 38247
" />
<text x="27559.1" y="38435.4"
textLength="1651.57" font-size="524.934" lengthAdjust="spacingAndGlyphs"
text-anchor="middle" opacity="0">SW15</text>
<path d="M26846 38397
L26902 38416
L26996 38416
L27034 38397
L27052 38379
L27071 38341
L27071 38304
L27052 38266
L27034 38247
L26996 38229
L26921 38210
L26884 38191
L26865 38172
L26846 38135
L26846 38097
L26865 38060
L26884 38041
L26921 38022
L27015 38022
L27071 38041
" />
<path d="M27202 38022
L27296 38416
L27371 38135
L27446 38416
L27540 38022
" />
<path d="M27896 38416
L27671 38416
" />
<path d="M27784 38416
L27784 38022
L27746 38079
L27709 38116
L27671 38135
" />
<path d="M28252 38022
L28065 38022
L28046 38210
L28065 38191
L28102 38172
L28196 38172
L28233 38191
L28252 38210
L28271 38247
L28271 38341
L28252 38379
L28233 38397
L28196 38416
L28102 38416
L28065 38397
L28046 38379
" />
<text x="19685" y="38435.4"
textLength="1651.57" font-size="524.934" lengthAdjust="spacingAndGlyphs"
text-anchor="middle" opacity="0">SW14</text>
<path d="M18972 38397
L19028 38416
L19122 38416
L19160 38397
L19178 38379
L19197 38341
L19197 38304
L19178 38266
L19160 38247
L19122 38229
L19047 38210
L19010 38191
L18991 38172
L18972 38135
L18972 38097
L18991 38060
L19010 38041
L19047 38022
L19141 38022
L19197 38041
" />
<path d="M19328 38022
L19422 38416
L19497 38135
L19572 38416
L19666 38022
" />
<path d="M20022 38416
L19797 38416
" />
<path d="M19910 38416
L19910 38022
L19872 38079
L19835 38116
L19797 38135
" />
<path d="M20359 38154
L20359 38416
" />
<path d="M20266 38004
L20172 38285
L20416 38285
" />
<text x="11811" y="38435.4"
textLength="1651.57" font-size="524.934" lengthAdjust="spacingAndGlyphs"
text-anchor="middle" opacity="0">SW13</text>
<path d="M11098 38397
L11154 38416
L11248 38416
L11286 38397
L11304 38379
L11323 38341
L11323 38304
L11304 38266
L11286 38247
L11248 38229
L11173 38210
L11136 38191
L11117 38172
L11098 38135
L11098 38097
L11117 38060
L11136 38041
L11173 38022
L11267 38022
L11323 38041
" />
<path d="M11454 38022
L11548 38416
L11623 38135
L11698 38416
L11792 38022
" />
<path d="M12148 38416
L11923 38416
" />
<path d="M12035 38416
L12035 38022
L11998 38079
L11961 38116
L11923 38135
" />
<path d="M12279 38022
L12523 38022
L12392 38172
L12448 38172
L12485 38191
L12504 38210
L12523 38247
L12523 38341
L12504 38379
L12485 38397
L12448 38416
L12335 38416
L12298 38397
L12279 38379
" />
<text x="43307.1" y="30561.4"
textLength="1651.57" font-size="524.934" lengthAdjust="spacingAndGlyphs"
text-anchor="middle" opacity="0">SW11</text>
<path d="M42594 30523
L42650 30542
L42744 30542
L42782 30523
L42800 30505
L42819 30467
L42819 30430
L42800 30392
L42782 30373
L42744 30355
L42669 30336
L42632 30317
L42613 30298
L42594 30261
L42594 30223
L42613 30186
L42632 30167
L42669 30148
L42763 30148
L42819 30167
" />
<path d="M42950 30148
L43044 30542
L43119 30261
L43194 30542
L43288 30148
" />
<path d="M43644 30542
L43419 30542
" />
<path d="M43532 30542
L43532 30148
L43494 30205
L43457 30242
L43419 30261
" />
<path d="M44019 30542
L43794 30542
" />
<path d="M43907 30542
L43907 30148
L43869 30205
L43832 30242
L43794 30261
" />
<text x="35433.1" y="30561.4"
textLength="1651.57" font-size="524.934" lengthAdjust="spacingAndGlyphs"
text-anchor="middle" opacity="0">SW10</text>
<path d="M34720 30523
L34776 30542
L34870 30542
L34908 30523
L34926 30505
L34945 30467
L34945 30430
L34926 30392
L34908 30373
L34870 30355
L34795 30336
L34758 30317
L34739 30298
L34720 30261
L34720 30223
L34739 30186
L34758 30167
L34795 30148
L34889 30148
L34945 30167
" />
<path d="M35076 30148
L35170 30542
L35245 30261
L35320 30542
L35414 30148
" />
<path d="M35770 30542
L35545 30542
" />
<path d="M35658 30542
L35658 30148
L35620 30205
L35583 30242
L35545 30261
" />
<path d="M36014 30148
L36051 30148
L36089 30167
L36107 30186
L36126 30223
L36145 30298
L36145 30392
L36126 30467
L36107 30505
L36089 30523
L36051 30542
L36014 30542
L35976 30523
L35958 30505
L35939 30467
L35920 30392
L35920 30298
L35939 30223
L35958 30186
L35976 30167
L36014 30148
" />
<text x="27559.1" y="30561.4"
textLength="1276.62" font-size="524.934" lengthAdjust="spacingAndGlyphs"
text-anchor="middle" opacity="0">SW9</text>
<path d="M27034 30523
L27090 30542
L27184 30542
L27221 30523
L27240 30505
L27259 30467
L27259 30430
L27240 30392
L27221 30373
L27184 30355
L27109 30336
L27071 30317
L27052 30298
L27034 30261
L27034 30223
L27052 30186
L27071 30167
L27109 30148
L27202 30148
L27259 30167
" />
<path d="M27390 30148
L27484 30542
L27559 30261
L27634 30542
L27727 30148
" />
<path d="M27896 30542
L27971 30542
L28008 30523
L28027 30505
L28065 30448
L28083 30373
L28083 30223
L28065 30186
L28046 30167
L28008 30148
L27934 30148
L27896 30167
L27877 30186
L27859 30223
L27859 30317
L27877 30355
L27896 30373
L27934 30392
L28008 30392
L28046 30373
L28065 30355
L28083 30317
" />
<text x="19685" y="30561.4"
textLength="1276.62" font-size="524.934" lengthAdjust="spacingAndGlyphs"
text-anchor="middle" opacity="0">SW8</text>
<path d="M19160 30523
L19216 30542
L19310 30542
L19347 30523
L19366 30505
L19385 30467
L19385 30430
L19366 30392
L19347 30373
L19310 30355
L19235 30336
L19197 30317
L19178 30298
L19160 30261
L19160 30223
L19178 30186
L19197 30167
L19235 30148
L19328 30148
L19385 30167
" />
<path d="M19516 30148
L19610 30542
L19685 30261
L19760 30542
L19853 30148
" />
<path d="M20059 30317
L20022 30298
L20003 30280
L19985 30242
L19985 30223
L20003 30186
L20022 30167
L20059 30148
L20134 30148
L20172 30167
L20191 30186
L20209 30223
L20209 30242
L20191 30280
L20172 30298
L20134 30317
L20059 30317
L20022 30336
L20003 30355
L19985 30392
L19985 30467
L20003 30505
L20022 30523
L20059 30542
L20134 30542
L20172 30523
L20191 30505
L20209 30467
L20209 30392
L20191 30355
L20172 30336
L20134 30317
" />
<text x="11811" y="30561.4"
textLength="1276.62" font-size="524.934" lengthAdjust="spacingAndGlyphs"
text-anchor="middle" opacity="0">SW7</text>
<path d="M11286 30523
L11342 30542
L11436 30542
L11473 30523
L11492 30505
L11511 30467
L11511 30430
L11492 30392
L11473 30373
L11436 30355
L11361 30336
L11323 30317
L11304 30298
L11286 30261
L11286 30223
L11304 30186
L11323 30167
L11361 30148
L11454 30148
L11511 30167
" />
<path d="M11642 30148
L11736 30542
L11811 30261
L11886 30542
L11979 30148
" />
<path d="M12092 30148
L12354 30148
L12185 30542
" />
<text x="43307.1" y="22687.4"
textLength="1276.62" font-size="524.934" lengthAdjust="spacingAndGlyphs"
text-anchor="middle" opacity="0">SW5</text>
<path d="M42782 22649
L42838 22668
L42932 22668
L42969 22649
L42988 22631
L43007 22593
L43007 22556
L42988 22518
L42969 22499
L42932 22481
L42857 22462
L42819 22443
L42800 22424
L42782 22387
L42782 22349
L42800 22312
L42819 22293
L42857 22274
L42950 22274
L43007 22293
" />
<path d="M43138 22274
L43232 22668
L43307 22387
L43382 22668
L43475 22274
" />
<path d="M43813 22274
L43625 22274
L43607 22462
L43625 22443
L43663 22424
L43757 22424
L43794 22443
L43813 22462
L43832 22499
L43832 22593
L43813 22631
L43794 22649
L43757 22668
L43663 22668
L43625 22649
L43607 22631
" />
<text x="35433.1" y="22687.4"
textLength="1276.62" font-size="524.934" lengthAdjust="spacingAndGlyphs"
text-anchor="middle" opacity="0">SW4</text>
<path d="M34908 22649
L34964 22668
L35058 22668
L35095 22649
L35114 22631
L35133 22593
L35133 22556
L35114 22518
L35095 22499
L35058 22481
L34983 22462
L34945 22443
L34926 22424
L34908 22387
L34908 22349
L34926 22312
L34945 22293
L34983 22274
L35076 22274
L35133 22293
" />
<path d="M35264 22274
L35358 22668
L35433 22387
L35508 22668
L35601 22274
" />
<path d="M35920 22406
L35920 22668
" />
<path d="M35826 22256
L35733 22537
L35976 22537
" />
<text x="27559.1" y="22687.4"
textLength="1276.62" font-size="524.934" lengthAdjust="spacingAndGlyphs"
text-anchor="middle" opacity="0">SW3</text>
<path d="M27034 22649
L27090 22668
L27184 22668
L27221 22649
L27240 22631
L27259 22593
L27259 22556
L27240 22518
L27221 22499
L27184 22481
L27109 22462
L27071 22443
L27052 22424
L27034 22387
L27034 22349
L27052 22312
L27071 22293
L27109 22274
L27202 22274
L27259 22293
" />
<path d="M27390 22274
L27484 22668
L27559 22387
L27634 22668
L27727 22274
" />
<path d="M27840 22274
L28083 22274
L27952 22424
L28008 22424
L28046 22443
L28065 22462
L28083 22499
L28083 22593
L28065 22631
L28046 22649
L28008 22668
L27896 22668
L27859 22649
L27840 22631
" />
<text x="19685" y="22687.4"
textLength="1276.62" font-size="524.934" lengthAdjust="spacingAndGlyphs"
text-anchor="middle" opacity="0">SW2</text>
<path d="M19160 22649
L19216 22668
L19310 22668
L19347 22649
L19366 22631
L19385 22593
L19385 22556
L19366 22518
L19347 22499
L19310 22481
L19235 22462
L19197 22443
L19178 22424
L19160 22387
L19160 22349
L19178 22312
L19197 22293
L19235 22274
L19328 22274
L19385 22293
" />
<path d="M19516 22274
L19610 22668
L19685 22387
L19760 22668
L19853 22274
" />
<path d="M19985 22312
L20003 22293
L20041 22274
L20134 22274
L20172 22293
L20191 22312
L20209 22349
L20209 22387
L20191 22443
L19966 22668
L20209 22668
" />
<text x="11811" y="22687.4"
textLength="1276.62" font-size="524.934" lengthAdjust="spacingAndGlyphs"
text-anchor="middle" opacity="0">SW1</text>
<path d="M11286 22649
L11342 22668
L11436 22668
L11473 22649
L11492 22631
L11511 22593
L11511 22556
L11492 22518
L11473 22499
L11436 22481
L11361 22462
L11323 22443
L11304 22424
L11286 22387
L11286 22349
L11304 22312
L11323 22293
L11361 22274
L11454 22274
L11511 22293
" />
<path d="M11642 22274
L11736 22668
L11811 22387
L11886 22668
L11979 22274
" />
<path d="M12335 22668
L12110 22668
" />
<path d="M12223 22668
L12223 22274
L12185 22331
L12148 22368
L12110 22387
" />
<g transform="rotate(-90 50590.6 33496.1)">
<text x="50590.6" y="33692.9"
textLength="845.426" font-size="524.934" lengthAdjust="spacingAndGlyphs"
text-anchor="middle" opacity="0">R4</text>
</g>
<path d="M50768 33561
L50581 33692
" />
<path d="M50768 33786
L50374 33786
L50374 33636
L50393 33599
L50412 33580
L50449 33561
L50506 33561
L50543 33580
L50562 33599
L50581 33636
L50581 33786
" />
<path d="M50506 33224
L50768 33224
" />
<path d="M50356 33317
L50637 33411
L50637 33167
" />
<g transform="rotate(-90 50590.6 25622)">
<text x="50590.6" y="25818.9"
textLength="845.426" font-size="524.934" lengthAdjust="spacingAndGlyphs"
text-anchor="middle" opacity="0">R3</text>
</g>
<path d="M50768 25687
L50581 25818
" />
<path d="M50768 25912
L50374 25912
L50374 25762
L50393 25725
L50412 25706
L50449 25687
L50506 25687
L50543 25706
L50562 25725
L50581 25762
L50581 25912
" />
<path d="M50374 25556
L50374 25312
L50524 25443
L50524 25387
L50543 25350
L50562 25331
L50599 25312
L50693 25312
L50731 25331
L50749 25350
L50768 25387
L50768 25500
L50749 25537
L50731 25556
" />
<g transform="rotate(-90 48425.2 33496.1)">
<text x="48425.2" y="33692.9"
textLength="845.426" font-size="524.934" lengthAdjust="spacingAndGlyphs"
text-anchor="middle" opacity="0">R2</text>
</g>
<path d="M48603 33561
L48415 33692
" />
<path d="M48603 33786
L48209 33786
L48209 33636
L48228 33599
L48247 33580
L48284 33561
L48340 33561
L48378 33580
L48397 33599
L48415 33636
L48415 33786
" />
<path d="M48247 33411
L48228 33392
L48209 33355
L48209 33261
L48228 33224
L48247 33205
L48284 33186
L48322 33186
L48378 33205
L48603 33430
L48603 33186
" />
<g transform="rotate(-90 48425.2 25622)">
<text x="48425.2" y="25818.9"
textLength="845.426" font-size="524.934" lengthAdjust="spacingAndGlyphs"
text-anchor="middle" opacity="0">R1</text>
</g>
<path d="M48603 25687
L48415 25818
" />
<path d="M48603 25912
L48209 25912
L48209 25762
L48228 25725
L48247 25706
L48284 25687
L48340 25687
L48378 25706
L48397 25725
L48415 25762
L48415 25912
" />
<path d="M48603 25312
L48603 25537
" />
<path d="M48603 25425
L48209 25425
L48265 25462
L48303 25500
L48322 25537
" />
<g >
</g>
</g> 
</svg>
