M48
; DRILL file {KiCad (5.1.6)-1} date 09/19/21 20:17:54
; FORMAT={-:-/ absolute / inch / decimal}
; #@! TF.CreationDate,2021-09-19T20:17:54-07:00
; #@! TF.GenerationSoftware,Kicad,Pcbnew,(5.1.6)-1
; #@! TF.FileFunction,Plated,1,2,PTH
FMAT,2
INCH
T1C0.0157
T2C0.0315
T3C0.0394
T4C0.0591
T5C0.1260
%
G90
G05
T1
X1.0843Y-1.6669
X1.1409Y-1.5165
X1.2276Y-1.8535
X1.3386Y-1.4173
X1.438Y-3.5807
X1.51Y-1.27
X1.5846Y-1.6142
X1.7287Y-1.5701
X1.89Y-1.49
X1.939Y-1.7717
X2.126Y-5.0591
X2.15Y-0.97
X2.2156Y-3.5797
X2.28Y-1.25
X2.5043Y-1.8713
X2.66Y-1.49
X2.6831Y-1.7567
X2.9433Y-5.0575
X2.9724Y-2.7756
X2.9724Y-3.5797
X2.9724Y-4.3307
X3.1217Y-1.7579
X3.1831Y-1.8374
X3.1988Y-1.002
X3.3728Y-1.9209
X3.4551Y-1.4008
X3.6024Y-5.0591
X3.7608Y-3.5758
X3.7667Y-1.373
X3.813Y-2.0138
X3.8504Y-1.0325
X3.9831Y-2.0472
X4.0157Y-1.2293
X4.0157Y-1.7844
X4.1209Y-1.3898
X4.1929Y-2.0364
X4.3051Y-1.7268
X4.31Y-1.37
X4.4508Y-1.7864
X4.5512Y-1.5811
X4.6823Y-2.2386
X4.7Y-1.37
X4.9695Y-1.3406
X5.0295Y-2.2378
X5.0992Y-4.45
X5.2197Y-2.3622
X5.2858Y-1.1862
X5.2902Y-3.5835
X5.2929Y-2.2374
X5.3614Y-3.1496
X5.4327Y-4.4531
X5.502Y-1.185
X5.511Y-2.2358
X5.5134Y-3.585
T2
X5.0591Y-3.1496
X5.0591Y-3.5496
X3.2677Y-1.8307
X3.4646Y-1.8307
X5.0197Y-1.8307
X5.2165Y-1.8307
X4.6457Y-1.8307
X4.8425Y-1.8307
X4.8425Y-2.3622
X4.8425Y-2.7622
X5.0591Y-2.3622
X5.0591Y-2.7622
X3.6417Y-1.8307
X3.8386Y-1.8307
X4.8425Y-3.1496
X4.8425Y-3.5496
T3
X3.0315Y-1.3165
X3.0315Y-1.4165
X3.0315Y-1.5165
X3.0315Y-1.6165
X3.3559Y-0.9055
X3.4559Y-0.9055
X3.5559Y-0.9055
X3.6559Y-0.9055
X3.7559Y-0.9055
X3.8559Y-0.9055
X3.9559Y-0.9055
X4.0559Y-0.9055
X4.1559Y-0.9055
X4.2559Y-0.9055
X4.3559Y-0.9055
X4.4559Y-0.9055
X4.5559Y-0.9055
X4.6559Y-0.9055
X4.7559Y-0.9055
X4.8559Y-0.9055
X4.9559Y-0.9055
X5.0559Y-0.9055
X5.1559Y-0.9055
X5.2559Y-0.9055
X0.9449Y-1.1165
X0.9449Y-1.2165
X0.9449Y-1.3165
X0.9449Y-1.4165
X0.9449Y-1.5165
X0.9449Y-1.6165
X0.9449Y-1.7165
X0.9449Y-1.8165
X4.7051Y-2.0083
X4.8051Y-2.0083
X3.3559Y-1.5039
X3.4559Y-1.5039
X3.5559Y-1.5039
X3.6559Y-1.5039
X3.7559Y-1.5039
X3.8559Y-1.5039
X3.9559Y-1.5039
X4.0559Y-1.5039
X4.1559Y-1.5039
X4.2559Y-1.5039
X4.3559Y-1.5039
X4.4559Y-1.5039
X4.5559Y-1.5039
X4.6559Y-1.5039
X4.7559Y-1.5039
X4.8559Y-1.5039
X4.9559Y-1.5039
X5.0559Y-1.5039
X5.1559Y-1.5039
X5.2559Y-1.5039
T4
X4.1807Y-4.0339
X4.4307Y-3.9339
X1.8185Y-4.8213
X2.0685Y-4.7213
X2.6059Y-4.0339
X2.8559Y-3.9339
X4.1807Y-3.2465
X4.4307Y-3.1465
X1.0311Y-4.8213
X1.2811Y-4.7213
X1.8185Y-4.0339
X2.0685Y-3.9339
X1.8185Y-3.2465
X2.0685Y-3.1465
X2.6059Y-3.2465
X2.8559Y-3.1465
X1.0311Y-4.0339
X1.2811Y-3.9339
X4.9681Y-4.8213
X5.2181Y-4.7213
X1.8185Y-2.4591
X2.0685Y-2.3591
X4.9681Y-4.0339
X5.2181Y-3.9339
X2.6059Y-2.4591
X2.8559Y-2.3591
X4.1807Y-2.4591
X4.4307Y-2.3591
X4.1807Y-4.8213
X4.4307Y-4.7213
X1.0311Y-2.4591
X1.2811Y-2.3591
X3.3933Y-2.4591
X3.6433Y-2.3591
X3.3933Y-4.8213
X3.6433Y-4.7213
X3.3933Y-4.0339
X3.6433Y-3.9339
X2.6059Y-4.8213
X2.8559Y-4.7213
X3.3933Y-3.2465
X3.6433Y-3.1465
X1.0311Y-3.2465
X1.2811Y-3.1465
T5
X3.937Y-2.9528
X5.6299Y-5.1969
X5.6299Y-0.8661
X0.6693Y-5.1969
X4.7244Y-4.5276
X1.5748Y-4.5276
X0.6693Y-0.8661
X0.9646Y-2.0276
X3.0118Y-2.0276
X3.0118Y-0.9055
X0.9646Y-0.9055
X1.5748Y-2.9528
T0
M30
