%TF.GenerationSoftware,KiCad,Pcbnew,(5.1.6)-1*%
%TF.CreationDate,2021-09-19T20:18:01-07:00*%
%TF.ProjectId,MicroTrainer,4d696372-6f54-4726-9169-6e65722e6b69,rev?*%
%TF.SameCoordinates,Original*%
%TF.FileFunction,Legend,Top*%
%TF.FilePolarity,Positive*%
%FSLAX46Y46*%
G04 Gerber Fmt 4.6, Leading zero omitted, Abs format (unit mm)*
G04 Created by KiCad (PCBNEW (5.1.6)-1) date 2021-09-19 20:18:01*
%MOMM*%
%LPD*%
G01*
G04 APERTURE LIST*
%ADD10C,0.100000*%
%ADD11C,0.330000*%
%ADD12C,0.190000*%
%ADD13C,0.120000*%
%ADD14C,0.150000*%
G04 APERTURE END LIST*
D10*
G36*
X146000000Y-79000000D02*
G01*
X137500000Y-79000000D01*
X137500000Y-36000000D01*
X146000000Y-36000000D01*
X146000000Y-79000000D01*
G37*
X146000000Y-79000000D02*
X137500000Y-79000000D01*
X137500000Y-36000000D01*
X146000000Y-36000000D01*
X146000000Y-79000000D01*
D11*
X144402380Y-91178571D02*
X141302380Y-91178571D01*
X144402380Y-89750000D01*
X141302380Y-89750000D01*
X144402380Y-87488095D02*
X142778571Y-87488095D01*
X142483333Y-87607142D01*
X142335714Y-87845238D01*
X142335714Y-88321428D01*
X142483333Y-88559523D01*
X144254761Y-87488095D02*
X144402380Y-87726190D01*
X144402380Y-88321428D01*
X144254761Y-88559523D01*
X143959523Y-88678571D01*
X143664285Y-88678571D01*
X143369047Y-88559523D01*
X143221428Y-88321428D01*
X143221428Y-87726190D01*
X143073809Y-87488095D01*
X144402380Y-86297619D02*
X142335714Y-86297619D01*
X142630952Y-86297619D02*
X142483333Y-86178571D01*
X142335714Y-85940476D01*
X142335714Y-85583333D01*
X142483333Y-85345238D01*
X142778571Y-85226190D01*
X144402380Y-85226190D01*
X142778571Y-85226190D02*
X142483333Y-85107142D01*
X142335714Y-84869047D01*
X142335714Y-84511904D01*
X142483333Y-84273809D01*
X142778571Y-84154761D01*
X144402380Y-84154761D01*
X144254761Y-82011904D02*
X144402380Y-82250000D01*
X144402380Y-82726190D01*
X144254761Y-82964285D01*
X143959523Y-83083333D01*
X142778571Y-83083333D01*
X142483333Y-82964285D01*
X142335714Y-82726190D01*
X142335714Y-82250000D01*
X142483333Y-82011904D01*
X142778571Y-81892857D01*
X143073809Y-81892857D01*
X143369047Y-83083333D01*
X144107142Y-80821428D02*
X144254761Y-80702380D01*
X144402380Y-80821428D01*
X144254761Y-80940476D01*
X144107142Y-80821428D01*
X144402380Y-80821428D01*
X142483333Y-80821428D02*
X142630952Y-80702380D01*
X142778571Y-80821428D01*
X142630952Y-80940476D01*
X142483333Y-80821428D01*
X142778571Y-80821428D01*
D12*
X16883333Y-119757142D02*
X16883333Y-118899999D01*
X17540476Y-119928571D02*
X15240476Y-119328571D01*
X17540476Y-118728571D01*
X17540476Y-117099999D02*
X16445238Y-117699999D01*
X17540476Y-118128571D02*
X15240476Y-118128571D01*
X15240476Y-117442857D01*
X15349999Y-117271428D01*
X15459523Y-117185714D01*
X15678571Y-117099999D01*
X16007142Y-117099999D01*
X16226190Y-117185714D01*
X16335714Y-117271428D01*
X16445238Y-117442857D01*
X16445238Y-118128571D01*
X17540476Y-116328571D02*
X15240476Y-116328571D01*
X16883333Y-115728571D01*
X15240476Y-115128571D01*
X17540476Y-115128571D01*
X17540476Y-112899999D02*
X15240476Y-112899999D01*
X16883333Y-112299999D01*
X15240476Y-111699999D01*
X17540476Y-111699999D01*
X17540476Y-110842857D02*
X16007142Y-110842857D01*
X15240476Y-110842857D02*
X15349999Y-110928571D01*
X15459523Y-110842857D01*
X15349999Y-110757142D01*
X15240476Y-110842857D01*
X15459523Y-110842857D01*
X17430952Y-109214285D02*
X17540476Y-109385714D01*
X17540476Y-109728571D01*
X17430952Y-109899999D01*
X17321428Y-109985714D01*
X17102380Y-110071428D01*
X16445238Y-110071428D01*
X16226190Y-109985714D01*
X16116666Y-109899999D01*
X16007142Y-109728571D01*
X16007142Y-109385714D01*
X16116666Y-109214285D01*
X17540476Y-108442857D02*
X16007142Y-108442857D01*
X16445238Y-108442857D02*
X16226190Y-108357142D01*
X16116666Y-108271428D01*
X16007142Y-108099999D01*
X16007142Y-107928571D01*
X17540476Y-107071428D02*
X17430952Y-107242857D01*
X17321428Y-107328571D01*
X17102380Y-107414285D01*
X16445238Y-107414285D01*
X16226190Y-107328571D01*
X16116666Y-107242857D01*
X16007142Y-107071428D01*
X16007142Y-106814285D01*
X16116666Y-106642857D01*
X16226190Y-106557142D01*
X16445238Y-106471428D01*
X17102380Y-106471428D01*
X17321428Y-106557142D01*
X17430952Y-106642857D01*
X17540476Y-106814285D01*
X17540476Y-107071428D01*
X16007142Y-105699999D02*
X18307142Y-105699999D01*
X16116666Y-105699999D02*
X16007142Y-105528571D01*
X16007142Y-105185714D01*
X16116666Y-105014285D01*
X16226190Y-104928571D01*
X16445238Y-104842857D01*
X17102380Y-104842857D01*
X17321428Y-104928571D01*
X17430952Y-105014285D01*
X17540476Y-105185714D01*
X17540476Y-105528571D01*
X17430952Y-105699999D01*
X17540476Y-104071428D02*
X16007142Y-104071428D01*
X16445238Y-104071428D02*
X16226190Y-103985714D01*
X16116666Y-103899999D01*
X16007142Y-103728571D01*
X16007142Y-103557142D01*
X17540476Y-102699999D02*
X17430952Y-102871428D01*
X17321428Y-102957142D01*
X17102380Y-103042857D01*
X16445238Y-103042857D01*
X16226190Y-102957142D01*
X16116666Y-102871428D01*
X16007142Y-102699999D01*
X16007142Y-102442857D01*
X16116666Y-102271428D01*
X16226190Y-102185714D01*
X16445238Y-102099999D01*
X17102380Y-102099999D01*
X17321428Y-102185714D01*
X17430952Y-102271428D01*
X17540476Y-102442857D01*
X17540476Y-102699999D01*
X17430952Y-100557142D02*
X17540476Y-100728571D01*
X17540476Y-101071428D01*
X17430952Y-101242857D01*
X17321428Y-101328571D01*
X17102380Y-101414285D01*
X16445238Y-101414285D01*
X16226190Y-101328571D01*
X16116666Y-101242857D01*
X16007142Y-101071428D01*
X16007142Y-100728571D01*
X16116666Y-100557142D01*
X17430952Y-99099999D02*
X17540476Y-99271428D01*
X17540476Y-99614285D01*
X17430952Y-99785714D01*
X17211904Y-99871428D01*
X16335714Y-99871428D01*
X16116666Y-99785714D01*
X16007142Y-99614285D01*
X16007142Y-99271428D01*
X16116666Y-99099999D01*
X16335714Y-99014285D01*
X16554761Y-99014285D01*
X16773809Y-99871428D01*
X17430952Y-98328571D02*
X17540476Y-98157142D01*
X17540476Y-97814285D01*
X17430952Y-97642857D01*
X17211904Y-97557142D01*
X17102380Y-97557142D01*
X16883333Y-97642857D01*
X16773809Y-97814285D01*
X16773809Y-98071428D01*
X16664285Y-98242857D01*
X16445238Y-98328571D01*
X16335714Y-98328571D01*
X16116666Y-98242857D01*
X16007142Y-98071428D01*
X16007142Y-97814285D01*
X16116666Y-97642857D01*
X17430952Y-96871428D02*
X17540476Y-96699999D01*
X17540476Y-96357142D01*
X17430952Y-96185714D01*
X17211904Y-96099999D01*
X17102380Y-96099999D01*
X16883333Y-96185714D01*
X16773809Y-96357142D01*
X16773809Y-96614285D01*
X16664285Y-96785714D01*
X16445238Y-96871428D01*
X16335714Y-96871428D01*
X16116666Y-96785714D01*
X16007142Y-96614285D01*
X16007142Y-96357142D01*
X16116666Y-96185714D01*
X17540476Y-95071428D02*
X17430952Y-95242857D01*
X17321428Y-95328571D01*
X17102380Y-95414285D01*
X16445238Y-95414285D01*
X16226190Y-95328571D01*
X16116666Y-95242857D01*
X16007142Y-95071428D01*
X16007142Y-94814285D01*
X16116666Y-94642857D01*
X16226190Y-94557142D01*
X16445238Y-94471428D01*
X17102380Y-94471428D01*
X17321428Y-94557142D01*
X17430952Y-94642857D01*
X17540476Y-94814285D01*
X17540476Y-95071428D01*
X17540476Y-93699999D02*
X16007142Y-93699999D01*
X16445238Y-93699999D02*
X16226190Y-93614285D01*
X16116666Y-93528571D01*
X16007142Y-93357142D01*
X16007142Y-93185714D01*
X15240476Y-91471428D02*
X15240476Y-90442857D01*
X17540476Y-90957142D02*
X15240476Y-90957142D01*
X17540476Y-89842857D02*
X16007142Y-89842857D01*
X16445238Y-89842857D02*
X16226190Y-89757142D01*
X16116666Y-89671428D01*
X16007142Y-89499999D01*
X16007142Y-89328571D01*
X17540476Y-87957142D02*
X16335714Y-87957142D01*
X16116666Y-88042857D01*
X16007142Y-88214285D01*
X16007142Y-88557142D01*
X16116666Y-88728571D01*
X17430952Y-87957142D02*
X17540476Y-88128571D01*
X17540476Y-88557142D01*
X17430952Y-88728571D01*
X17211904Y-88814285D01*
X16992857Y-88814285D01*
X16773809Y-88728571D01*
X16664285Y-88557142D01*
X16664285Y-88128571D01*
X16554761Y-87957142D01*
X17540476Y-87099999D02*
X16007142Y-87099999D01*
X15240476Y-87099999D02*
X15350000Y-87185714D01*
X15459523Y-87099999D01*
X15350000Y-87014285D01*
X15240476Y-87099999D01*
X15459523Y-87099999D01*
X16007142Y-86242857D02*
X17540476Y-86242857D01*
X16226190Y-86242857D02*
X16116666Y-86157142D01*
X16007142Y-85985714D01*
X16007142Y-85728571D01*
X16116666Y-85557142D01*
X16335714Y-85471428D01*
X17540476Y-85471428D01*
X17430952Y-83928571D02*
X17540476Y-84099999D01*
X17540476Y-84442857D01*
X17430952Y-84614285D01*
X17211904Y-84699999D01*
X16335714Y-84699999D01*
X16116666Y-84614285D01*
X16007142Y-84442857D01*
X16007142Y-84099999D01*
X16116666Y-83928571D01*
X16335714Y-83842857D01*
X16554761Y-83842857D01*
X16773809Y-84699999D01*
X17540476Y-83071428D02*
X16007142Y-83071428D01*
X16445238Y-83071428D02*
X16226190Y-82985714D01*
X16116666Y-82899999D01*
X16007142Y-82728571D01*
X16007142Y-82557142D01*
X17321428Y-75442857D02*
X17430952Y-75528571D01*
X17540476Y-75785714D01*
X17540476Y-75957142D01*
X17430952Y-76214285D01*
X17211904Y-76385714D01*
X16992857Y-76471428D01*
X16554761Y-76557142D01*
X16226190Y-76557142D01*
X15788095Y-76471428D01*
X15569047Y-76385714D01*
X15350000Y-76214285D01*
X15240476Y-75957142D01*
X15240476Y-75785714D01*
X15350000Y-75528571D01*
X15459523Y-75442857D01*
X17540476Y-74414285D02*
X17430952Y-74585714D01*
X17321428Y-74671428D01*
X17102380Y-74757142D01*
X16445238Y-74757142D01*
X16226190Y-74671428D01*
X16116666Y-74585714D01*
X16007142Y-74414285D01*
X16007142Y-74157142D01*
X16116666Y-73985714D01*
X16226190Y-73899999D01*
X16445238Y-73814285D01*
X17102380Y-73814285D01*
X17321428Y-73899999D01*
X17430952Y-73985714D01*
X17540476Y-74157142D01*
X17540476Y-74414285D01*
X16007142Y-73042857D02*
X18307142Y-73042857D01*
X16116666Y-73042857D02*
X16007142Y-72871428D01*
X16007142Y-72528571D01*
X16116666Y-72357142D01*
X16226190Y-72271428D01*
X16445238Y-72185714D01*
X17102380Y-72185714D01*
X17321428Y-72271428D01*
X17430952Y-72357142D01*
X17540476Y-72528571D01*
X17540476Y-72871428D01*
X17430952Y-73042857D01*
X16007142Y-71585714D02*
X17540476Y-71157142D01*
X16007142Y-70728571D02*
X17540476Y-71157142D01*
X18088095Y-71328571D01*
X18197619Y-71414285D01*
X18307142Y-71585714D01*
X17540476Y-70042857D02*
X16007142Y-70042857D01*
X16445238Y-70042857D02*
X16226190Y-69957142D01*
X16116666Y-69871428D01*
X16007142Y-69699999D01*
X16007142Y-69528571D01*
X17540476Y-68928571D02*
X16007142Y-68928571D01*
X15240476Y-68928571D02*
X15350000Y-69014285D01*
X15459523Y-68928571D01*
X15350000Y-68842857D01*
X15240476Y-68928571D01*
X15459523Y-68928571D01*
X16007142Y-67299999D02*
X17869047Y-67299999D01*
X18088095Y-67385714D01*
X18197619Y-67471428D01*
X18307142Y-67642857D01*
X18307142Y-67899999D01*
X18197619Y-68071428D01*
X17430952Y-67299999D02*
X17540476Y-67471428D01*
X17540476Y-67814285D01*
X17430952Y-67985714D01*
X17321428Y-68071428D01*
X17102380Y-68157142D01*
X16445238Y-68157142D01*
X16226190Y-68071428D01*
X16116666Y-67985714D01*
X16007142Y-67814285D01*
X16007142Y-67471428D01*
X16116666Y-67299999D01*
X17540476Y-66442857D02*
X15240476Y-66442857D01*
X17540476Y-65671428D02*
X16335714Y-65671428D01*
X16116666Y-65757142D01*
X16007142Y-65928571D01*
X16007142Y-66185714D01*
X16116666Y-66357142D01*
X16226190Y-66442857D01*
X16007142Y-65071428D02*
X16007142Y-64385714D01*
X15240476Y-64814285D02*
X17211904Y-64814285D01*
X17430952Y-64728571D01*
X17540476Y-64557142D01*
X17540476Y-64385714D01*
X15459523Y-62499999D02*
X15350000Y-62414285D01*
X15240476Y-62242857D01*
X15240476Y-61814285D01*
X15350000Y-61642857D01*
X15459523Y-61557142D01*
X15678571Y-61471428D01*
X15897619Y-61471428D01*
X16226190Y-61557142D01*
X17540476Y-62585714D01*
X17540476Y-61471428D01*
X15240476Y-60357142D02*
X15240476Y-60185714D01*
X15350000Y-60014285D01*
X15459523Y-59928571D01*
X15678571Y-59842857D01*
X16116666Y-59757142D01*
X16664285Y-59757142D01*
X17102380Y-59842857D01*
X17321428Y-59928571D01*
X17430952Y-60014285D01*
X17540476Y-60185714D01*
X17540476Y-60357142D01*
X17430952Y-60528571D01*
X17321428Y-60614285D01*
X17102380Y-60699999D01*
X16664285Y-60785714D01*
X16116666Y-60785714D01*
X15678571Y-60699999D01*
X15459523Y-60614285D01*
X15350000Y-60528571D01*
X15240476Y-60357142D01*
X15459523Y-59071428D02*
X15350000Y-58985714D01*
X15240476Y-58814285D01*
X15240476Y-58385714D01*
X15350000Y-58214285D01*
X15459523Y-58128571D01*
X15678571Y-58042857D01*
X15897619Y-58042857D01*
X16226190Y-58128571D01*
X17540476Y-59157142D01*
X17540476Y-58042857D01*
X17540476Y-56328571D02*
X17540476Y-57357142D01*
X17540476Y-56842857D02*
X15240476Y-56842857D01*
X15569047Y-57014285D01*
X15788095Y-57185714D01*
X15897619Y-57357142D01*
X17540476Y-54185714D02*
X15240476Y-54185714D01*
X16883333Y-53585714D01*
X15240476Y-52985714D01*
X17540476Y-52985714D01*
X17321428Y-52128571D02*
X17430952Y-52042857D01*
X17540476Y-52128571D01*
X17430952Y-52214285D01*
X17321428Y-52128571D01*
X17540476Y-52128571D01*
X17540476Y-49042857D02*
X17540476Y-49899999D01*
X15240476Y-49899999D01*
X16007142Y-48614285D02*
X17540476Y-48185714D01*
X16007142Y-47757142D02*
X17540476Y-48185714D01*
X18088095Y-48357142D01*
X18197619Y-48442857D01*
X18307142Y-48614285D01*
X17540476Y-46814285D02*
X17430952Y-46985714D01*
X17211904Y-47071428D01*
X15240476Y-47071428D01*
X17430952Y-45442857D02*
X17540476Y-45614285D01*
X17540476Y-45957142D01*
X17430952Y-46128571D01*
X17211904Y-46214285D01*
X16335714Y-46214285D01*
X16116666Y-46128571D01*
X16007142Y-45957142D01*
X16007142Y-45614285D01*
X16116666Y-45442857D01*
X16335714Y-45357142D01*
X16554761Y-45357142D01*
X16773809Y-46214285D01*
X17540476Y-38071428D02*
X16445238Y-38671428D01*
X17540476Y-39099999D02*
X15240476Y-39099999D01*
X15240476Y-38414285D01*
X15350000Y-38242857D01*
X15459523Y-38157142D01*
X15678571Y-38071428D01*
X16007142Y-38071428D01*
X16226190Y-38157142D01*
X16335714Y-38242857D01*
X16445238Y-38414285D01*
X16445238Y-39099999D01*
X17430952Y-36614285D02*
X17540476Y-36785714D01*
X17540476Y-37128571D01*
X17430952Y-37299999D01*
X17211904Y-37385714D01*
X16335714Y-37385714D01*
X16116666Y-37299999D01*
X16007142Y-37128571D01*
X16007142Y-36785714D01*
X16116666Y-36614285D01*
X16335714Y-36528571D01*
X16554761Y-36528571D01*
X16773809Y-37385714D01*
X16007142Y-35928571D02*
X17540476Y-35499999D01*
X16007142Y-35071428D01*
X16883333Y-33099999D02*
X16883333Y-32242857D01*
X17540476Y-33271428D02*
X15240476Y-32671428D01*
X17540476Y-32071428D01*
D13*
%TO.C,J3*%
X123380000Y-52340000D02*
X123380000Y-49680000D01*
X120780000Y-52340000D02*
X123380000Y-52340000D01*
X120780000Y-49680000D02*
X123380000Y-49680000D01*
X120780000Y-52340000D02*
X120780000Y-49680000D01*
X119510000Y-52340000D02*
X118180000Y-52340000D01*
X118180000Y-52340000D02*
X118180000Y-51010000D01*
%TO.C,J5*%
X22670000Y-29630000D02*
X25330000Y-29630000D01*
X22670000Y-29630000D02*
X22670000Y-47470000D01*
X22670000Y-47470000D02*
X25330000Y-47470000D01*
X25330000Y-29630000D02*
X25330000Y-47470000D01*
X25330000Y-27030000D02*
X25330000Y-28360000D01*
X24000000Y-27030000D02*
X25330000Y-27030000D01*
%TO.C,J4*%
X75670000Y-34710000D02*
X78330000Y-34710000D01*
X75670000Y-34710000D02*
X75670000Y-42390000D01*
X75670000Y-42390000D02*
X78330000Y-42390000D01*
X78330000Y-34710000D02*
X78330000Y-42390000D01*
X78330000Y-32110000D02*
X78330000Y-33440000D01*
X77000000Y-32110000D02*
X78330000Y-32110000D01*
%TO.C,J2*%
X132230000Y-36870000D02*
X132230000Y-39530000D01*
X132230000Y-36870000D02*
X83910000Y-36870000D01*
X83910000Y-36870000D02*
X83910000Y-39530000D01*
X132230000Y-39530000D02*
X83910000Y-39530000D01*
X134830000Y-39530000D02*
X133500000Y-39530000D01*
X134830000Y-38200000D02*
X134830000Y-39530000D01*
%TO.C,J1*%
X132230000Y-21670000D02*
X132230000Y-24330000D01*
X132230000Y-21670000D02*
X83910000Y-21670000D01*
X83910000Y-21670000D02*
X83910000Y-24330000D01*
X132230000Y-24330000D02*
X83910000Y-24330000D01*
X134830000Y-24330000D02*
X133500000Y-24330000D01*
X134830000Y-23000000D02*
X134830000Y-24330000D01*
%TO.C,C4*%
X81880000Y-44130000D02*
X89120000Y-44130000D01*
X81880000Y-48870000D02*
X89120000Y-48870000D01*
X81880000Y-44130000D02*
X81880000Y-48870000D01*
X89120000Y-44130000D02*
X89120000Y-48870000D01*
%TO.C,C3*%
X91380000Y-44130000D02*
X98620000Y-44130000D01*
X91380000Y-48870000D02*
X98620000Y-48870000D01*
X91380000Y-44130000D02*
X91380000Y-48870000D01*
X98620000Y-44130000D02*
X98620000Y-48870000D01*
%TO.C,C2*%
X116880000Y-44130000D02*
X124120000Y-44130000D01*
X116880000Y-48870000D02*
X124120000Y-48870000D01*
X116880000Y-44130000D02*
X116880000Y-48870000D01*
X124120000Y-44130000D02*
X124120000Y-48870000D01*
%TO.C,C1*%
X126380000Y-44130000D02*
X133620000Y-44130000D01*
X126380000Y-48870000D02*
X133620000Y-48870000D01*
X126380000Y-44130000D02*
X126380000Y-48870000D01*
X133620000Y-44130000D02*
X133620000Y-48870000D01*
%TO.C,SW24*%
X123015000Y-118015000D02*
X136985000Y-118015000D01*
X136985000Y-118015000D02*
X136985000Y-131985000D01*
X136985000Y-131985000D02*
X123015000Y-131985000D01*
X123015000Y-131985000D02*
X123015000Y-118015000D01*
%TO.C,SW23*%
X103015000Y-118015000D02*
X116985000Y-118015000D01*
X116985000Y-118015000D02*
X116985000Y-131985000D01*
X116985000Y-131985000D02*
X103015000Y-131985000D01*
X103015000Y-131985000D02*
X103015000Y-118015000D01*
%TO.C,SW22*%
X83015000Y-118015000D02*
X96985000Y-118015000D01*
X96985000Y-118015000D02*
X96985000Y-131985000D01*
X96985000Y-131985000D02*
X83015000Y-131985000D01*
X83015000Y-131985000D02*
X83015000Y-118015000D01*
%TO.C,SW21*%
X63015000Y-118015000D02*
X76985000Y-118015000D01*
X76985000Y-118015000D02*
X76985000Y-131985000D01*
X76985000Y-131985000D02*
X63015000Y-131985000D01*
X63015000Y-131985000D02*
X63015000Y-118015000D01*
%TO.C,SW20*%
X43015000Y-118015000D02*
X56985000Y-118015000D01*
X56985000Y-118015000D02*
X56985000Y-131985000D01*
X56985000Y-131985000D02*
X43015000Y-131985000D01*
X43015000Y-131985000D02*
X43015000Y-118015000D01*
%TO.C,SW19*%
X23015000Y-118015000D02*
X36985000Y-118015000D01*
X36985000Y-118015000D02*
X36985000Y-131985000D01*
X36985000Y-131985000D02*
X23015000Y-131985000D01*
X23015000Y-131985000D02*
X23015000Y-118015000D01*
%TO.C,SW18*%
X123015000Y-98015000D02*
X136985000Y-98015000D01*
X136985000Y-98015000D02*
X136985000Y-111985000D01*
X136985000Y-111985000D02*
X123015000Y-111985000D01*
X123015000Y-111985000D02*
X123015000Y-98015000D01*
%TO.C,SW17*%
X103015000Y-98015000D02*
X116985000Y-98015000D01*
X116985000Y-98015000D02*
X116985000Y-111985000D01*
X116985000Y-111985000D02*
X103015000Y-111985000D01*
X103015000Y-111985000D02*
X103015000Y-98015000D01*
%TO.C,SW16*%
X83015000Y-98015000D02*
X96985000Y-98015000D01*
X96985000Y-98015000D02*
X96985000Y-111985000D01*
X96985000Y-111985000D02*
X83015000Y-111985000D01*
X83015000Y-111985000D02*
X83015000Y-98015000D01*
%TO.C,SW15*%
X63015000Y-98015000D02*
X76985000Y-98015000D01*
X76985000Y-98015000D02*
X76985000Y-111985000D01*
X76985000Y-111985000D02*
X63015000Y-111985000D01*
X63015000Y-111985000D02*
X63015000Y-98015000D01*
%TO.C,SW14*%
X43015000Y-98015000D02*
X56985000Y-98015000D01*
X56985000Y-98015000D02*
X56985000Y-111985000D01*
X56985000Y-111985000D02*
X43015000Y-111985000D01*
X43015000Y-111985000D02*
X43015000Y-98015000D01*
%TO.C,SW13*%
X23015000Y-98015000D02*
X36985000Y-98015000D01*
X36985000Y-98015000D02*
X36985000Y-111985000D01*
X36985000Y-111985000D02*
X23015000Y-111985000D01*
X23015000Y-111985000D02*
X23015000Y-98015000D01*
%TO.C,SW11*%
X103015000Y-78015000D02*
X116985000Y-78015000D01*
X116985000Y-78015000D02*
X116985000Y-91985000D01*
X116985000Y-91985000D02*
X103015000Y-91985000D01*
X103015000Y-91985000D02*
X103015000Y-78015000D01*
%TO.C,SW10*%
X83015000Y-78015000D02*
X96985000Y-78015000D01*
X96985000Y-78015000D02*
X96985000Y-91985000D01*
X96985000Y-91985000D02*
X83015000Y-91985000D01*
X83015000Y-91985000D02*
X83015000Y-78015000D01*
%TO.C,SW9*%
X63015000Y-78015000D02*
X76985000Y-78015000D01*
X76985000Y-78015000D02*
X76985000Y-91985000D01*
X76985000Y-91985000D02*
X63015000Y-91985000D01*
X63015000Y-91985000D02*
X63015000Y-78015000D01*
%TO.C,SW8*%
X43015000Y-78015000D02*
X56985000Y-78015000D01*
X56985000Y-78015000D02*
X56985000Y-91985000D01*
X56985000Y-91985000D02*
X43015000Y-91985000D01*
X43015000Y-91985000D02*
X43015000Y-78015000D01*
%TO.C,SW7*%
X23015000Y-78015000D02*
X36985000Y-78015000D01*
X36985000Y-78015000D02*
X36985000Y-91985000D01*
X36985000Y-91985000D02*
X23015000Y-91985000D01*
X23015000Y-91985000D02*
X23015000Y-78015000D01*
%TO.C,SW5*%
X103015000Y-58015000D02*
X116985000Y-58015000D01*
X116985000Y-58015000D02*
X116985000Y-71985000D01*
X116985000Y-71985000D02*
X103015000Y-71985000D01*
X103015000Y-71985000D02*
X103015000Y-58015000D01*
%TO.C,SW4*%
X83015000Y-58015000D02*
X96985000Y-58015000D01*
X96985000Y-58015000D02*
X96985000Y-71985000D01*
X96985000Y-71985000D02*
X83015000Y-71985000D01*
X83015000Y-71985000D02*
X83015000Y-58015000D01*
%TO.C,SW3*%
X63015000Y-58015000D02*
X76985000Y-58015000D01*
X76985000Y-58015000D02*
X76985000Y-71985000D01*
X76985000Y-71985000D02*
X63015000Y-71985000D01*
X63015000Y-71985000D02*
X63015000Y-58015000D01*
%TO.C,SW2*%
X43015000Y-58015000D02*
X56985000Y-58015000D01*
X56985000Y-58015000D02*
X56985000Y-71985000D01*
X56985000Y-71985000D02*
X43015000Y-71985000D01*
X43015000Y-71985000D02*
X43015000Y-58015000D01*
%TO.C,SW1*%
X23015000Y-58015000D02*
X36985000Y-58015000D01*
X36985000Y-58015000D02*
X36985000Y-71985000D01*
X36985000Y-71985000D02*
X23015000Y-71985000D01*
X23015000Y-71985000D02*
X23015000Y-58015000D01*
%TO.C,R4*%
X129870000Y-81810000D02*
X127130000Y-81810000D01*
X127130000Y-81810000D02*
X127130000Y-88350000D01*
X127130000Y-88350000D02*
X129870000Y-88350000D01*
X129870000Y-88350000D02*
X129870000Y-81810000D01*
X128500000Y-81040000D02*
X128500000Y-81810000D01*
X128500000Y-89120000D02*
X128500000Y-88350000D01*
%TO.C,R3*%
X129870000Y-61810000D02*
X127130000Y-61810000D01*
X127130000Y-61810000D02*
X127130000Y-68350000D01*
X127130000Y-68350000D02*
X129870000Y-68350000D01*
X129870000Y-68350000D02*
X129870000Y-61810000D01*
X128500000Y-61040000D02*
X128500000Y-61810000D01*
X128500000Y-69120000D02*
X128500000Y-68350000D01*
%TO.C,R2*%
X124370000Y-81810000D02*
X121630000Y-81810000D01*
X121630000Y-81810000D02*
X121630000Y-88350000D01*
X121630000Y-88350000D02*
X124370000Y-88350000D01*
X124370000Y-88350000D02*
X124370000Y-81810000D01*
X123000000Y-81040000D02*
X123000000Y-81810000D01*
X123000000Y-89120000D02*
X123000000Y-88350000D01*
%TO.C,R1*%
X124370000Y-61810000D02*
X121630000Y-61810000D01*
X121630000Y-61810000D02*
X121630000Y-68350000D01*
X121630000Y-68350000D02*
X124370000Y-68350000D01*
X124370000Y-68350000D02*
X124370000Y-61810000D01*
X123000000Y-61040000D02*
X123000000Y-61810000D01*
X123000000Y-69120000D02*
X123000000Y-68350000D01*
%TO.C,J3*%
D14*
X116266666Y-50472380D02*
X116266666Y-51186666D01*
X116219047Y-51329523D01*
X116123809Y-51424761D01*
X115980952Y-51472380D01*
X115885714Y-51472380D01*
X116647619Y-50472380D02*
X117266666Y-50472380D01*
X116933333Y-50853333D01*
X117076190Y-50853333D01*
X117171428Y-50900952D01*
X117219047Y-50948571D01*
X117266666Y-51043809D01*
X117266666Y-51281904D01*
X117219047Y-51377142D01*
X117171428Y-51424761D01*
X117076190Y-51472380D01*
X116790476Y-51472380D01*
X116695238Y-51424761D01*
X116647619Y-51377142D01*
%TO.C,J5*%
X20491666Y-27877380D02*
X20491666Y-28591666D01*
X20444047Y-28734523D01*
X20348809Y-28829761D01*
X20205952Y-28877380D01*
X20110714Y-28877380D01*
X21444047Y-27877380D02*
X20967857Y-27877380D01*
X20920238Y-28353571D01*
X20967857Y-28305952D01*
X21063095Y-28258333D01*
X21301190Y-28258333D01*
X21396428Y-28305952D01*
X21444047Y-28353571D01*
X21491666Y-28448809D01*
X21491666Y-28686904D01*
X21444047Y-28782142D01*
X21396428Y-28829761D01*
X21301190Y-28877380D01*
X21063095Y-28877380D01*
X20967857Y-28829761D01*
X20920238Y-28782142D01*
%TO.C,J4*%
X79991666Y-32877380D02*
X79991666Y-33591666D01*
X79944047Y-33734523D01*
X79848809Y-33829761D01*
X79705952Y-33877380D01*
X79610714Y-33877380D01*
X80896428Y-33210714D02*
X80896428Y-33877380D01*
X80658333Y-32829761D02*
X80420238Y-33544047D01*
X81039285Y-33544047D01*
%TO.C,J2*%
X135722380Y-38533333D02*
X136436666Y-38533333D01*
X136579523Y-38580952D01*
X136674761Y-38676190D01*
X136722380Y-38819047D01*
X136722380Y-38914285D01*
X135817619Y-38104761D02*
X135770000Y-38057142D01*
X135722380Y-37961904D01*
X135722380Y-37723809D01*
X135770000Y-37628571D01*
X135817619Y-37580952D01*
X135912857Y-37533333D01*
X136008095Y-37533333D01*
X136150952Y-37580952D01*
X136722380Y-38152380D01*
X136722380Y-37533333D01*
%TO.C,J1*%
X135722380Y-23333333D02*
X136436666Y-23333333D01*
X136579523Y-23380952D01*
X136674761Y-23476190D01*
X136722380Y-23619047D01*
X136722380Y-23714285D01*
X136722380Y-22333333D02*
X136722380Y-22904761D01*
X136722380Y-22619047D02*
X135722380Y-22619047D01*
X135865238Y-22714285D01*
X135960476Y-22809523D01*
X136008095Y-22904761D01*
%TO.C,C4*%
X82833333Y-43357142D02*
X82785714Y-43404761D01*
X82642857Y-43452380D01*
X82547619Y-43452380D01*
X82404761Y-43404761D01*
X82309523Y-43309523D01*
X82261904Y-43214285D01*
X82214285Y-43023809D01*
X82214285Y-42880952D01*
X82261904Y-42690476D01*
X82309523Y-42595238D01*
X82404761Y-42500000D01*
X82547619Y-42452380D01*
X82642857Y-42452380D01*
X82785714Y-42500000D01*
X82833333Y-42547619D01*
X83690476Y-42785714D02*
X83690476Y-43452380D01*
X83452380Y-42404761D02*
X83214285Y-43119047D01*
X83833333Y-43119047D01*
X85857142Y-42452380D02*
X85952380Y-42452380D01*
X86047619Y-42500000D01*
X86095238Y-42547619D01*
X86142857Y-42642857D01*
X86190476Y-42833333D01*
X86190476Y-43071428D01*
X86142857Y-43261904D01*
X86095238Y-43357142D01*
X86047619Y-43404761D01*
X85952380Y-43452380D01*
X85857142Y-43452380D01*
X85761904Y-43404761D01*
X85714285Y-43357142D01*
X85666666Y-43261904D01*
X85619047Y-43071428D01*
X85619047Y-42833333D01*
X85666666Y-42642857D01*
X85714285Y-42547619D01*
X85761904Y-42500000D01*
X85857142Y-42452380D01*
X86619047Y-43357142D02*
X86666666Y-43404761D01*
X86619047Y-43452380D01*
X86571428Y-43404761D01*
X86619047Y-43357142D01*
X86619047Y-43452380D01*
X87619047Y-43452380D02*
X87047619Y-43452380D01*
X87333333Y-43452380D02*
X87333333Y-42452380D01*
X87238095Y-42595238D01*
X87142857Y-42690476D01*
X87047619Y-42738095D01*
X88476190Y-42785714D02*
X88476190Y-43452380D01*
X88047619Y-42785714D02*
X88047619Y-43309523D01*
X88095238Y-43404761D01*
X88190476Y-43452380D01*
X88333333Y-43452380D01*
X88428571Y-43404761D01*
X88476190Y-43357142D01*
X89285714Y-42928571D02*
X88952380Y-42928571D01*
X88952380Y-43452380D02*
X88952380Y-42452380D01*
X89428571Y-42452380D01*
%TO.C,C3*%
X91833333Y-43357142D02*
X91785714Y-43404761D01*
X91642857Y-43452380D01*
X91547619Y-43452380D01*
X91404761Y-43404761D01*
X91309523Y-43309523D01*
X91261904Y-43214285D01*
X91214285Y-43023809D01*
X91214285Y-42880952D01*
X91261904Y-42690476D01*
X91309523Y-42595238D01*
X91404761Y-42500000D01*
X91547619Y-42452380D01*
X91642857Y-42452380D01*
X91785714Y-42500000D01*
X91833333Y-42547619D01*
X92166666Y-42452380D02*
X92785714Y-42452380D01*
X92452380Y-42833333D01*
X92595238Y-42833333D01*
X92690476Y-42880952D01*
X92738095Y-42928571D01*
X92785714Y-43023809D01*
X92785714Y-43261904D01*
X92738095Y-43357142D01*
X92690476Y-43404761D01*
X92595238Y-43452380D01*
X92309523Y-43452380D01*
X92214285Y-43404761D01*
X92166666Y-43357142D01*
X96404761Y-43452380D02*
X95833333Y-43452380D01*
X96119047Y-43452380D02*
X96119047Y-42452380D01*
X96023809Y-42595238D01*
X95928571Y-42690476D01*
X95833333Y-42738095D01*
X97261904Y-42785714D02*
X97261904Y-43452380D01*
X96833333Y-42785714D02*
X96833333Y-43309523D01*
X96880952Y-43404761D01*
X96976190Y-43452380D01*
X97119047Y-43452380D01*
X97214285Y-43404761D01*
X97261904Y-43357142D01*
X98071428Y-42928571D02*
X97738095Y-42928571D01*
X97738095Y-43452380D02*
X97738095Y-42452380D01*
X98214285Y-42452380D01*
%TO.C,C2*%
X117333333Y-43357142D02*
X117285714Y-43404761D01*
X117142857Y-43452380D01*
X117047619Y-43452380D01*
X116904761Y-43404761D01*
X116809523Y-43309523D01*
X116761904Y-43214285D01*
X116714285Y-43023809D01*
X116714285Y-42880952D01*
X116761904Y-42690476D01*
X116809523Y-42595238D01*
X116904761Y-42500000D01*
X117047619Y-42452380D01*
X117142857Y-42452380D01*
X117285714Y-42500000D01*
X117333333Y-42547619D01*
X117714285Y-42547619D02*
X117761904Y-42500000D01*
X117857142Y-42452380D01*
X118095238Y-42452380D01*
X118190476Y-42500000D01*
X118238095Y-42547619D01*
X118285714Y-42642857D01*
X118285714Y-42738095D01*
X118238095Y-42880952D01*
X117666666Y-43452380D01*
X118285714Y-43452380D01*
X120357142Y-42452380D02*
X120452380Y-42452380D01*
X120547619Y-42500000D01*
X120595238Y-42547619D01*
X120642857Y-42642857D01*
X120690476Y-42833333D01*
X120690476Y-43071428D01*
X120642857Y-43261904D01*
X120595238Y-43357142D01*
X120547619Y-43404761D01*
X120452380Y-43452380D01*
X120357142Y-43452380D01*
X120261904Y-43404761D01*
X120214285Y-43357142D01*
X120166666Y-43261904D01*
X120119047Y-43071428D01*
X120119047Y-42833333D01*
X120166666Y-42642857D01*
X120214285Y-42547619D01*
X120261904Y-42500000D01*
X120357142Y-42452380D01*
X121119047Y-43357142D02*
X121166666Y-43404761D01*
X121119047Y-43452380D01*
X121071428Y-43404761D01*
X121119047Y-43357142D01*
X121119047Y-43452380D01*
X122119047Y-43452380D02*
X121547619Y-43452380D01*
X121833333Y-43452380D02*
X121833333Y-42452380D01*
X121738095Y-42595238D01*
X121642857Y-42690476D01*
X121547619Y-42738095D01*
X122976190Y-42785714D02*
X122976190Y-43452380D01*
X122547619Y-42785714D02*
X122547619Y-43309523D01*
X122595238Y-43404761D01*
X122690476Y-43452380D01*
X122833333Y-43452380D01*
X122928571Y-43404761D01*
X122976190Y-43357142D01*
X123785714Y-42928571D02*
X123452380Y-42928571D01*
X123452380Y-43452380D02*
X123452380Y-42452380D01*
X123928571Y-42452380D01*
%TO.C,C1*%
X126833333Y-43357142D02*
X126785714Y-43404761D01*
X126642857Y-43452380D01*
X126547619Y-43452380D01*
X126404761Y-43404761D01*
X126309523Y-43309523D01*
X126261904Y-43214285D01*
X126214285Y-43023809D01*
X126214285Y-42880952D01*
X126261904Y-42690476D01*
X126309523Y-42595238D01*
X126404761Y-42500000D01*
X126547619Y-42452380D01*
X126642857Y-42452380D01*
X126785714Y-42500000D01*
X126833333Y-42547619D01*
X127785714Y-43452380D02*
X127214285Y-43452380D01*
X127500000Y-43452380D02*
X127500000Y-42452380D01*
X127404761Y-42595238D01*
X127309523Y-42690476D01*
X127214285Y-42738095D01*
X131904761Y-43452380D02*
X131333333Y-43452380D01*
X131619047Y-43452380D02*
X131619047Y-42452380D01*
X131523809Y-42595238D01*
X131428571Y-42690476D01*
X131333333Y-42738095D01*
X132761904Y-42785714D02*
X132761904Y-43452380D01*
X132333333Y-42785714D02*
X132333333Y-43309523D01*
X132380952Y-43404761D01*
X132476190Y-43452380D01*
X132619047Y-43452380D01*
X132714285Y-43404761D01*
X132761904Y-43357142D01*
X133571428Y-42928571D02*
X133238095Y-42928571D01*
X133238095Y-43452380D02*
X133238095Y-42452380D01*
X133714285Y-42452380D01*
%TO.C,SW24*%
X128190476Y-117530761D02*
X128333333Y-117578380D01*
X128571428Y-117578380D01*
X128666666Y-117530761D01*
X128714285Y-117483142D01*
X128761904Y-117387904D01*
X128761904Y-117292666D01*
X128714285Y-117197428D01*
X128666666Y-117149809D01*
X128571428Y-117102190D01*
X128380952Y-117054571D01*
X128285714Y-117006952D01*
X128238095Y-116959333D01*
X128190476Y-116864095D01*
X128190476Y-116768857D01*
X128238095Y-116673619D01*
X128285714Y-116626000D01*
X128380952Y-116578380D01*
X128619047Y-116578380D01*
X128761904Y-116626000D01*
X129095238Y-116578380D02*
X129333333Y-117578380D01*
X129523809Y-116864095D01*
X129714285Y-117578380D01*
X129952380Y-116578380D01*
X130285714Y-116673619D02*
X130333333Y-116626000D01*
X130428571Y-116578380D01*
X130666666Y-116578380D01*
X130761904Y-116626000D01*
X130809523Y-116673619D01*
X130857142Y-116768857D01*
X130857142Y-116864095D01*
X130809523Y-117006952D01*
X130238095Y-117578380D01*
X130857142Y-117578380D01*
X131714285Y-116911714D02*
X131714285Y-117578380D01*
X131476190Y-116530761D02*
X131238095Y-117245047D01*
X131857142Y-117245047D01*
X126928571Y-133326380D02*
X126928571Y-132326380D01*
X127500000Y-133326380D02*
X127071428Y-132754952D01*
X127500000Y-132326380D02*
X126928571Y-132897809D01*
X127928571Y-132802571D02*
X128261904Y-132802571D01*
X128404761Y-133326380D02*
X127928571Y-133326380D01*
X127928571Y-132326380D01*
X128404761Y-132326380D01*
X129023809Y-132850190D02*
X129023809Y-133326380D01*
X128690476Y-132326380D02*
X129023809Y-132850190D01*
X129357142Y-132326380D01*
X129452380Y-133421619D02*
X130214285Y-133421619D01*
X131023809Y-133326380D02*
X130690476Y-132850190D01*
X130452380Y-133326380D02*
X130452380Y-132326380D01*
X130833333Y-132326380D01*
X130928571Y-132374000D01*
X130976190Y-132421619D01*
X131023809Y-132516857D01*
X131023809Y-132659714D01*
X130976190Y-132754952D01*
X130928571Y-132802571D01*
X130833333Y-132850190D01*
X130452380Y-132850190D01*
X131452380Y-132326380D02*
X131452380Y-133135904D01*
X131500000Y-133231142D01*
X131547619Y-133278761D01*
X131642857Y-133326380D01*
X131833333Y-133326380D01*
X131928571Y-133278761D01*
X131976190Y-133231142D01*
X132023809Y-133135904D01*
X132023809Y-132326380D01*
X132500000Y-133326380D02*
X132500000Y-132326380D01*
X133071428Y-133326380D01*
X133071428Y-132326380D01*
%TO.C,SW23*%
X108190476Y-117530761D02*
X108333333Y-117578380D01*
X108571428Y-117578380D01*
X108666666Y-117530761D01*
X108714285Y-117483142D01*
X108761904Y-117387904D01*
X108761904Y-117292666D01*
X108714285Y-117197428D01*
X108666666Y-117149809D01*
X108571428Y-117102190D01*
X108380952Y-117054571D01*
X108285714Y-117006952D01*
X108238095Y-116959333D01*
X108190476Y-116864095D01*
X108190476Y-116768857D01*
X108238095Y-116673619D01*
X108285714Y-116626000D01*
X108380952Y-116578380D01*
X108619047Y-116578380D01*
X108761904Y-116626000D01*
X109095238Y-116578380D02*
X109333333Y-117578380D01*
X109523809Y-116864095D01*
X109714285Y-117578380D01*
X109952380Y-116578380D01*
X110285714Y-116673619D02*
X110333333Y-116626000D01*
X110428571Y-116578380D01*
X110666666Y-116578380D01*
X110761904Y-116626000D01*
X110809523Y-116673619D01*
X110857142Y-116768857D01*
X110857142Y-116864095D01*
X110809523Y-117006952D01*
X110238095Y-117578380D01*
X110857142Y-117578380D01*
X111190476Y-116578380D02*
X111809523Y-116578380D01*
X111476190Y-116959333D01*
X111619047Y-116959333D01*
X111714285Y-117006952D01*
X111761904Y-117054571D01*
X111809523Y-117149809D01*
X111809523Y-117387904D01*
X111761904Y-117483142D01*
X111714285Y-117530761D01*
X111619047Y-117578380D01*
X111333333Y-117578380D01*
X111238095Y-117530761D01*
X111190476Y-117483142D01*
X106619047Y-133326380D02*
X106619047Y-132326380D01*
X107190476Y-133326380D02*
X106761904Y-132754952D01*
X107190476Y-132326380D02*
X106619047Y-132897809D01*
X107619047Y-132802571D02*
X107952380Y-132802571D01*
X108095238Y-133326380D02*
X107619047Y-133326380D01*
X107619047Y-132326380D01*
X108095238Y-132326380D01*
X108714285Y-132850190D02*
X108714285Y-133326380D01*
X108380952Y-132326380D02*
X108714285Y-132850190D01*
X109047619Y-132326380D01*
X109142857Y-133421619D02*
X109904761Y-133421619D01*
X110619047Y-133326380D02*
X110142857Y-133326380D01*
X110142857Y-132326380D01*
X111142857Y-132326380D02*
X111333333Y-132326380D01*
X111428571Y-132374000D01*
X111523809Y-132469238D01*
X111571428Y-132659714D01*
X111571428Y-132993047D01*
X111523809Y-133183523D01*
X111428571Y-133278761D01*
X111333333Y-133326380D01*
X111142857Y-133326380D01*
X111047619Y-133278761D01*
X110952380Y-133183523D01*
X110904761Y-132993047D01*
X110904761Y-132659714D01*
X110952380Y-132469238D01*
X111047619Y-132374000D01*
X111142857Y-132326380D01*
X111952380Y-133040666D02*
X112428571Y-133040666D01*
X111857142Y-133326380D02*
X112190476Y-132326380D01*
X112523809Y-133326380D01*
X112857142Y-133326380D02*
X112857142Y-132326380D01*
X113095238Y-132326380D01*
X113238095Y-132374000D01*
X113333333Y-132469238D01*
X113380952Y-132564476D01*
X113428571Y-132754952D01*
X113428571Y-132897809D01*
X113380952Y-133088285D01*
X113333333Y-133183523D01*
X113238095Y-133278761D01*
X113095238Y-133326380D01*
X112857142Y-133326380D01*
%TO.C,SW22*%
X88190476Y-117530761D02*
X88333333Y-117578380D01*
X88571428Y-117578380D01*
X88666666Y-117530761D01*
X88714285Y-117483142D01*
X88761904Y-117387904D01*
X88761904Y-117292666D01*
X88714285Y-117197428D01*
X88666666Y-117149809D01*
X88571428Y-117102190D01*
X88380952Y-117054571D01*
X88285714Y-117006952D01*
X88238095Y-116959333D01*
X88190476Y-116864095D01*
X88190476Y-116768857D01*
X88238095Y-116673619D01*
X88285714Y-116626000D01*
X88380952Y-116578380D01*
X88619047Y-116578380D01*
X88761904Y-116626000D01*
X89095238Y-116578380D02*
X89333333Y-117578380D01*
X89523809Y-116864095D01*
X89714285Y-117578380D01*
X89952380Y-116578380D01*
X90285714Y-116673619D02*
X90333333Y-116626000D01*
X90428571Y-116578380D01*
X90666666Y-116578380D01*
X90761904Y-116626000D01*
X90809523Y-116673619D01*
X90857142Y-116768857D01*
X90857142Y-116864095D01*
X90809523Y-117006952D01*
X90238095Y-117578380D01*
X90857142Y-117578380D01*
X91238095Y-116673619D02*
X91285714Y-116626000D01*
X91380952Y-116578380D01*
X91619047Y-116578380D01*
X91714285Y-116626000D01*
X91761904Y-116673619D01*
X91809523Y-116768857D01*
X91809523Y-116864095D01*
X91761904Y-117006952D01*
X91190476Y-117578380D01*
X91809523Y-117578380D01*
X88000000Y-133326380D02*
X88000000Y-132326380D01*
X88571428Y-133326380D02*
X88142857Y-132754952D01*
X88571428Y-132326380D02*
X88000000Y-132897809D01*
X89000000Y-132802571D02*
X89333333Y-132802571D01*
X89476190Y-133326380D02*
X89000000Y-133326380D01*
X89000000Y-132326380D01*
X89476190Y-132326380D01*
X90095238Y-132850190D02*
X90095238Y-133326380D01*
X89761904Y-132326380D02*
X90095238Y-132850190D01*
X90428571Y-132326380D01*
X90523809Y-133421619D02*
X91285714Y-133421619D01*
X91428571Y-132326380D02*
X92047619Y-132326380D01*
X91714285Y-132707333D01*
X91857142Y-132707333D01*
X91952380Y-132754952D01*
X92000000Y-132802571D01*
X92047619Y-132897809D01*
X92047619Y-133135904D01*
X92000000Y-133231142D01*
X91952380Y-133278761D01*
X91857142Y-133326380D01*
X91571428Y-133326380D01*
X91476190Y-133278761D01*
X91428571Y-133231142D01*
%TO.C,SW21*%
X68190476Y-117530761D02*
X68333333Y-117578380D01*
X68571428Y-117578380D01*
X68666666Y-117530761D01*
X68714285Y-117483142D01*
X68761904Y-117387904D01*
X68761904Y-117292666D01*
X68714285Y-117197428D01*
X68666666Y-117149809D01*
X68571428Y-117102190D01*
X68380952Y-117054571D01*
X68285714Y-117006952D01*
X68238095Y-116959333D01*
X68190476Y-116864095D01*
X68190476Y-116768857D01*
X68238095Y-116673619D01*
X68285714Y-116626000D01*
X68380952Y-116578380D01*
X68619047Y-116578380D01*
X68761904Y-116626000D01*
X69095238Y-116578380D02*
X69333333Y-117578380D01*
X69523809Y-116864095D01*
X69714285Y-117578380D01*
X69952380Y-116578380D01*
X70285714Y-116673619D02*
X70333333Y-116626000D01*
X70428571Y-116578380D01*
X70666666Y-116578380D01*
X70761904Y-116626000D01*
X70809523Y-116673619D01*
X70857142Y-116768857D01*
X70857142Y-116864095D01*
X70809523Y-117006952D01*
X70238095Y-117578380D01*
X70857142Y-117578380D01*
X71809523Y-117578380D02*
X71238095Y-117578380D01*
X71523809Y-117578380D02*
X71523809Y-116578380D01*
X71428571Y-116721238D01*
X71333333Y-116816476D01*
X71238095Y-116864095D01*
X68000000Y-133326380D02*
X68000000Y-132326380D01*
X68571428Y-133326380D02*
X68142857Y-132754952D01*
X68571428Y-132326380D02*
X68000000Y-132897809D01*
X69000000Y-132802571D02*
X69333333Y-132802571D01*
X69476190Y-133326380D02*
X69000000Y-133326380D01*
X69000000Y-132326380D01*
X69476190Y-132326380D01*
X70095238Y-132850190D02*
X70095238Y-133326380D01*
X69761904Y-132326380D02*
X70095238Y-132850190D01*
X70428571Y-132326380D01*
X70523809Y-133421619D02*
X71285714Y-133421619D01*
X71476190Y-132421619D02*
X71523809Y-132374000D01*
X71619047Y-132326380D01*
X71857142Y-132326380D01*
X71952380Y-132374000D01*
X72000000Y-132421619D01*
X72047619Y-132516857D01*
X72047619Y-132612095D01*
X72000000Y-132754952D01*
X71428571Y-133326380D01*
X72047619Y-133326380D01*
%TO.C,SW20*%
X48190476Y-117530761D02*
X48333333Y-117578380D01*
X48571428Y-117578380D01*
X48666666Y-117530761D01*
X48714285Y-117483142D01*
X48761904Y-117387904D01*
X48761904Y-117292666D01*
X48714285Y-117197428D01*
X48666666Y-117149809D01*
X48571428Y-117102190D01*
X48380952Y-117054571D01*
X48285714Y-117006952D01*
X48238095Y-116959333D01*
X48190476Y-116864095D01*
X48190476Y-116768857D01*
X48238095Y-116673619D01*
X48285714Y-116626000D01*
X48380952Y-116578380D01*
X48619047Y-116578380D01*
X48761904Y-116626000D01*
X49095238Y-116578380D02*
X49333333Y-117578380D01*
X49523809Y-116864095D01*
X49714285Y-117578380D01*
X49952380Y-116578380D01*
X50285714Y-116673619D02*
X50333333Y-116626000D01*
X50428571Y-116578380D01*
X50666666Y-116578380D01*
X50761904Y-116626000D01*
X50809523Y-116673619D01*
X50857142Y-116768857D01*
X50857142Y-116864095D01*
X50809523Y-117006952D01*
X50238095Y-117578380D01*
X50857142Y-117578380D01*
X51476190Y-116578380D02*
X51571428Y-116578380D01*
X51666666Y-116626000D01*
X51714285Y-116673619D01*
X51761904Y-116768857D01*
X51809523Y-116959333D01*
X51809523Y-117197428D01*
X51761904Y-117387904D01*
X51714285Y-117483142D01*
X51666666Y-117530761D01*
X51571428Y-117578380D01*
X51476190Y-117578380D01*
X51380952Y-117530761D01*
X51333333Y-117483142D01*
X51285714Y-117387904D01*
X51238095Y-117197428D01*
X51238095Y-116959333D01*
X51285714Y-116768857D01*
X51333333Y-116673619D01*
X51380952Y-116626000D01*
X51476190Y-116578380D01*
X48000000Y-133326380D02*
X48000000Y-132326380D01*
X48571428Y-133326380D02*
X48142857Y-132754952D01*
X48571428Y-132326380D02*
X48000000Y-132897809D01*
X49000000Y-132802571D02*
X49333333Y-132802571D01*
X49476190Y-133326380D02*
X49000000Y-133326380D01*
X49000000Y-132326380D01*
X49476190Y-132326380D01*
X50095238Y-132850190D02*
X50095238Y-133326380D01*
X49761904Y-132326380D02*
X50095238Y-132850190D01*
X50428571Y-132326380D01*
X50523809Y-133421619D02*
X51285714Y-133421619D01*
X52047619Y-133326380D02*
X51476190Y-133326380D01*
X51761904Y-133326380D02*
X51761904Y-132326380D01*
X51666666Y-132469238D01*
X51571428Y-132564476D01*
X51476190Y-132612095D01*
%TO.C,SW19*%
X28190476Y-117530761D02*
X28333333Y-117578380D01*
X28571428Y-117578380D01*
X28666666Y-117530761D01*
X28714285Y-117483142D01*
X28761904Y-117387904D01*
X28761904Y-117292666D01*
X28714285Y-117197428D01*
X28666666Y-117149809D01*
X28571428Y-117102190D01*
X28380952Y-117054571D01*
X28285714Y-117006952D01*
X28238095Y-116959333D01*
X28190476Y-116864095D01*
X28190476Y-116768857D01*
X28238095Y-116673619D01*
X28285714Y-116626000D01*
X28380952Y-116578380D01*
X28619047Y-116578380D01*
X28761904Y-116626000D01*
X29095238Y-116578380D02*
X29333333Y-117578380D01*
X29523809Y-116864095D01*
X29714285Y-117578380D01*
X29952380Y-116578380D01*
X30857142Y-117578380D02*
X30285714Y-117578380D01*
X30571428Y-117578380D02*
X30571428Y-116578380D01*
X30476190Y-116721238D01*
X30380952Y-116816476D01*
X30285714Y-116864095D01*
X31333333Y-117578380D02*
X31523809Y-117578380D01*
X31619047Y-117530761D01*
X31666666Y-117483142D01*
X31761904Y-117340285D01*
X31809523Y-117149809D01*
X31809523Y-116768857D01*
X31761904Y-116673619D01*
X31714285Y-116626000D01*
X31619047Y-116578380D01*
X31428571Y-116578380D01*
X31333333Y-116626000D01*
X31285714Y-116673619D01*
X31238095Y-116768857D01*
X31238095Y-117006952D01*
X31285714Y-117102190D01*
X31333333Y-117149809D01*
X31428571Y-117197428D01*
X31619047Y-117197428D01*
X31714285Y-117149809D01*
X31761904Y-117102190D01*
X31809523Y-117006952D01*
X28000000Y-133326380D02*
X28000000Y-132326380D01*
X28571428Y-133326380D02*
X28142857Y-132754952D01*
X28571428Y-132326380D02*
X28000000Y-132897809D01*
X29000000Y-132802571D02*
X29333333Y-132802571D01*
X29476190Y-133326380D02*
X29000000Y-133326380D01*
X29000000Y-132326380D01*
X29476190Y-132326380D01*
X30095238Y-132850190D02*
X30095238Y-133326380D01*
X29761904Y-132326380D02*
X30095238Y-132850190D01*
X30428571Y-132326380D01*
X30523809Y-133421619D02*
X31285714Y-133421619D01*
X31714285Y-132326380D02*
X31809523Y-132326380D01*
X31904761Y-132374000D01*
X31952380Y-132421619D01*
X32000000Y-132516857D01*
X32047619Y-132707333D01*
X32047619Y-132945428D01*
X32000000Y-133135904D01*
X31952380Y-133231142D01*
X31904761Y-133278761D01*
X31809523Y-133326380D01*
X31714285Y-133326380D01*
X31619047Y-133278761D01*
X31571428Y-133231142D01*
X31523809Y-133135904D01*
X31476190Y-132945428D01*
X31476190Y-132707333D01*
X31523809Y-132516857D01*
X31571428Y-132421619D01*
X31619047Y-132374000D01*
X31714285Y-132326380D01*
%TO.C,SW18*%
X128190476Y-97530761D02*
X128333333Y-97578380D01*
X128571428Y-97578380D01*
X128666666Y-97530761D01*
X128714285Y-97483142D01*
X128761904Y-97387904D01*
X128761904Y-97292666D01*
X128714285Y-97197428D01*
X128666666Y-97149809D01*
X128571428Y-97102190D01*
X128380952Y-97054571D01*
X128285714Y-97006952D01*
X128238095Y-96959333D01*
X128190476Y-96864095D01*
X128190476Y-96768857D01*
X128238095Y-96673619D01*
X128285714Y-96626000D01*
X128380952Y-96578380D01*
X128619047Y-96578380D01*
X128761904Y-96626000D01*
X129095238Y-96578380D02*
X129333333Y-97578380D01*
X129523809Y-96864095D01*
X129714285Y-97578380D01*
X129952380Y-96578380D01*
X130857142Y-97578380D02*
X130285714Y-97578380D01*
X130571428Y-97578380D02*
X130571428Y-96578380D01*
X130476190Y-96721238D01*
X130380952Y-96816476D01*
X130285714Y-96864095D01*
X131428571Y-97006952D02*
X131333333Y-96959333D01*
X131285714Y-96911714D01*
X131238095Y-96816476D01*
X131238095Y-96768857D01*
X131285714Y-96673619D01*
X131333333Y-96626000D01*
X131428571Y-96578380D01*
X131619047Y-96578380D01*
X131714285Y-96626000D01*
X131761904Y-96673619D01*
X131809523Y-96768857D01*
X131809523Y-96816476D01*
X131761904Y-96911714D01*
X131714285Y-96959333D01*
X131619047Y-97006952D01*
X131428571Y-97006952D01*
X131333333Y-97054571D01*
X131285714Y-97102190D01*
X131238095Y-97197428D01*
X131238095Y-97387904D01*
X131285714Y-97483142D01*
X131333333Y-97530761D01*
X131428571Y-97578380D01*
X131619047Y-97578380D01*
X131714285Y-97530761D01*
X131761904Y-97483142D01*
X131809523Y-97387904D01*
X131809523Y-97197428D01*
X131761904Y-97102190D01*
X131714285Y-97054571D01*
X131619047Y-97006952D01*
X126666666Y-113326380D02*
X126666666Y-112326380D01*
X127238095Y-113326380D02*
X126809523Y-112754952D01*
X127238095Y-112326380D02*
X126666666Y-112897809D01*
X127666666Y-112802571D02*
X128000000Y-112802571D01*
X128142857Y-113326380D02*
X127666666Y-113326380D01*
X127666666Y-112326380D01*
X128142857Y-112326380D01*
X128761904Y-112850190D02*
X128761904Y-113326380D01*
X128428571Y-112326380D02*
X128761904Y-112850190D01*
X129095238Y-112326380D01*
X129190476Y-113421619D02*
X129952380Y-113421619D01*
X130142857Y-113278761D02*
X130285714Y-113326380D01*
X130523809Y-113326380D01*
X130619047Y-113278761D01*
X130666666Y-113231142D01*
X130714285Y-113135904D01*
X130714285Y-113040666D01*
X130666666Y-112945428D01*
X130619047Y-112897809D01*
X130523809Y-112850190D01*
X130333333Y-112802571D01*
X130238095Y-112754952D01*
X130190476Y-112707333D01*
X130142857Y-112612095D01*
X130142857Y-112516857D01*
X130190476Y-112421619D01*
X130238095Y-112374000D01*
X130333333Y-112326380D01*
X130571428Y-112326380D01*
X130714285Y-112374000D01*
X131000000Y-112326380D02*
X131571428Y-112326380D01*
X131285714Y-113326380D02*
X131285714Y-112326380D01*
X131904761Y-112802571D02*
X132238095Y-112802571D01*
X132380952Y-113326380D02*
X131904761Y-113326380D01*
X131904761Y-112326380D01*
X132380952Y-112326380D01*
X132809523Y-113326380D02*
X132809523Y-112326380D01*
X133190476Y-112326380D01*
X133285714Y-112374000D01*
X133333333Y-112421619D01*
X133380952Y-112516857D01*
X133380952Y-112659714D01*
X133333333Y-112754952D01*
X133285714Y-112802571D01*
X133190476Y-112850190D01*
X132809523Y-112850190D01*
%TO.C,SW17*%
X108190476Y-97530761D02*
X108333333Y-97578380D01*
X108571428Y-97578380D01*
X108666666Y-97530761D01*
X108714285Y-97483142D01*
X108761904Y-97387904D01*
X108761904Y-97292666D01*
X108714285Y-97197428D01*
X108666666Y-97149809D01*
X108571428Y-97102190D01*
X108380952Y-97054571D01*
X108285714Y-97006952D01*
X108238095Y-96959333D01*
X108190476Y-96864095D01*
X108190476Y-96768857D01*
X108238095Y-96673619D01*
X108285714Y-96626000D01*
X108380952Y-96578380D01*
X108619047Y-96578380D01*
X108761904Y-96626000D01*
X109095238Y-96578380D02*
X109333333Y-97578380D01*
X109523809Y-96864095D01*
X109714285Y-97578380D01*
X109952380Y-96578380D01*
X110857142Y-97578380D02*
X110285714Y-97578380D01*
X110571428Y-97578380D02*
X110571428Y-96578380D01*
X110476190Y-96721238D01*
X110380952Y-96816476D01*
X110285714Y-96864095D01*
X111190476Y-96578380D02*
X111857142Y-96578380D01*
X111428571Y-97578380D01*
X106595238Y-113326380D02*
X106595238Y-112326380D01*
X107166666Y-113326380D02*
X106738095Y-112754952D01*
X107166666Y-112326380D02*
X106595238Y-112897809D01*
X107595238Y-112802571D02*
X107928571Y-112802571D01*
X108071428Y-113326380D02*
X107595238Y-113326380D01*
X107595238Y-112326380D01*
X108071428Y-112326380D01*
X108690476Y-112850190D02*
X108690476Y-113326380D01*
X108357142Y-112326380D02*
X108690476Y-112850190D01*
X109023809Y-112326380D01*
X109119047Y-113421619D02*
X109880952Y-113421619D01*
X110071428Y-113278761D02*
X110214285Y-113326380D01*
X110452380Y-113326380D01*
X110547619Y-113278761D01*
X110595238Y-113231142D01*
X110642857Y-113135904D01*
X110642857Y-113040666D01*
X110595238Y-112945428D01*
X110547619Y-112897809D01*
X110452380Y-112850190D01*
X110261904Y-112802571D01*
X110166666Y-112754952D01*
X110119047Y-112707333D01*
X110071428Y-112612095D01*
X110071428Y-112516857D01*
X110119047Y-112421619D01*
X110166666Y-112374000D01*
X110261904Y-112326380D01*
X110500000Y-112326380D01*
X110642857Y-112374000D01*
X110928571Y-112326380D02*
X111500000Y-112326380D01*
X111214285Y-113326380D02*
X111214285Y-112326380D01*
X112023809Y-112326380D02*
X112214285Y-112326380D01*
X112309523Y-112374000D01*
X112404761Y-112469238D01*
X112452380Y-112659714D01*
X112452380Y-112993047D01*
X112404761Y-113183523D01*
X112309523Y-113278761D01*
X112214285Y-113326380D01*
X112023809Y-113326380D01*
X111928571Y-113278761D01*
X111833333Y-113183523D01*
X111785714Y-112993047D01*
X111785714Y-112659714D01*
X111833333Y-112469238D01*
X111928571Y-112374000D01*
X112023809Y-112326380D01*
X113452380Y-113326380D02*
X113119047Y-112850190D01*
X112880952Y-113326380D02*
X112880952Y-112326380D01*
X113261904Y-112326380D01*
X113357142Y-112374000D01*
X113404761Y-112421619D01*
X113452380Y-112516857D01*
X113452380Y-112659714D01*
X113404761Y-112754952D01*
X113357142Y-112802571D01*
X113261904Y-112850190D01*
X112880952Y-112850190D01*
%TO.C,SW16*%
X88190476Y-97530761D02*
X88333333Y-97578380D01*
X88571428Y-97578380D01*
X88666666Y-97530761D01*
X88714285Y-97483142D01*
X88761904Y-97387904D01*
X88761904Y-97292666D01*
X88714285Y-97197428D01*
X88666666Y-97149809D01*
X88571428Y-97102190D01*
X88380952Y-97054571D01*
X88285714Y-97006952D01*
X88238095Y-96959333D01*
X88190476Y-96864095D01*
X88190476Y-96768857D01*
X88238095Y-96673619D01*
X88285714Y-96626000D01*
X88380952Y-96578380D01*
X88619047Y-96578380D01*
X88761904Y-96626000D01*
X89095238Y-96578380D02*
X89333333Y-97578380D01*
X89523809Y-96864095D01*
X89714285Y-97578380D01*
X89952380Y-96578380D01*
X90857142Y-97578380D02*
X90285714Y-97578380D01*
X90571428Y-97578380D02*
X90571428Y-96578380D01*
X90476190Y-96721238D01*
X90380952Y-96816476D01*
X90285714Y-96864095D01*
X91714285Y-96578380D02*
X91523809Y-96578380D01*
X91428571Y-96626000D01*
X91380952Y-96673619D01*
X91285714Y-96816476D01*
X91238095Y-97006952D01*
X91238095Y-97387904D01*
X91285714Y-97483142D01*
X91333333Y-97530761D01*
X91428571Y-97578380D01*
X91619047Y-97578380D01*
X91714285Y-97530761D01*
X91761904Y-97483142D01*
X91809523Y-97387904D01*
X91809523Y-97149809D01*
X91761904Y-97054571D01*
X91714285Y-97006952D01*
X91619047Y-96959333D01*
X91428571Y-96959333D01*
X91333333Y-97006952D01*
X91285714Y-97054571D01*
X91238095Y-97149809D01*
X88000000Y-113326380D02*
X88000000Y-112326380D01*
X88571428Y-113326380D02*
X88142857Y-112754952D01*
X88571428Y-112326380D02*
X88000000Y-112897809D01*
X89000000Y-112802571D02*
X89333333Y-112802571D01*
X89476190Y-113326380D02*
X89000000Y-113326380D01*
X89000000Y-112326380D01*
X89476190Y-112326380D01*
X90095238Y-112850190D02*
X90095238Y-113326380D01*
X89761904Y-112326380D02*
X90095238Y-112850190D01*
X90428571Y-112326380D01*
X90523809Y-113421619D02*
X91285714Y-113421619D01*
X91428571Y-112326380D02*
X92095238Y-112326380D01*
X91666666Y-113326380D01*
%TO.C,SW15*%
X68190476Y-97530761D02*
X68333333Y-97578380D01*
X68571428Y-97578380D01*
X68666666Y-97530761D01*
X68714285Y-97483142D01*
X68761904Y-97387904D01*
X68761904Y-97292666D01*
X68714285Y-97197428D01*
X68666666Y-97149809D01*
X68571428Y-97102190D01*
X68380952Y-97054571D01*
X68285714Y-97006952D01*
X68238095Y-96959333D01*
X68190476Y-96864095D01*
X68190476Y-96768857D01*
X68238095Y-96673619D01*
X68285714Y-96626000D01*
X68380952Y-96578380D01*
X68619047Y-96578380D01*
X68761904Y-96626000D01*
X69095238Y-96578380D02*
X69333333Y-97578380D01*
X69523809Y-96864095D01*
X69714285Y-97578380D01*
X69952380Y-96578380D01*
X70857142Y-97578380D02*
X70285714Y-97578380D01*
X70571428Y-97578380D02*
X70571428Y-96578380D01*
X70476190Y-96721238D01*
X70380952Y-96816476D01*
X70285714Y-96864095D01*
X71761904Y-96578380D02*
X71285714Y-96578380D01*
X71238095Y-97054571D01*
X71285714Y-97006952D01*
X71380952Y-96959333D01*
X71619047Y-96959333D01*
X71714285Y-97006952D01*
X71761904Y-97054571D01*
X71809523Y-97149809D01*
X71809523Y-97387904D01*
X71761904Y-97483142D01*
X71714285Y-97530761D01*
X71619047Y-97578380D01*
X71380952Y-97578380D01*
X71285714Y-97530761D01*
X71238095Y-97483142D01*
X68000000Y-113326380D02*
X68000000Y-112326380D01*
X68571428Y-113326380D02*
X68142857Y-112754952D01*
X68571428Y-112326380D02*
X68000000Y-112897809D01*
X69000000Y-112802571D02*
X69333333Y-112802571D01*
X69476190Y-113326380D02*
X69000000Y-113326380D01*
X69000000Y-112326380D01*
X69476190Y-112326380D01*
X70095238Y-112850190D02*
X70095238Y-113326380D01*
X69761904Y-112326380D02*
X70095238Y-112850190D01*
X70428571Y-112326380D01*
X70523809Y-113421619D02*
X71285714Y-113421619D01*
X71952380Y-112326380D02*
X71761904Y-112326380D01*
X71666666Y-112374000D01*
X71619047Y-112421619D01*
X71523809Y-112564476D01*
X71476190Y-112754952D01*
X71476190Y-113135904D01*
X71523809Y-113231142D01*
X71571428Y-113278761D01*
X71666666Y-113326380D01*
X71857142Y-113326380D01*
X71952380Y-113278761D01*
X72000000Y-113231142D01*
X72047619Y-113135904D01*
X72047619Y-112897809D01*
X72000000Y-112802571D01*
X71952380Y-112754952D01*
X71857142Y-112707333D01*
X71666666Y-112707333D01*
X71571428Y-112754952D01*
X71523809Y-112802571D01*
X71476190Y-112897809D01*
%TO.C,SW14*%
X48190476Y-97530761D02*
X48333333Y-97578380D01*
X48571428Y-97578380D01*
X48666666Y-97530761D01*
X48714285Y-97483142D01*
X48761904Y-97387904D01*
X48761904Y-97292666D01*
X48714285Y-97197428D01*
X48666666Y-97149809D01*
X48571428Y-97102190D01*
X48380952Y-97054571D01*
X48285714Y-97006952D01*
X48238095Y-96959333D01*
X48190476Y-96864095D01*
X48190476Y-96768857D01*
X48238095Y-96673619D01*
X48285714Y-96626000D01*
X48380952Y-96578380D01*
X48619047Y-96578380D01*
X48761904Y-96626000D01*
X49095238Y-96578380D02*
X49333333Y-97578380D01*
X49523809Y-96864095D01*
X49714285Y-97578380D01*
X49952380Y-96578380D01*
X50857142Y-97578380D02*
X50285714Y-97578380D01*
X50571428Y-97578380D02*
X50571428Y-96578380D01*
X50476190Y-96721238D01*
X50380952Y-96816476D01*
X50285714Y-96864095D01*
X51714285Y-96911714D02*
X51714285Y-97578380D01*
X51476190Y-96530761D02*
X51238095Y-97245047D01*
X51857142Y-97245047D01*
X48000000Y-113326380D02*
X48000000Y-112326380D01*
X48571428Y-113326380D02*
X48142857Y-112754952D01*
X48571428Y-112326380D02*
X48000000Y-112897809D01*
X49000000Y-112802571D02*
X49333333Y-112802571D01*
X49476190Y-113326380D02*
X49000000Y-113326380D01*
X49000000Y-112326380D01*
X49476190Y-112326380D01*
X50095238Y-112850190D02*
X50095238Y-113326380D01*
X49761904Y-112326380D02*
X50095238Y-112850190D01*
X50428571Y-112326380D01*
X50523809Y-113421619D02*
X51285714Y-113421619D01*
X52000000Y-112326380D02*
X51523809Y-112326380D01*
X51476190Y-112802571D01*
X51523809Y-112754952D01*
X51619047Y-112707333D01*
X51857142Y-112707333D01*
X51952380Y-112754952D01*
X52000000Y-112802571D01*
X52047619Y-112897809D01*
X52047619Y-113135904D01*
X52000000Y-113231142D01*
X51952380Y-113278761D01*
X51857142Y-113326380D01*
X51619047Y-113326380D01*
X51523809Y-113278761D01*
X51476190Y-113231142D01*
%TO.C,SW13*%
X28190476Y-97530761D02*
X28333333Y-97578380D01*
X28571428Y-97578380D01*
X28666666Y-97530761D01*
X28714285Y-97483142D01*
X28761904Y-97387904D01*
X28761904Y-97292666D01*
X28714285Y-97197428D01*
X28666666Y-97149809D01*
X28571428Y-97102190D01*
X28380952Y-97054571D01*
X28285714Y-97006952D01*
X28238095Y-96959333D01*
X28190476Y-96864095D01*
X28190476Y-96768857D01*
X28238095Y-96673619D01*
X28285714Y-96626000D01*
X28380952Y-96578380D01*
X28619047Y-96578380D01*
X28761904Y-96626000D01*
X29095238Y-96578380D02*
X29333333Y-97578380D01*
X29523809Y-96864095D01*
X29714285Y-97578380D01*
X29952380Y-96578380D01*
X30857142Y-97578380D02*
X30285714Y-97578380D01*
X30571428Y-97578380D02*
X30571428Y-96578380D01*
X30476190Y-96721238D01*
X30380952Y-96816476D01*
X30285714Y-96864095D01*
X31190476Y-96578380D02*
X31809523Y-96578380D01*
X31476190Y-96959333D01*
X31619047Y-96959333D01*
X31714285Y-97006952D01*
X31761904Y-97054571D01*
X31809523Y-97149809D01*
X31809523Y-97387904D01*
X31761904Y-97483142D01*
X31714285Y-97530761D01*
X31619047Y-97578380D01*
X31333333Y-97578380D01*
X31238095Y-97530761D01*
X31190476Y-97483142D01*
X28000000Y-113326380D02*
X28000000Y-112326380D01*
X28571428Y-113326380D02*
X28142857Y-112754952D01*
X28571428Y-112326380D02*
X28000000Y-112897809D01*
X29000000Y-112802571D02*
X29333333Y-112802571D01*
X29476190Y-113326380D02*
X29000000Y-113326380D01*
X29000000Y-112326380D01*
X29476190Y-112326380D01*
X30095238Y-112850190D02*
X30095238Y-113326380D01*
X29761904Y-112326380D02*
X30095238Y-112850190D01*
X30428571Y-112326380D01*
X30523809Y-113421619D02*
X31285714Y-113421619D01*
X31952380Y-112659714D02*
X31952380Y-113326380D01*
X31714285Y-112278761D02*
X31476190Y-112993047D01*
X32095238Y-112993047D01*
%TO.C,SW11*%
X108190476Y-77530761D02*
X108333333Y-77578380D01*
X108571428Y-77578380D01*
X108666666Y-77530761D01*
X108714285Y-77483142D01*
X108761904Y-77387904D01*
X108761904Y-77292666D01*
X108714285Y-77197428D01*
X108666666Y-77149809D01*
X108571428Y-77102190D01*
X108380952Y-77054571D01*
X108285714Y-77006952D01*
X108238095Y-76959333D01*
X108190476Y-76864095D01*
X108190476Y-76768857D01*
X108238095Y-76673619D01*
X108285714Y-76626000D01*
X108380952Y-76578380D01*
X108619047Y-76578380D01*
X108761904Y-76626000D01*
X109095238Y-76578380D02*
X109333333Y-77578380D01*
X109523809Y-76864095D01*
X109714285Y-77578380D01*
X109952380Y-76578380D01*
X110857142Y-77578380D02*
X110285714Y-77578380D01*
X110571428Y-77578380D02*
X110571428Y-76578380D01*
X110476190Y-76721238D01*
X110380952Y-76816476D01*
X110285714Y-76864095D01*
X111809523Y-77578380D02*
X111238095Y-77578380D01*
X111523809Y-77578380D02*
X111523809Y-76578380D01*
X111428571Y-76721238D01*
X111333333Y-76816476D01*
X111238095Y-76864095D01*
X106547619Y-93326380D02*
X106547619Y-92326380D01*
X107119047Y-93326380D02*
X106690476Y-92754952D01*
X107119047Y-92326380D02*
X106547619Y-92897809D01*
X107547619Y-92802571D02*
X107880952Y-92802571D01*
X108023809Y-93326380D02*
X107547619Y-93326380D01*
X107547619Y-92326380D01*
X108023809Y-92326380D01*
X108642857Y-92850190D02*
X108642857Y-93326380D01*
X108309523Y-92326380D02*
X108642857Y-92850190D01*
X108976190Y-92326380D01*
X109071428Y-93421619D02*
X109833333Y-93421619D01*
X110023809Y-93040666D02*
X110500000Y-93040666D01*
X109928571Y-93326380D02*
X110261904Y-92326380D01*
X110595238Y-93326380D01*
X110928571Y-93326380D02*
X110928571Y-92326380D01*
X111166666Y-92326380D01*
X111309523Y-92374000D01*
X111404761Y-92469238D01*
X111452380Y-92564476D01*
X111500000Y-92754952D01*
X111500000Y-92897809D01*
X111452380Y-93088285D01*
X111404761Y-93183523D01*
X111309523Y-93278761D01*
X111166666Y-93326380D01*
X110928571Y-93326380D01*
X111928571Y-93326380D02*
X111928571Y-92326380D01*
X112166666Y-92326380D01*
X112309523Y-92374000D01*
X112404761Y-92469238D01*
X112452380Y-92564476D01*
X112500000Y-92754952D01*
X112500000Y-92897809D01*
X112452380Y-93088285D01*
X112404761Y-93183523D01*
X112309523Y-93278761D01*
X112166666Y-93326380D01*
X111928571Y-93326380D01*
X113500000Y-93326380D02*
X113166666Y-92850190D01*
X112928571Y-93326380D02*
X112928571Y-92326380D01*
X113309523Y-92326380D01*
X113404761Y-92374000D01*
X113452380Y-92421619D01*
X113500000Y-92516857D01*
X113500000Y-92659714D01*
X113452380Y-92754952D01*
X113404761Y-92802571D01*
X113309523Y-92850190D01*
X112928571Y-92850190D01*
%TO.C,SW10*%
X88190476Y-77530761D02*
X88333333Y-77578380D01*
X88571428Y-77578380D01*
X88666666Y-77530761D01*
X88714285Y-77483142D01*
X88761904Y-77387904D01*
X88761904Y-77292666D01*
X88714285Y-77197428D01*
X88666666Y-77149809D01*
X88571428Y-77102190D01*
X88380952Y-77054571D01*
X88285714Y-77006952D01*
X88238095Y-76959333D01*
X88190476Y-76864095D01*
X88190476Y-76768857D01*
X88238095Y-76673619D01*
X88285714Y-76626000D01*
X88380952Y-76578380D01*
X88619047Y-76578380D01*
X88761904Y-76626000D01*
X89095238Y-76578380D02*
X89333333Y-77578380D01*
X89523809Y-76864095D01*
X89714285Y-77578380D01*
X89952380Y-76578380D01*
X90857142Y-77578380D02*
X90285714Y-77578380D01*
X90571428Y-77578380D02*
X90571428Y-76578380D01*
X90476190Y-76721238D01*
X90380952Y-76816476D01*
X90285714Y-76864095D01*
X91476190Y-76578380D02*
X91571428Y-76578380D01*
X91666666Y-76626000D01*
X91714285Y-76673619D01*
X91761904Y-76768857D01*
X91809523Y-76959333D01*
X91809523Y-77197428D01*
X91761904Y-77387904D01*
X91714285Y-77483142D01*
X91666666Y-77530761D01*
X91571428Y-77578380D01*
X91476190Y-77578380D01*
X91380952Y-77530761D01*
X91333333Y-77483142D01*
X91285714Y-77387904D01*
X91238095Y-77197428D01*
X91238095Y-76959333D01*
X91285714Y-76768857D01*
X91333333Y-76673619D01*
X91380952Y-76626000D01*
X91476190Y-76578380D01*
X87976190Y-93326380D02*
X87976190Y-92326380D01*
X88547619Y-93326380D02*
X88119047Y-92754952D01*
X88547619Y-92326380D02*
X87976190Y-92897809D01*
X88976190Y-92802571D02*
X89309523Y-92802571D01*
X89452380Y-93326380D02*
X88976190Y-93326380D01*
X88976190Y-92326380D01*
X89452380Y-92326380D01*
X90071428Y-92850190D02*
X90071428Y-93326380D01*
X89738095Y-92326380D02*
X90071428Y-92850190D01*
X90404761Y-92326380D01*
X90500000Y-93421619D02*
X91261904Y-93421619D01*
X91833333Y-92802571D02*
X91976190Y-92850190D01*
X92023809Y-92897809D01*
X92071428Y-92993047D01*
X92071428Y-93135904D01*
X92023809Y-93231142D01*
X91976190Y-93278761D01*
X91880952Y-93326380D01*
X91500000Y-93326380D01*
X91500000Y-92326380D01*
X91833333Y-92326380D01*
X91928571Y-92374000D01*
X91976190Y-92421619D01*
X92023809Y-92516857D01*
X92023809Y-92612095D01*
X91976190Y-92707333D01*
X91928571Y-92754952D01*
X91833333Y-92802571D01*
X91500000Y-92802571D01*
%TO.C,SW9*%
X68666666Y-77530761D02*
X68809523Y-77578380D01*
X69047619Y-77578380D01*
X69142857Y-77530761D01*
X69190476Y-77483142D01*
X69238095Y-77387904D01*
X69238095Y-77292666D01*
X69190476Y-77197428D01*
X69142857Y-77149809D01*
X69047619Y-77102190D01*
X68857142Y-77054571D01*
X68761904Y-77006952D01*
X68714285Y-76959333D01*
X68666666Y-76864095D01*
X68666666Y-76768857D01*
X68714285Y-76673619D01*
X68761904Y-76626000D01*
X68857142Y-76578380D01*
X69095238Y-76578380D01*
X69238095Y-76626000D01*
X69571428Y-76578380D02*
X69809523Y-77578380D01*
X70000000Y-76864095D01*
X70190476Y-77578380D01*
X70428571Y-76578380D01*
X70857142Y-77578380D02*
X71047619Y-77578380D01*
X71142857Y-77530761D01*
X71190476Y-77483142D01*
X71285714Y-77340285D01*
X71333333Y-77149809D01*
X71333333Y-76768857D01*
X71285714Y-76673619D01*
X71238095Y-76626000D01*
X71142857Y-76578380D01*
X70952380Y-76578380D01*
X70857142Y-76626000D01*
X70809523Y-76673619D01*
X70761904Y-76768857D01*
X70761904Y-77006952D01*
X70809523Y-77102190D01*
X70857142Y-77149809D01*
X70952380Y-77197428D01*
X71142857Y-77197428D01*
X71238095Y-77149809D01*
X71285714Y-77102190D01*
X71333333Y-77006952D01*
X68047619Y-93326380D02*
X68047619Y-92326380D01*
X68619047Y-93326380D02*
X68190476Y-92754952D01*
X68619047Y-92326380D02*
X68047619Y-92897809D01*
X69047619Y-92802571D02*
X69380952Y-92802571D01*
X69523809Y-93326380D02*
X69047619Y-93326380D01*
X69047619Y-92326380D01*
X69523809Y-92326380D01*
X70142857Y-92850190D02*
X70142857Y-93326380D01*
X69809523Y-92326380D02*
X70142857Y-92850190D01*
X70476190Y-92326380D01*
X70571428Y-93421619D02*
X71333333Y-93421619D01*
X71523809Y-93040666D02*
X72000000Y-93040666D01*
X71428571Y-93326380D02*
X71761904Y-92326380D01*
X72095238Y-93326380D01*
%TO.C,SW8*%
X48666666Y-77530761D02*
X48809523Y-77578380D01*
X49047619Y-77578380D01*
X49142857Y-77530761D01*
X49190476Y-77483142D01*
X49238095Y-77387904D01*
X49238095Y-77292666D01*
X49190476Y-77197428D01*
X49142857Y-77149809D01*
X49047619Y-77102190D01*
X48857142Y-77054571D01*
X48761904Y-77006952D01*
X48714285Y-76959333D01*
X48666666Y-76864095D01*
X48666666Y-76768857D01*
X48714285Y-76673619D01*
X48761904Y-76626000D01*
X48857142Y-76578380D01*
X49095238Y-76578380D01*
X49238095Y-76626000D01*
X49571428Y-76578380D02*
X49809523Y-77578380D01*
X50000000Y-76864095D01*
X50190476Y-77578380D01*
X50428571Y-76578380D01*
X50952380Y-77006952D02*
X50857142Y-76959333D01*
X50809523Y-76911714D01*
X50761904Y-76816476D01*
X50761904Y-76768857D01*
X50809523Y-76673619D01*
X50857142Y-76626000D01*
X50952380Y-76578380D01*
X51142857Y-76578380D01*
X51238095Y-76626000D01*
X51285714Y-76673619D01*
X51333333Y-76768857D01*
X51333333Y-76816476D01*
X51285714Y-76911714D01*
X51238095Y-76959333D01*
X51142857Y-77006952D01*
X50952380Y-77006952D01*
X50857142Y-77054571D01*
X50809523Y-77102190D01*
X50761904Y-77197428D01*
X50761904Y-77387904D01*
X50809523Y-77483142D01*
X50857142Y-77530761D01*
X50952380Y-77578380D01*
X51142857Y-77578380D01*
X51238095Y-77530761D01*
X51285714Y-77483142D01*
X51333333Y-77387904D01*
X51333333Y-77197428D01*
X51285714Y-77102190D01*
X51238095Y-77054571D01*
X51142857Y-77006952D01*
X48000000Y-93326380D02*
X48000000Y-92326380D01*
X48571428Y-93326380D02*
X48142857Y-92754952D01*
X48571428Y-92326380D02*
X48000000Y-92897809D01*
X49000000Y-92802571D02*
X49333333Y-92802571D01*
X49476190Y-93326380D02*
X49000000Y-93326380D01*
X49000000Y-92326380D01*
X49476190Y-92326380D01*
X50095238Y-92850190D02*
X50095238Y-93326380D01*
X49761904Y-92326380D02*
X50095238Y-92850190D01*
X50428571Y-92326380D01*
X50523809Y-93421619D02*
X51285714Y-93421619D01*
X51571428Y-93326380D02*
X51761904Y-93326380D01*
X51857142Y-93278761D01*
X51904761Y-93231142D01*
X52000000Y-93088285D01*
X52047619Y-92897809D01*
X52047619Y-92516857D01*
X52000000Y-92421619D01*
X51952380Y-92374000D01*
X51857142Y-92326380D01*
X51666666Y-92326380D01*
X51571428Y-92374000D01*
X51523809Y-92421619D01*
X51476190Y-92516857D01*
X51476190Y-92754952D01*
X51523809Y-92850190D01*
X51571428Y-92897809D01*
X51666666Y-92945428D01*
X51857142Y-92945428D01*
X51952380Y-92897809D01*
X52000000Y-92850190D01*
X52047619Y-92754952D01*
%TO.C,SW7*%
X28666666Y-77530761D02*
X28809523Y-77578380D01*
X29047619Y-77578380D01*
X29142857Y-77530761D01*
X29190476Y-77483142D01*
X29238095Y-77387904D01*
X29238095Y-77292666D01*
X29190476Y-77197428D01*
X29142857Y-77149809D01*
X29047619Y-77102190D01*
X28857142Y-77054571D01*
X28761904Y-77006952D01*
X28714285Y-76959333D01*
X28666666Y-76864095D01*
X28666666Y-76768857D01*
X28714285Y-76673619D01*
X28761904Y-76626000D01*
X28857142Y-76578380D01*
X29095238Y-76578380D01*
X29238095Y-76626000D01*
X29571428Y-76578380D02*
X29809523Y-77578380D01*
X30000000Y-76864095D01*
X30190476Y-77578380D01*
X30428571Y-76578380D01*
X30714285Y-76578380D02*
X31380952Y-76578380D01*
X30952380Y-77578380D01*
X28000000Y-93326380D02*
X28000000Y-92326380D01*
X28571428Y-93326380D02*
X28142857Y-92754952D01*
X28571428Y-92326380D02*
X28000000Y-92897809D01*
X29000000Y-92802571D02*
X29333333Y-92802571D01*
X29476190Y-93326380D02*
X29000000Y-93326380D01*
X29000000Y-92326380D01*
X29476190Y-92326380D01*
X30095238Y-92850190D02*
X30095238Y-93326380D01*
X29761904Y-92326380D02*
X30095238Y-92850190D01*
X30428571Y-92326380D01*
X30523809Y-93421619D02*
X31285714Y-93421619D01*
X31666666Y-92754952D02*
X31571428Y-92707333D01*
X31523809Y-92659714D01*
X31476190Y-92564476D01*
X31476190Y-92516857D01*
X31523809Y-92421619D01*
X31571428Y-92374000D01*
X31666666Y-92326380D01*
X31857142Y-92326380D01*
X31952380Y-92374000D01*
X32000000Y-92421619D01*
X32047619Y-92516857D01*
X32047619Y-92564476D01*
X32000000Y-92659714D01*
X31952380Y-92707333D01*
X31857142Y-92754952D01*
X31666666Y-92754952D01*
X31571428Y-92802571D01*
X31523809Y-92850190D01*
X31476190Y-92945428D01*
X31476190Y-93135904D01*
X31523809Y-93231142D01*
X31571428Y-93278761D01*
X31666666Y-93326380D01*
X31857142Y-93326380D01*
X31952380Y-93278761D01*
X32000000Y-93231142D01*
X32047619Y-93135904D01*
X32047619Y-92945428D01*
X32000000Y-92850190D01*
X31952380Y-92802571D01*
X31857142Y-92754952D01*
%TO.C,SW5*%
X108666666Y-57530761D02*
X108809523Y-57578380D01*
X109047619Y-57578380D01*
X109142857Y-57530761D01*
X109190476Y-57483142D01*
X109238095Y-57387904D01*
X109238095Y-57292666D01*
X109190476Y-57197428D01*
X109142857Y-57149809D01*
X109047619Y-57102190D01*
X108857142Y-57054571D01*
X108761904Y-57006952D01*
X108714285Y-56959333D01*
X108666666Y-56864095D01*
X108666666Y-56768857D01*
X108714285Y-56673619D01*
X108761904Y-56626000D01*
X108857142Y-56578380D01*
X109095238Y-56578380D01*
X109238095Y-56626000D01*
X109571428Y-56578380D02*
X109809523Y-57578380D01*
X110000000Y-56864095D01*
X110190476Y-57578380D01*
X110428571Y-56578380D01*
X111285714Y-56578380D02*
X110809523Y-56578380D01*
X110761904Y-57054571D01*
X110809523Y-57006952D01*
X110904761Y-56959333D01*
X111142857Y-56959333D01*
X111238095Y-57006952D01*
X111285714Y-57054571D01*
X111333333Y-57149809D01*
X111333333Y-57387904D01*
X111285714Y-57483142D01*
X111238095Y-57530761D01*
X111142857Y-57578380D01*
X110904761Y-57578380D01*
X110809523Y-57530761D01*
X110761904Y-57483142D01*
X107071428Y-73326380D02*
X107071428Y-72326380D01*
X107642857Y-73326380D02*
X107214285Y-72754952D01*
X107642857Y-72326380D02*
X107071428Y-72897809D01*
X108071428Y-72802571D02*
X108404761Y-72802571D01*
X108547619Y-73326380D02*
X108071428Y-73326380D01*
X108071428Y-72326380D01*
X108547619Y-72326380D01*
X109166666Y-72850190D02*
X109166666Y-73326380D01*
X108833333Y-72326380D02*
X109166666Y-72850190D01*
X109500000Y-72326380D01*
X109595238Y-73421619D02*
X110357142Y-73421619D01*
X111166666Y-73231142D02*
X111119047Y-73278761D01*
X110976190Y-73326380D01*
X110880952Y-73326380D01*
X110738095Y-73278761D01*
X110642857Y-73183523D01*
X110595238Y-73088285D01*
X110547619Y-72897809D01*
X110547619Y-72754952D01*
X110595238Y-72564476D01*
X110642857Y-72469238D01*
X110738095Y-72374000D01*
X110880952Y-72326380D01*
X110976190Y-72326380D01*
X111119047Y-72374000D01*
X111166666Y-72421619D01*
X112071428Y-73326380D02*
X111595238Y-73326380D01*
X111595238Y-72326380D01*
X112976190Y-73326380D02*
X112642857Y-72850190D01*
X112404761Y-73326380D02*
X112404761Y-72326380D01*
X112785714Y-72326380D01*
X112880952Y-72374000D01*
X112928571Y-72421619D01*
X112976190Y-72516857D01*
X112976190Y-72659714D01*
X112928571Y-72754952D01*
X112880952Y-72802571D01*
X112785714Y-72850190D01*
X112404761Y-72850190D01*
%TO.C,SW4*%
X88666666Y-57530761D02*
X88809523Y-57578380D01*
X89047619Y-57578380D01*
X89142857Y-57530761D01*
X89190476Y-57483142D01*
X89238095Y-57387904D01*
X89238095Y-57292666D01*
X89190476Y-57197428D01*
X89142857Y-57149809D01*
X89047619Y-57102190D01*
X88857142Y-57054571D01*
X88761904Y-57006952D01*
X88714285Y-56959333D01*
X88666666Y-56864095D01*
X88666666Y-56768857D01*
X88714285Y-56673619D01*
X88761904Y-56626000D01*
X88857142Y-56578380D01*
X89095238Y-56578380D01*
X89238095Y-56626000D01*
X89571428Y-56578380D02*
X89809523Y-57578380D01*
X90000000Y-56864095D01*
X90190476Y-57578380D01*
X90428571Y-56578380D01*
X91238095Y-56911714D02*
X91238095Y-57578380D01*
X91000000Y-56530761D02*
X90761904Y-57245047D01*
X91380952Y-57245047D01*
X88047619Y-73326380D02*
X88047619Y-72326380D01*
X88619047Y-73326380D02*
X88190476Y-72754952D01*
X88619047Y-72326380D02*
X88047619Y-72897809D01*
X89047619Y-72802571D02*
X89380952Y-72802571D01*
X89523809Y-73326380D02*
X89047619Y-73326380D01*
X89047619Y-72326380D01*
X89523809Y-72326380D01*
X90142857Y-72850190D02*
X90142857Y-73326380D01*
X89809523Y-72326380D02*
X90142857Y-72850190D01*
X90476190Y-72326380D01*
X90571428Y-73421619D02*
X91333333Y-73421619D01*
X91904761Y-72802571D02*
X91571428Y-72802571D01*
X91571428Y-73326380D02*
X91571428Y-72326380D01*
X92047619Y-72326380D01*
%TO.C,SW3*%
X68666666Y-57530761D02*
X68809523Y-57578380D01*
X69047619Y-57578380D01*
X69142857Y-57530761D01*
X69190476Y-57483142D01*
X69238095Y-57387904D01*
X69238095Y-57292666D01*
X69190476Y-57197428D01*
X69142857Y-57149809D01*
X69047619Y-57102190D01*
X68857142Y-57054571D01*
X68761904Y-57006952D01*
X68714285Y-56959333D01*
X68666666Y-56864095D01*
X68666666Y-56768857D01*
X68714285Y-56673619D01*
X68761904Y-56626000D01*
X68857142Y-56578380D01*
X69095238Y-56578380D01*
X69238095Y-56626000D01*
X69571428Y-56578380D02*
X69809523Y-57578380D01*
X70000000Y-56864095D01*
X70190476Y-57578380D01*
X70428571Y-56578380D01*
X70714285Y-56578380D02*
X71333333Y-56578380D01*
X71000000Y-56959333D01*
X71142857Y-56959333D01*
X71238095Y-57006952D01*
X71285714Y-57054571D01*
X71333333Y-57149809D01*
X71333333Y-57387904D01*
X71285714Y-57483142D01*
X71238095Y-57530761D01*
X71142857Y-57578380D01*
X70857142Y-57578380D01*
X70761904Y-57530761D01*
X70714285Y-57483142D01*
X68023809Y-73326380D02*
X68023809Y-72326380D01*
X68595238Y-73326380D02*
X68166666Y-72754952D01*
X68595238Y-72326380D02*
X68023809Y-72897809D01*
X69023809Y-72802571D02*
X69357142Y-72802571D01*
X69500000Y-73326380D02*
X69023809Y-73326380D01*
X69023809Y-72326380D01*
X69500000Y-72326380D01*
X70119047Y-72850190D02*
X70119047Y-73326380D01*
X69785714Y-72326380D02*
X70119047Y-72850190D01*
X70452380Y-72326380D01*
X70547619Y-73421619D02*
X71309523Y-73421619D01*
X71547619Y-72802571D02*
X71880952Y-72802571D01*
X72023809Y-73326380D02*
X71547619Y-73326380D01*
X71547619Y-72326380D01*
X72023809Y-72326380D01*
%TO.C,SW2*%
X48666666Y-57530761D02*
X48809523Y-57578380D01*
X49047619Y-57578380D01*
X49142857Y-57530761D01*
X49190476Y-57483142D01*
X49238095Y-57387904D01*
X49238095Y-57292666D01*
X49190476Y-57197428D01*
X49142857Y-57149809D01*
X49047619Y-57102190D01*
X48857142Y-57054571D01*
X48761904Y-57006952D01*
X48714285Y-56959333D01*
X48666666Y-56864095D01*
X48666666Y-56768857D01*
X48714285Y-56673619D01*
X48761904Y-56626000D01*
X48857142Y-56578380D01*
X49095238Y-56578380D01*
X49238095Y-56626000D01*
X49571428Y-56578380D02*
X49809523Y-57578380D01*
X50000000Y-56864095D01*
X50190476Y-57578380D01*
X50428571Y-56578380D01*
X50761904Y-56673619D02*
X50809523Y-56626000D01*
X50904761Y-56578380D01*
X51142857Y-56578380D01*
X51238095Y-56626000D01*
X51285714Y-56673619D01*
X51333333Y-56768857D01*
X51333333Y-56864095D01*
X51285714Y-57006952D01*
X50714285Y-57578380D01*
X51333333Y-57578380D01*
X47976190Y-73326380D02*
X47976190Y-72326380D01*
X48547619Y-73326380D02*
X48119047Y-72754952D01*
X48547619Y-72326380D02*
X47976190Y-72897809D01*
X48976190Y-72802571D02*
X49309523Y-72802571D01*
X49452380Y-73326380D02*
X48976190Y-73326380D01*
X48976190Y-72326380D01*
X49452380Y-72326380D01*
X50071428Y-72850190D02*
X50071428Y-73326380D01*
X49738095Y-72326380D02*
X50071428Y-72850190D01*
X50404761Y-72326380D01*
X50500000Y-73421619D02*
X51261904Y-73421619D01*
X51500000Y-73326380D02*
X51500000Y-72326380D01*
X51738095Y-72326380D01*
X51880952Y-72374000D01*
X51976190Y-72469238D01*
X52023809Y-72564476D01*
X52071428Y-72754952D01*
X52071428Y-72897809D01*
X52023809Y-73088285D01*
X51976190Y-73183523D01*
X51880952Y-73278761D01*
X51738095Y-73326380D01*
X51500000Y-73326380D01*
%TO.C,SW1*%
X28666666Y-57530761D02*
X28809523Y-57578380D01*
X29047619Y-57578380D01*
X29142857Y-57530761D01*
X29190476Y-57483142D01*
X29238095Y-57387904D01*
X29238095Y-57292666D01*
X29190476Y-57197428D01*
X29142857Y-57149809D01*
X29047619Y-57102190D01*
X28857142Y-57054571D01*
X28761904Y-57006952D01*
X28714285Y-56959333D01*
X28666666Y-56864095D01*
X28666666Y-56768857D01*
X28714285Y-56673619D01*
X28761904Y-56626000D01*
X28857142Y-56578380D01*
X29095238Y-56578380D01*
X29238095Y-56626000D01*
X29571428Y-56578380D02*
X29809523Y-57578380D01*
X30000000Y-56864095D01*
X30190476Y-57578380D01*
X30428571Y-56578380D01*
X31333333Y-57578380D02*
X30761904Y-57578380D01*
X31047619Y-57578380D02*
X31047619Y-56578380D01*
X30952380Y-56721238D01*
X30857142Y-56816476D01*
X30761904Y-56864095D01*
X27976190Y-73326380D02*
X27976190Y-72326380D01*
X28547619Y-73326380D02*
X28119047Y-72754952D01*
X28547619Y-72326380D02*
X27976190Y-72897809D01*
X28976190Y-72802571D02*
X29309523Y-72802571D01*
X29452380Y-73326380D02*
X28976190Y-73326380D01*
X28976190Y-72326380D01*
X29452380Y-72326380D01*
X30071428Y-72850190D02*
X30071428Y-73326380D01*
X29738095Y-72326380D02*
X30071428Y-72850190D01*
X30404761Y-72326380D01*
X30500000Y-73421619D02*
X31261904Y-73421619D01*
X32071428Y-73231142D02*
X32023809Y-73278761D01*
X31880952Y-73326380D01*
X31785714Y-73326380D01*
X31642857Y-73278761D01*
X31547619Y-73183523D01*
X31500000Y-73088285D01*
X31452380Y-72897809D01*
X31452380Y-72754952D01*
X31500000Y-72564476D01*
X31547619Y-72469238D01*
X31642857Y-72374000D01*
X31785714Y-72326380D01*
X31880952Y-72326380D01*
X32023809Y-72374000D01*
X32071428Y-72421619D01*
%TO.C,R4*%
X126452380Y-89166666D02*
X125976190Y-89500000D01*
X126452380Y-89738095D02*
X125452380Y-89738095D01*
X125452380Y-89357142D01*
X125500000Y-89261904D01*
X125547619Y-89214285D01*
X125642857Y-89166666D01*
X125785714Y-89166666D01*
X125880952Y-89214285D01*
X125928571Y-89261904D01*
X125976190Y-89357142D01*
X125976190Y-89738095D01*
X125785714Y-88309523D02*
X126452380Y-88309523D01*
X125404761Y-88547619D02*
X126119047Y-88785714D01*
X126119047Y-88166666D01*
X125915714Y-86008571D02*
X126582380Y-86008571D01*
X125534761Y-86246666D02*
X126249047Y-86484761D01*
X126249047Y-85865714D01*
X126487142Y-85484761D02*
X126534761Y-85437142D01*
X126582380Y-85484761D01*
X126534761Y-85532380D01*
X126487142Y-85484761D01*
X126582380Y-85484761D01*
X125582380Y-85103809D02*
X125582380Y-84437142D01*
X126582380Y-84865714D01*
X126582380Y-84056190D02*
X125582380Y-84056190D01*
X126201428Y-83960952D02*
X126582380Y-83675238D01*
X125915714Y-83675238D02*
X126296666Y-84056190D01*
%TO.C,R3*%
X126452380Y-69166666D02*
X125976190Y-69500000D01*
X126452380Y-69738095D02*
X125452380Y-69738095D01*
X125452380Y-69357142D01*
X125500000Y-69261904D01*
X125547619Y-69214285D01*
X125642857Y-69166666D01*
X125785714Y-69166666D01*
X125880952Y-69214285D01*
X125928571Y-69261904D01*
X125976190Y-69357142D01*
X125976190Y-69738095D01*
X125452380Y-68833333D02*
X125452380Y-68214285D01*
X125833333Y-68547619D01*
X125833333Y-68404761D01*
X125880952Y-68309523D01*
X125928571Y-68261904D01*
X126023809Y-68214285D01*
X126261904Y-68214285D01*
X126357142Y-68261904D01*
X126404761Y-68309523D01*
X126452380Y-68404761D01*
X126452380Y-68690476D01*
X126404761Y-68785714D01*
X126357142Y-68833333D01*
X125785714Y-65928571D02*
X126452380Y-65928571D01*
X125404761Y-66166666D02*
X126119047Y-66404761D01*
X126119047Y-65785714D01*
X126357142Y-65404761D02*
X126404761Y-65357142D01*
X126452380Y-65404761D01*
X126404761Y-65452380D01*
X126357142Y-65404761D01*
X126452380Y-65404761D01*
X125452380Y-65023809D02*
X125452380Y-64357142D01*
X126452380Y-64785714D01*
X126452380Y-63976190D02*
X125452380Y-63976190D01*
X126071428Y-63880952D02*
X126452380Y-63595238D01*
X125785714Y-63595238D02*
X126166666Y-63976190D01*
%TO.C,R2*%
X120952380Y-89166666D02*
X120476190Y-89500000D01*
X120952380Y-89738095D02*
X119952380Y-89738095D01*
X119952380Y-89357142D01*
X120000000Y-89261904D01*
X120047619Y-89214285D01*
X120142857Y-89166666D01*
X120285714Y-89166666D01*
X120380952Y-89214285D01*
X120428571Y-89261904D01*
X120476190Y-89357142D01*
X120476190Y-89738095D01*
X120047619Y-88785714D02*
X120000000Y-88738095D01*
X119952380Y-88642857D01*
X119952380Y-88404761D01*
X120000000Y-88309523D01*
X120047619Y-88261904D01*
X120142857Y-88214285D01*
X120238095Y-88214285D01*
X120380952Y-88261904D01*
X120952380Y-88833333D01*
X120952380Y-88214285D01*
X120285714Y-85928571D02*
X120952380Y-85928571D01*
X119904761Y-86166666D02*
X120619047Y-86404761D01*
X120619047Y-85785714D01*
X120857142Y-85404761D02*
X120904761Y-85357142D01*
X120952380Y-85404761D01*
X120904761Y-85452380D01*
X120857142Y-85404761D01*
X120952380Y-85404761D01*
X119952380Y-85023809D02*
X119952380Y-84357142D01*
X120952380Y-84785714D01*
X120952380Y-83976190D02*
X119952380Y-83976190D01*
X120571428Y-83880952D02*
X120952380Y-83595238D01*
X120285714Y-83595238D02*
X120666666Y-83976190D01*
%TO.C,R1*%
X120952380Y-69166666D02*
X120476190Y-69500000D01*
X120952380Y-69738095D02*
X119952380Y-69738095D01*
X119952380Y-69357142D01*
X120000000Y-69261904D01*
X120047619Y-69214285D01*
X120142857Y-69166666D01*
X120285714Y-69166666D01*
X120380952Y-69214285D01*
X120428571Y-69261904D01*
X120476190Y-69357142D01*
X120476190Y-69738095D01*
X120952380Y-68214285D02*
X120952380Y-68785714D01*
X120952380Y-68500000D02*
X119952380Y-68500000D01*
X120095238Y-68595238D01*
X120190476Y-68690476D01*
X120238095Y-68785714D01*
X120415714Y-66008571D02*
X121082380Y-66008571D01*
X120034761Y-66246666D02*
X120749047Y-66484761D01*
X120749047Y-65865714D01*
X120987142Y-65484761D02*
X121034761Y-65437142D01*
X121082380Y-65484761D01*
X121034761Y-65532380D01*
X120987142Y-65484761D01*
X121082380Y-65484761D01*
X120082380Y-65103809D02*
X120082380Y-64437142D01*
X121082380Y-64865714D01*
X121082380Y-64056190D02*
X120082380Y-64056190D01*
X120701428Y-63960952D02*
X121082380Y-63675238D01*
X120415714Y-63675238D02*
X120796666Y-64056190D01*
%TD*%
M02*
