<?xml version="1.0" standalone="no"?>
 <!DOCTYPE svg PUBLIC "-//W3C//DTD SVG 1.1//EN" 
 "http://www.w3.org/Graphics/SVG/1.1/DTD/svg11.dtd"> 
<svg
  xmlns:svg="http://www.w3.org/2000/svg"
  xmlns="http://www.w3.org/2000/svg"
  xmlns:xlink="http://www.w3.org/1999/xlink"
  version="1.1"
  width="29.700220cm" height="21.000720cm" viewBox="0 0 116930 82680">
<title>SVG Picture created as MicroTrainer-F_CrtYd.svg date 2021/10/02 13:16:15 </title>
  <desc>Picture generated by PCBNEW </desc>
<g style="fill:#000000; fill-opacity:1;stroke:#000000; stroke-opacity:1;
stroke-linecap:round; stroke-linejoin:round;"
 transform="translate(0 0) scale(1 1)">
</g>
<g style="fill:#000000; fill-opacity:0.0; 
stroke:#000000; stroke-width:-0.000393701; stroke-opacity:1; 
stroke-linecap:round; stroke-linejoin:round;">
</g>
<g style="fill:#000000; fill-opacity:0.0; 
stroke:#000000; stroke-width:19.685; stroke-opacity:1; 
stroke-linecap:round; stroke-linejoin:round;">
<path d="M46342 20791
L48763 20791
" />
<path d="M48763 20791
L48763 19374
" />
<path d="M48763 19374
L46342 19374
" />
<path d="M46342 19374
L46342 20791
" />
<path d="M8740 10456
L10137 10456
" />
<path d="M10137 10456
L10137 18862
" />
<path d="M10137 18862
L8740 18862
" />
<path d="M8740 18862
L8740 10456
" />
<path d="M29606 12456
L31003 12456
" />
<path d="M31003 12456
L31003 16866
" />
<path d="M31003 16866
L29606 16866
" />
<path d="M29606 16866
L29606 12456
" />
<path d="M53267 14330
L53267 15728
" />
<path d="M53267 15728
L32874 15728
" />
<path d="M32874 15728
L32874 14330
" />
<path d="M32874 14330
L53267 14330
" />
<path d="M53267 8346
L53267 9744
" />
<path d="M53267 9744
L32874 9744
" />
<path d="M32874 9744
L32874 8346
" />
<path d="M32874 8346
L53267 8346
" />
<circle cx="9645.67" cy="20275.6" r="1200.79" /> 
<circle cx="30118.1" cy="20275.6" r="1200.79" /> 
<circle cx="30118.1" cy="9055.12" r="1200.79" /> 
<circle cx="9645.67" cy="9055.12" r="1200.79" /> 
<circle cx="6692.91" cy="8661.42" r="1200.79" /> 
<circle cx="56299.2" cy="8661.42" r="1200.79" /> 
<circle cx="56299.2" cy="51968.5" r="1200.79" /> 
<circle cx="6692.91" cy="51968.5" r="1200.79" /> 
<path d="M32185 17322
L32185 19291
" />
<path d="M32185 19291
L35137 19291
" />
<path d="M35137 19291
L35137 17322
" />
<path d="M35137 17322
L32185 17322
" />
<path d="M35925 17322
L35925 19291
" />
<path d="M35925 19291
L38877 19291
" />
<path d="M38877 19291
L38877 17322
" />
<path d="M38877 17322
L35925 17322
" />
<path d="M45964 17322
L45964 19291
" />
<path d="M45964 19291
L48917 19291
" />
<path d="M48917 19291
L48917 17322
" />
<path d="M48917 17322
L45964 17322
" />
<path d="M49704 17322
L49704 19291
" />
<path d="M49704 19291
L52657 19291
" />
<path d="M52657 19291
L52657 17322
" />
<path d="M52657 17322
L49704 17322
" />
<path d="M48582 51811
L48582 46614
" />
<path d="M53779 51811
L48582 51811
" />
<path d="M53779 46614
L53779 51811
" />
<path d="M48582 46614
L53779 46614
" />
<path d="M40708 51811
L40708 46614
" />
<path d="M45905 51811
L40708 51811
" />
<path d="M45905 46614
L45905 51811
" />
<path d="M40708 46614
L45905 46614
" />
<path d="M32834 51811
L32834 46614
" />
<path d="M38031 51811
L32834 51811
" />
<path d="M38031 46614
L38031 51811
" />
<path d="M32834 46614
L38031 46614
" />
<path d="M24960 51811
L24960 46614
" />
<path d="M30157 51811
L24960 51811
" />
<path d="M30157 46614
L30157 51811
" />
<path d="M24960 46614
L30157 46614
" />
<path d="M17086 51811
L17086 46614
" />
<path d="M22283 51811
L17086 51811
" />
<path d="M22283 46614
L22283 51811
" />
<path d="M17086 46614
L22283 46614
" />
<path d="M9212 51811
L9212 46614
" />
<path d="M14409 51811
L9212 51811
" />
<path d="M14409 46614
L14409 51811
" />
<path d="M9212 46614
L14409 46614
" />
<path d="M48582 43937
L48582 38740
" />
<path d="M53779 43937
L48582 43937
" />
<path d="M53779 38740
L53779 43937
" />
<path d="M48582 38740
L53779 38740
" />
<path d="M40708 43937
L40708 38740
" />
<path d="M45905 43937
L40708 43937
" />
<path d="M45905 38740
L45905 43937
" />
<path d="M40708 38740
L45905 38740
" />
<path d="M32834 43937
L32834 38740
" />
<path d="M38031 43937
L32834 43937
" />
<path d="M38031 38740
L38031 43937
" />
<path d="M32834 38740
L38031 38740
" />
<path d="M24960 43937
L24960 38740
" />
<path d="M30157 43937
L24960 43937
" />
<path d="M30157 38740
L30157 43937
" />
<path d="M24960 38740
L30157 38740
" />
<path d="M17086 43937
L17086 38740
" />
<path d="M22283 43937
L17086 43937
" />
<path d="M22283 38740
L22283 43937
" />
<path d="M17086 38740
L22283 38740
" />
<path d="M9212 43937
L9212 38740
" />
<path d="M14409 43937
L9212 43937
" />
<path d="M14409 38740
L14409 43937
" />
<path d="M9212 38740
L14409 38740
" />
<path d="M40708 36062
L40708 30866
" />
<path d="M45905 36062
L40708 36062
" />
<path d="M45905 30866
L45905 36062
" />
<path d="M40708 30866
L45905 30866
" />
<path d="M32834 36062
L32834 30866
" />
<path d="M38031 36062
L32834 36062
" />
<path d="M38031 30866
L38031 36062
" />
<path d="M32834 30866
L38031 30866
" />
<path d="M24960 36062
L24960 30866
" />
<path d="M30157 36062
L24960 36062
" />
<path d="M30157 30866
L30157 36062
" />
<path d="M24960 30866
L30157 30866
" />
<path d="M17086 36062
L17086 30866
" />
<path d="M22283 36062
L17086 36062
" />
<path d="M22283 30866
L22283 36062
" />
<path d="M17086 30866
L22283 30866
" />
<path d="M9212 36062
L9212 30866
" />
<path d="M14409 36062
L9212 36062
" />
<path d="M14409 30866
L14409 36062
" />
<path d="M9212 30866
L14409 30866
" />
<path d="M40708 28188
L40708 22992
" />
<path d="M45905 28188
L40708 28188
" />
<path d="M45905 22992
L45905 28188
" />
<path d="M40708 22992
L45905 22992
" />
<path d="M32834 28188
L32834 22992
" />
<path d="M38031 28188
L32834 28188
" />
<path d="M38031 22992
L38031 28188
" />
<path d="M32834 22992
L38031 22992
" />
<path d="M24960 28188
L24960 22992
" />
<path d="M30157 28188
L24960 28188
" />
<path d="M30157 22992
L30157 28188
" />
<path d="M24960 22992
L30157 22992
" />
<path d="M17086 28188
L17086 22992
" />
<path d="M22283 28188
L17086 28188
" />
<path d="M22283 22992
L22283 28188
" />
<path d="M17086 22992
L22283 22992
" />
<path d="M9212 28188
L9212 22992
" />
<path d="M14409 28188
L9212 28188
" />
<path d="M14409 22992
L14409 28188
" />
<path d="M9212 22992
L14409 22992
" />
<path d="M51181 31082
L50000 31082
" />
<path d="M50000 31082
L50000 35909
" />
<path d="M50000 35909
L51181 35909
" />
<path d="M51181 35909
L51181 31082
" />
<path d="M51181 23208
L50000 23208
" />
<path d="M50000 23208
L50000 28035
" />
<path d="M50000 28035
L51181 28035
" />
<path d="M51181 28035
L51181 23208
" />
<path d="M49015 31082
L47834 31082
" />
<path d="M47834 31082
L47834 35909
" />
<path d="M47834 35909
L49015 35909
" />
<path d="M49015 35909
L49015 31082
" />
<path d="M49015 23208
L47834 23208
" />
<path d="M47834 23208
L47834 28035
" />
<path d="M47834 28035
L49015 28035
" />
<path d="M49015 28035
L49015 23208
" />
<g >
</g>
<g >
</g>
<g >
</g>
<g >
</g>
<g >
</g>
<g >
</g>
<g >
</g>
<g >
</g>
<g >
</g>
<g >
</g>
<g >
</g>
<g >
</g>
<g >
</g>
<g >
</g>
<g >
</g>
<g >
</g>
<g >
</g>
<g >
</g>
<g >
</g>
<g >
</g>
<g >
</g>
<g >
</g>
<g >
</g>
<g >
</g>
<g >
</g>
<g >
</g>
<g >
</g>
<g >
</g>
<g >
</g>
<g >
</g>
<g >
</g>
<g >
</g>
<g >
</g>
<g >
</g>
<g >
</g>
<g >
</g>
<g >
</g>
<g >
</g>
<g >
</g>
<g >
</g>
<g >
</g>
<g >
</g>
<g >
</g>
<g >
</g>
<g >
</g>
<g >
</g>
<g >
</g>
<g >
</g>
</g> 
</svg>
