M48
; DRILL file {KiCad (5.1.6)-1} date 09/19/21 20:17:54
; FORMAT={-:-/ absolute / inch / decimal}
; #@! TF.CreationDate,2021-09-19T20:17:54-07:00
; #@! TF.GenerationSoftware,Kicad,Pcbnew,(5.1.6)-1
; #@! TF.FileFunction,NonPlated,1,2,NPTH
FMAT,2
INCH
T1C0.0669
T2C0.1575
%
G90
G05
T1
X4.1307Y-4.1339
X4.5307Y-4.1339
X1.7685Y-4.9213
X2.1685Y-4.9213
X2.5559Y-4.1339
X2.9559Y-4.1339
X4.1307Y-3.3465
X4.5307Y-3.3465
X0.9811Y-4.9213
X1.3811Y-4.9213
X1.7685Y-4.1339
X2.1685Y-4.1339
X1.7685Y-3.3465
X2.1685Y-3.3465
X2.5559Y-3.3465
X2.9559Y-3.3465
X0.9811Y-4.1339
X1.3811Y-4.1339
X4.9181Y-4.9213
X5.3181Y-4.9213
X1.7685Y-2.5591
X2.1685Y-2.5591
X4.9181Y-4.1339
X5.3181Y-4.1339
X2.5559Y-2.5591
X2.9559Y-2.5591
X4.1307Y-2.5591
X4.5307Y-2.5591
X4.1307Y-4.9213
X4.5307Y-4.9213
X0.9811Y-2.5591
X1.3811Y-2.5591
X3.3433Y-2.5591
X3.7433Y-2.5591
X3.3433Y-4.9213
X3.7433Y-4.9213
X3.3433Y-4.1339
X3.7433Y-4.1339
X2.5559Y-4.9213
X2.9559Y-4.9213
X3.3433Y-3.3465
X3.7433Y-3.3465
X0.9811Y-3.3465
X1.3811Y-3.3465
T2
X4.3307Y-4.1339
X1.9685Y-4.9213
X2.7559Y-4.1339
X4.3307Y-3.3465
X1.1811Y-4.9213
X1.9685Y-4.1339
X1.9685Y-3.3465
X2.7559Y-3.3465
X1.1811Y-4.1339
X5.1181Y-4.9213
X1.9685Y-2.5591
X5.1181Y-4.1339
X2.7559Y-2.5591
X4.3307Y-2.5591
X4.3307Y-4.9213
X1.1811Y-2.5591
X3.5433Y-2.5591
X3.5433Y-4.9213
X3.5433Y-4.1339
X2.7559Y-4.9213
X3.5433Y-3.3465
X1.1811Y-3.3465
T0
M30
