%TF.GenerationSoftware,KiCad,Pcbnew,7.0.9*%
%TF.CreationDate,2023-12-17T15:27:51-08:00*%
%TF.ProjectId,MicroTrainer,4d696372-6f54-4726-9169-6e65722e6b69,rev?*%
%TF.SameCoordinates,Original*%
%TF.FileFunction,Legend,Top*%
%TF.FilePolarity,Positive*%
%FSLAX46Y46*%
G04 Gerber Fmt 4.6, Leading zero omitted, Abs format (unit mm)*
G04 Created by KiCad (PCBNEW 7.0.9) date 2023-12-17 15:27:51*
%MOMM*%
%LPD*%
G01*
G04 APERTURE LIST*
%ADD10C,0.100000*%
%ADD11C,0.330000*%
%ADD12C,0.150000*%
%ADD13C,0.120000*%
G04 APERTURE END LIST*
D10*
X146000000Y-71500000D02*
X137500000Y-71500000D01*
X137500000Y-28500000D01*
X146000000Y-28500000D01*
X146000000Y-71500000D01*
G36*
X146000000Y-71500000D02*
G01*
X137500000Y-71500000D01*
X137500000Y-28500000D01*
X146000000Y-28500000D01*
X146000000Y-71500000D01*
G37*
D11*
X144416959Y-84178570D02*
X141316959Y-84178570D01*
X141316959Y-84178570D02*
X144416959Y-82749999D01*
X144416959Y-82749999D02*
X141316959Y-82749999D01*
X144416959Y-80488094D02*
X142793149Y-80488094D01*
X142793149Y-80488094D02*
X142497911Y-80607141D01*
X142497911Y-80607141D02*
X142350292Y-80845237D01*
X142350292Y-80845237D02*
X142350292Y-81321427D01*
X142350292Y-81321427D02*
X142497911Y-81559522D01*
X144269340Y-80488094D02*
X144416959Y-80726189D01*
X144416959Y-80726189D02*
X144416959Y-81321427D01*
X144416959Y-81321427D02*
X144269340Y-81559522D01*
X144269340Y-81559522D02*
X143974101Y-81678570D01*
X143974101Y-81678570D02*
X143678863Y-81678570D01*
X143678863Y-81678570D02*
X143383625Y-81559522D01*
X143383625Y-81559522D02*
X143236006Y-81321427D01*
X143236006Y-81321427D02*
X143236006Y-80726189D01*
X143236006Y-80726189D02*
X143088387Y-80488094D01*
X144416959Y-79297617D02*
X142350292Y-79297617D01*
X142645530Y-79297617D02*
X142497911Y-79178570D01*
X142497911Y-79178570D02*
X142350292Y-78940475D01*
X142350292Y-78940475D02*
X142350292Y-78583332D01*
X142350292Y-78583332D02*
X142497911Y-78345236D01*
X142497911Y-78345236D02*
X142793149Y-78226189D01*
X142793149Y-78226189D02*
X144416959Y-78226189D01*
X142793149Y-78226189D02*
X142497911Y-78107141D01*
X142497911Y-78107141D02*
X142350292Y-77869046D01*
X142350292Y-77869046D02*
X142350292Y-77511903D01*
X142350292Y-77511903D02*
X142497911Y-77273808D01*
X142497911Y-77273808D02*
X142793149Y-77154760D01*
X142793149Y-77154760D02*
X144416959Y-77154760D01*
X144269340Y-75011903D02*
X144416959Y-75249999D01*
X144416959Y-75249999D02*
X144416959Y-75726189D01*
X144416959Y-75726189D02*
X144269340Y-75964284D01*
X144269340Y-75964284D02*
X143974101Y-76083332D01*
X143974101Y-76083332D02*
X142793149Y-76083332D01*
X142793149Y-76083332D02*
X142497911Y-75964284D01*
X142497911Y-75964284D02*
X142350292Y-75726189D01*
X142350292Y-75726189D02*
X142350292Y-75249999D01*
X142350292Y-75249999D02*
X142497911Y-75011903D01*
X142497911Y-75011903D02*
X142793149Y-74892856D01*
X142793149Y-74892856D02*
X143088387Y-74892856D01*
X143088387Y-74892856D02*
X143383625Y-76083332D01*
X144121720Y-73821427D02*
X144269340Y-73702380D01*
X144269340Y-73702380D02*
X144416959Y-73821427D01*
X144416959Y-73821427D02*
X144269340Y-73940475D01*
X144269340Y-73940475D02*
X144121720Y-73821427D01*
X144121720Y-73821427D02*
X144416959Y-73821427D01*
X142497911Y-73821427D02*
X142645530Y-73702380D01*
X142645530Y-73702380D02*
X142793149Y-73821427D01*
X142793149Y-73821427D02*
X142645530Y-73940475D01*
X142645530Y-73940475D02*
X142497911Y-73821427D01*
X142497911Y-73821427D02*
X142793149Y-73821427D01*
D12*
X113211779Y-28113866D02*
X113973684Y-28113866D01*
X113592731Y-28494819D02*
X113592731Y-27732914D01*
X113211779Y-24113866D02*
X113973684Y-24113866D01*
X113592731Y-24494819D02*
X113592731Y-23732914D01*
X16448711Y-95000000D02*
X16448711Y-94428572D01*
X16862997Y-95114286D02*
X15412997Y-94714286D01*
X15412997Y-94714286D02*
X16862997Y-94314286D01*
X16862997Y-93228572D02*
X16172521Y-93628572D01*
X16862997Y-93914286D02*
X15412997Y-93914286D01*
X15412997Y-93914286D02*
X15412997Y-93457143D01*
X15412997Y-93457143D02*
X15482045Y-93342858D01*
X15482045Y-93342858D02*
X15551092Y-93285715D01*
X15551092Y-93285715D02*
X15689188Y-93228572D01*
X15689188Y-93228572D02*
X15896330Y-93228572D01*
X15896330Y-93228572D02*
X16034426Y-93285715D01*
X16034426Y-93285715D02*
X16103473Y-93342858D01*
X16103473Y-93342858D02*
X16172521Y-93457143D01*
X16172521Y-93457143D02*
X16172521Y-93914286D01*
X16862997Y-92714286D02*
X15412997Y-92714286D01*
X15412997Y-92714286D02*
X16448711Y-92314286D01*
X16448711Y-92314286D02*
X15412997Y-91914286D01*
X15412997Y-91914286D02*
X16862997Y-91914286D01*
X16862997Y-90428571D02*
X15412997Y-90428571D01*
X15412997Y-90428571D02*
X16448711Y-90028571D01*
X16448711Y-90028571D02*
X15412997Y-89628571D01*
X15412997Y-89628571D02*
X16862997Y-89628571D01*
X16862997Y-89057142D02*
X15896330Y-89057142D01*
X15412997Y-89057142D02*
X15482045Y-89114285D01*
X15482045Y-89114285D02*
X15551092Y-89057142D01*
X15551092Y-89057142D02*
X15482045Y-88999999D01*
X15482045Y-88999999D02*
X15412997Y-89057142D01*
X15412997Y-89057142D02*
X15551092Y-89057142D01*
X16793950Y-87971428D02*
X16862997Y-88085713D01*
X16862997Y-88085713D02*
X16862997Y-88314285D01*
X16862997Y-88314285D02*
X16793950Y-88428570D01*
X16793950Y-88428570D02*
X16724902Y-88485713D01*
X16724902Y-88485713D02*
X16586807Y-88542856D01*
X16586807Y-88542856D02*
X16172521Y-88542856D01*
X16172521Y-88542856D02*
X16034426Y-88485713D01*
X16034426Y-88485713D02*
X15965378Y-88428570D01*
X15965378Y-88428570D02*
X15896330Y-88314285D01*
X15896330Y-88314285D02*
X15896330Y-88085713D01*
X15896330Y-88085713D02*
X15965378Y-87971428D01*
X16862997Y-87457142D02*
X15896330Y-87457142D01*
X16172521Y-87457142D02*
X16034426Y-87399999D01*
X16034426Y-87399999D02*
X15965378Y-87342857D01*
X15965378Y-87342857D02*
X15896330Y-87228571D01*
X15896330Y-87228571D02*
X15896330Y-87114285D01*
X16862997Y-86542857D02*
X16793950Y-86657142D01*
X16793950Y-86657142D02*
X16724902Y-86714285D01*
X16724902Y-86714285D02*
X16586807Y-86771428D01*
X16586807Y-86771428D02*
X16172521Y-86771428D01*
X16172521Y-86771428D02*
X16034426Y-86714285D01*
X16034426Y-86714285D02*
X15965378Y-86657142D01*
X15965378Y-86657142D02*
X15896330Y-86542857D01*
X15896330Y-86542857D02*
X15896330Y-86371428D01*
X15896330Y-86371428D02*
X15965378Y-86257142D01*
X15965378Y-86257142D02*
X16034426Y-86200000D01*
X16034426Y-86200000D02*
X16172521Y-86142857D01*
X16172521Y-86142857D02*
X16586807Y-86142857D01*
X16586807Y-86142857D02*
X16724902Y-86200000D01*
X16724902Y-86200000D02*
X16793950Y-86257142D01*
X16793950Y-86257142D02*
X16862997Y-86371428D01*
X16862997Y-86371428D02*
X16862997Y-86542857D01*
X15896330Y-85628571D02*
X17346330Y-85628571D01*
X15965378Y-85628571D02*
X15896330Y-85514286D01*
X15896330Y-85514286D02*
X15896330Y-85285714D01*
X15896330Y-85285714D02*
X15965378Y-85171428D01*
X15965378Y-85171428D02*
X16034426Y-85114286D01*
X16034426Y-85114286D02*
X16172521Y-85057143D01*
X16172521Y-85057143D02*
X16586807Y-85057143D01*
X16586807Y-85057143D02*
X16724902Y-85114286D01*
X16724902Y-85114286D02*
X16793950Y-85171428D01*
X16793950Y-85171428D02*
X16862997Y-85285714D01*
X16862997Y-85285714D02*
X16862997Y-85514286D01*
X16862997Y-85514286D02*
X16793950Y-85628571D01*
X16862997Y-84542857D02*
X15896330Y-84542857D01*
X16172521Y-84542857D02*
X16034426Y-84485714D01*
X16034426Y-84485714D02*
X15965378Y-84428572D01*
X15965378Y-84428572D02*
X15896330Y-84314286D01*
X15896330Y-84314286D02*
X15896330Y-84200000D01*
X16862997Y-83628572D02*
X16793950Y-83742857D01*
X16793950Y-83742857D02*
X16724902Y-83800000D01*
X16724902Y-83800000D02*
X16586807Y-83857143D01*
X16586807Y-83857143D02*
X16172521Y-83857143D01*
X16172521Y-83857143D02*
X16034426Y-83800000D01*
X16034426Y-83800000D02*
X15965378Y-83742857D01*
X15965378Y-83742857D02*
X15896330Y-83628572D01*
X15896330Y-83628572D02*
X15896330Y-83457143D01*
X15896330Y-83457143D02*
X15965378Y-83342857D01*
X15965378Y-83342857D02*
X16034426Y-83285715D01*
X16034426Y-83285715D02*
X16172521Y-83228572D01*
X16172521Y-83228572D02*
X16586807Y-83228572D01*
X16586807Y-83228572D02*
X16724902Y-83285715D01*
X16724902Y-83285715D02*
X16793950Y-83342857D01*
X16793950Y-83342857D02*
X16862997Y-83457143D01*
X16862997Y-83457143D02*
X16862997Y-83628572D01*
X16793950Y-82200001D02*
X16862997Y-82314286D01*
X16862997Y-82314286D02*
X16862997Y-82542858D01*
X16862997Y-82542858D02*
X16793950Y-82657143D01*
X16793950Y-82657143D02*
X16724902Y-82714286D01*
X16724902Y-82714286D02*
X16586807Y-82771429D01*
X16586807Y-82771429D02*
X16172521Y-82771429D01*
X16172521Y-82771429D02*
X16034426Y-82714286D01*
X16034426Y-82714286D02*
X15965378Y-82657143D01*
X15965378Y-82657143D02*
X15896330Y-82542858D01*
X15896330Y-82542858D02*
X15896330Y-82314286D01*
X15896330Y-82314286D02*
X15965378Y-82200001D01*
X16793950Y-81228572D02*
X16862997Y-81342858D01*
X16862997Y-81342858D02*
X16862997Y-81571430D01*
X16862997Y-81571430D02*
X16793950Y-81685715D01*
X16793950Y-81685715D02*
X16655854Y-81742858D01*
X16655854Y-81742858D02*
X16103473Y-81742858D01*
X16103473Y-81742858D02*
X15965378Y-81685715D01*
X15965378Y-81685715D02*
X15896330Y-81571430D01*
X15896330Y-81571430D02*
X15896330Y-81342858D01*
X15896330Y-81342858D02*
X15965378Y-81228572D01*
X15965378Y-81228572D02*
X16103473Y-81171430D01*
X16103473Y-81171430D02*
X16241569Y-81171430D01*
X16241569Y-81171430D02*
X16379664Y-81742858D01*
X16793950Y-80714287D02*
X16862997Y-80600001D01*
X16862997Y-80600001D02*
X16862997Y-80371430D01*
X16862997Y-80371430D02*
X16793950Y-80257144D01*
X16793950Y-80257144D02*
X16655854Y-80200001D01*
X16655854Y-80200001D02*
X16586807Y-80200001D01*
X16586807Y-80200001D02*
X16448711Y-80257144D01*
X16448711Y-80257144D02*
X16379664Y-80371430D01*
X16379664Y-80371430D02*
X16379664Y-80542859D01*
X16379664Y-80542859D02*
X16310616Y-80657144D01*
X16310616Y-80657144D02*
X16172521Y-80714287D01*
X16172521Y-80714287D02*
X16103473Y-80714287D01*
X16103473Y-80714287D02*
X15965378Y-80657144D01*
X15965378Y-80657144D02*
X15896330Y-80542859D01*
X15896330Y-80542859D02*
X15896330Y-80371430D01*
X15896330Y-80371430D02*
X15965378Y-80257144D01*
X16793950Y-79742858D02*
X16862997Y-79628572D01*
X16862997Y-79628572D02*
X16862997Y-79400001D01*
X16862997Y-79400001D02*
X16793950Y-79285715D01*
X16793950Y-79285715D02*
X16655854Y-79228572D01*
X16655854Y-79228572D02*
X16586807Y-79228572D01*
X16586807Y-79228572D02*
X16448711Y-79285715D01*
X16448711Y-79285715D02*
X16379664Y-79400001D01*
X16379664Y-79400001D02*
X16379664Y-79571430D01*
X16379664Y-79571430D02*
X16310616Y-79685715D01*
X16310616Y-79685715D02*
X16172521Y-79742858D01*
X16172521Y-79742858D02*
X16103473Y-79742858D01*
X16103473Y-79742858D02*
X15965378Y-79685715D01*
X15965378Y-79685715D02*
X15896330Y-79571430D01*
X15896330Y-79571430D02*
X15896330Y-79400001D01*
X15896330Y-79400001D02*
X15965378Y-79285715D01*
X16862997Y-78542858D02*
X16793950Y-78657143D01*
X16793950Y-78657143D02*
X16724902Y-78714286D01*
X16724902Y-78714286D02*
X16586807Y-78771429D01*
X16586807Y-78771429D02*
X16172521Y-78771429D01*
X16172521Y-78771429D02*
X16034426Y-78714286D01*
X16034426Y-78714286D02*
X15965378Y-78657143D01*
X15965378Y-78657143D02*
X15896330Y-78542858D01*
X15896330Y-78542858D02*
X15896330Y-78371429D01*
X15896330Y-78371429D02*
X15965378Y-78257143D01*
X15965378Y-78257143D02*
X16034426Y-78200001D01*
X16034426Y-78200001D02*
X16172521Y-78142858D01*
X16172521Y-78142858D02*
X16586807Y-78142858D01*
X16586807Y-78142858D02*
X16724902Y-78200001D01*
X16724902Y-78200001D02*
X16793950Y-78257143D01*
X16793950Y-78257143D02*
X16862997Y-78371429D01*
X16862997Y-78371429D02*
X16862997Y-78542858D01*
X16862997Y-77628572D02*
X15896330Y-77628572D01*
X16172521Y-77628572D02*
X16034426Y-77571429D01*
X16034426Y-77571429D02*
X15965378Y-77514287D01*
X15965378Y-77514287D02*
X15896330Y-77400001D01*
X15896330Y-77400001D02*
X15896330Y-77285715D01*
X15412997Y-76142858D02*
X15412997Y-75457144D01*
X16862997Y-75800001D02*
X15412997Y-75800001D01*
X16862997Y-75057143D02*
X15896330Y-75057143D01*
X16172521Y-75057143D02*
X16034426Y-75000000D01*
X16034426Y-75000000D02*
X15965378Y-74942858D01*
X15965378Y-74942858D02*
X15896330Y-74828572D01*
X15896330Y-74828572D02*
X15896330Y-74714286D01*
X16862997Y-73800001D02*
X16103473Y-73800001D01*
X16103473Y-73800001D02*
X15965378Y-73857143D01*
X15965378Y-73857143D02*
X15896330Y-73971429D01*
X15896330Y-73971429D02*
X15896330Y-74200001D01*
X15896330Y-74200001D02*
X15965378Y-74314286D01*
X16793950Y-73800001D02*
X16862997Y-73914286D01*
X16862997Y-73914286D02*
X16862997Y-74200001D01*
X16862997Y-74200001D02*
X16793950Y-74314286D01*
X16793950Y-74314286D02*
X16655854Y-74371429D01*
X16655854Y-74371429D02*
X16517759Y-74371429D01*
X16517759Y-74371429D02*
X16379664Y-74314286D01*
X16379664Y-74314286D02*
X16310616Y-74200001D01*
X16310616Y-74200001D02*
X16310616Y-73914286D01*
X16310616Y-73914286D02*
X16241569Y-73800001D01*
X16862997Y-73228572D02*
X15896330Y-73228572D01*
X15412997Y-73228572D02*
X15482045Y-73285715D01*
X15482045Y-73285715D02*
X15551092Y-73228572D01*
X15551092Y-73228572D02*
X15482045Y-73171429D01*
X15482045Y-73171429D02*
X15412997Y-73228572D01*
X15412997Y-73228572D02*
X15551092Y-73228572D01*
X15896330Y-72657143D02*
X16862997Y-72657143D01*
X16034426Y-72657143D02*
X15965378Y-72600000D01*
X15965378Y-72600000D02*
X15896330Y-72485715D01*
X15896330Y-72485715D02*
X15896330Y-72314286D01*
X15896330Y-72314286D02*
X15965378Y-72200000D01*
X15965378Y-72200000D02*
X16103473Y-72142858D01*
X16103473Y-72142858D02*
X16862997Y-72142858D01*
X16793950Y-71114286D02*
X16862997Y-71228572D01*
X16862997Y-71228572D02*
X16862997Y-71457144D01*
X16862997Y-71457144D02*
X16793950Y-71571429D01*
X16793950Y-71571429D02*
X16655854Y-71628572D01*
X16655854Y-71628572D02*
X16103473Y-71628572D01*
X16103473Y-71628572D02*
X15965378Y-71571429D01*
X15965378Y-71571429D02*
X15896330Y-71457144D01*
X15896330Y-71457144D02*
X15896330Y-71228572D01*
X15896330Y-71228572D02*
X15965378Y-71114286D01*
X15965378Y-71114286D02*
X16103473Y-71057144D01*
X16103473Y-71057144D02*
X16241569Y-71057144D01*
X16241569Y-71057144D02*
X16379664Y-71628572D01*
X16862997Y-70542858D02*
X15896330Y-70542858D01*
X16172521Y-70542858D02*
X16034426Y-70485715D01*
X16034426Y-70485715D02*
X15965378Y-70428573D01*
X15965378Y-70428573D02*
X15896330Y-70314287D01*
X15896330Y-70314287D02*
X15896330Y-70200001D01*
X16793950Y-69742858D02*
X16862997Y-69742858D01*
X16862997Y-69742858D02*
X17001092Y-69800001D01*
X17001092Y-69800001D02*
X17070140Y-69857144D01*
X16724902Y-67628572D02*
X16793950Y-67685715D01*
X16793950Y-67685715D02*
X16862997Y-67857143D01*
X16862997Y-67857143D02*
X16862997Y-67971429D01*
X16862997Y-67971429D02*
X16793950Y-68142858D01*
X16793950Y-68142858D02*
X16655854Y-68257143D01*
X16655854Y-68257143D02*
X16517759Y-68314286D01*
X16517759Y-68314286D02*
X16241569Y-68371429D01*
X16241569Y-68371429D02*
X16034426Y-68371429D01*
X16034426Y-68371429D02*
X15758235Y-68314286D01*
X15758235Y-68314286D02*
X15620140Y-68257143D01*
X15620140Y-68257143D02*
X15482045Y-68142858D01*
X15482045Y-68142858D02*
X15412997Y-67971429D01*
X15412997Y-67971429D02*
X15412997Y-67857143D01*
X15412997Y-67857143D02*
X15482045Y-67685715D01*
X15482045Y-67685715D02*
X15551092Y-67628572D01*
X16862997Y-66942858D02*
X16793950Y-67057143D01*
X16793950Y-67057143D02*
X16724902Y-67114286D01*
X16724902Y-67114286D02*
X16586807Y-67171429D01*
X16586807Y-67171429D02*
X16172521Y-67171429D01*
X16172521Y-67171429D02*
X16034426Y-67114286D01*
X16034426Y-67114286D02*
X15965378Y-67057143D01*
X15965378Y-67057143D02*
X15896330Y-66942858D01*
X15896330Y-66942858D02*
X15896330Y-66771429D01*
X15896330Y-66771429D02*
X15965378Y-66657143D01*
X15965378Y-66657143D02*
X16034426Y-66600001D01*
X16034426Y-66600001D02*
X16172521Y-66542858D01*
X16172521Y-66542858D02*
X16586807Y-66542858D01*
X16586807Y-66542858D02*
X16724902Y-66600001D01*
X16724902Y-66600001D02*
X16793950Y-66657143D01*
X16793950Y-66657143D02*
X16862997Y-66771429D01*
X16862997Y-66771429D02*
X16862997Y-66942858D01*
X15896330Y-66028572D02*
X17346330Y-66028572D01*
X15965378Y-66028572D02*
X15896330Y-65914287D01*
X15896330Y-65914287D02*
X15896330Y-65685715D01*
X15896330Y-65685715D02*
X15965378Y-65571429D01*
X15965378Y-65571429D02*
X16034426Y-65514287D01*
X16034426Y-65514287D02*
X16172521Y-65457144D01*
X16172521Y-65457144D02*
X16586807Y-65457144D01*
X16586807Y-65457144D02*
X16724902Y-65514287D01*
X16724902Y-65514287D02*
X16793950Y-65571429D01*
X16793950Y-65571429D02*
X16862997Y-65685715D01*
X16862997Y-65685715D02*
X16862997Y-65914287D01*
X16862997Y-65914287D02*
X16793950Y-66028572D01*
X15896330Y-65057144D02*
X16862997Y-64771430D01*
X15896330Y-64485715D02*
X16862997Y-64771430D01*
X16862997Y-64771430D02*
X17208235Y-64885715D01*
X17208235Y-64885715D02*
X17277283Y-64942858D01*
X17277283Y-64942858D02*
X17346330Y-65057144D01*
X16862997Y-64028572D02*
X15896330Y-64028572D01*
X16172521Y-64028572D02*
X16034426Y-63971429D01*
X16034426Y-63971429D02*
X15965378Y-63914287D01*
X15965378Y-63914287D02*
X15896330Y-63800001D01*
X15896330Y-63800001D02*
X15896330Y-63685715D01*
X16862997Y-63285715D02*
X15896330Y-63285715D01*
X15412997Y-63285715D02*
X15482045Y-63342858D01*
X15482045Y-63342858D02*
X15551092Y-63285715D01*
X15551092Y-63285715D02*
X15482045Y-63228572D01*
X15482045Y-63228572D02*
X15412997Y-63285715D01*
X15412997Y-63285715D02*
X15551092Y-63285715D01*
X15896330Y-62200001D02*
X17070140Y-62200001D01*
X17070140Y-62200001D02*
X17208235Y-62257143D01*
X17208235Y-62257143D02*
X17277283Y-62314286D01*
X17277283Y-62314286D02*
X17346330Y-62428572D01*
X17346330Y-62428572D02*
X17346330Y-62600001D01*
X17346330Y-62600001D02*
X17277283Y-62714286D01*
X16793950Y-62200001D02*
X16862997Y-62314286D01*
X16862997Y-62314286D02*
X16862997Y-62542858D01*
X16862997Y-62542858D02*
X16793950Y-62657143D01*
X16793950Y-62657143D02*
X16724902Y-62714286D01*
X16724902Y-62714286D02*
X16586807Y-62771429D01*
X16586807Y-62771429D02*
X16172521Y-62771429D01*
X16172521Y-62771429D02*
X16034426Y-62714286D01*
X16034426Y-62714286D02*
X15965378Y-62657143D01*
X15965378Y-62657143D02*
X15896330Y-62542858D01*
X15896330Y-62542858D02*
X15896330Y-62314286D01*
X15896330Y-62314286D02*
X15965378Y-62200001D01*
X16862997Y-61628572D02*
X15412997Y-61628572D01*
X16862997Y-61114287D02*
X16103473Y-61114287D01*
X16103473Y-61114287D02*
X15965378Y-61171429D01*
X15965378Y-61171429D02*
X15896330Y-61285715D01*
X15896330Y-61285715D02*
X15896330Y-61457144D01*
X15896330Y-61457144D02*
X15965378Y-61571429D01*
X15965378Y-61571429D02*
X16034426Y-61628572D01*
X15896330Y-60714287D02*
X15896330Y-60257144D01*
X15412997Y-60542858D02*
X16655854Y-60542858D01*
X16655854Y-60542858D02*
X16793950Y-60485715D01*
X16793950Y-60485715D02*
X16862997Y-60371430D01*
X16862997Y-60371430D02*
X16862997Y-60257144D01*
X15551092Y-59000001D02*
X15482045Y-58942858D01*
X15482045Y-58942858D02*
X15412997Y-58828573D01*
X15412997Y-58828573D02*
X15412997Y-58542858D01*
X15412997Y-58542858D02*
X15482045Y-58428573D01*
X15482045Y-58428573D02*
X15551092Y-58371430D01*
X15551092Y-58371430D02*
X15689188Y-58314287D01*
X15689188Y-58314287D02*
X15827283Y-58314287D01*
X15827283Y-58314287D02*
X16034426Y-58371430D01*
X16034426Y-58371430D02*
X16862997Y-59057144D01*
X16862997Y-59057144D02*
X16862997Y-58314287D01*
X15412997Y-57571430D02*
X15412997Y-57457144D01*
X15412997Y-57457144D02*
X15482045Y-57342858D01*
X15482045Y-57342858D02*
X15551092Y-57285716D01*
X15551092Y-57285716D02*
X15689188Y-57228573D01*
X15689188Y-57228573D02*
X15965378Y-57171430D01*
X15965378Y-57171430D02*
X16310616Y-57171430D01*
X16310616Y-57171430D02*
X16586807Y-57228573D01*
X16586807Y-57228573D02*
X16724902Y-57285716D01*
X16724902Y-57285716D02*
X16793950Y-57342858D01*
X16793950Y-57342858D02*
X16862997Y-57457144D01*
X16862997Y-57457144D02*
X16862997Y-57571430D01*
X16862997Y-57571430D02*
X16793950Y-57685716D01*
X16793950Y-57685716D02*
X16724902Y-57742858D01*
X16724902Y-57742858D02*
X16586807Y-57800001D01*
X16586807Y-57800001D02*
X16310616Y-57857144D01*
X16310616Y-57857144D02*
X15965378Y-57857144D01*
X15965378Y-57857144D02*
X15689188Y-57800001D01*
X15689188Y-57800001D02*
X15551092Y-57742858D01*
X15551092Y-57742858D02*
X15482045Y-57685716D01*
X15482045Y-57685716D02*
X15412997Y-57571430D01*
X15551092Y-56714287D02*
X15482045Y-56657144D01*
X15482045Y-56657144D02*
X15412997Y-56542859D01*
X15412997Y-56542859D02*
X15412997Y-56257144D01*
X15412997Y-56257144D02*
X15482045Y-56142859D01*
X15482045Y-56142859D02*
X15551092Y-56085716D01*
X15551092Y-56085716D02*
X15689188Y-56028573D01*
X15689188Y-56028573D02*
X15827283Y-56028573D01*
X15827283Y-56028573D02*
X16034426Y-56085716D01*
X16034426Y-56085716D02*
X16862997Y-56771430D01*
X16862997Y-56771430D02*
X16862997Y-56028573D01*
X16862997Y-54885716D02*
X16862997Y-55571430D01*
X16862997Y-55228573D02*
X15412997Y-55228573D01*
X15412997Y-55228573D02*
X15620140Y-55342859D01*
X15620140Y-55342859D02*
X15758235Y-55457144D01*
X15758235Y-55457144D02*
X15827283Y-55571430D01*
X16310616Y-54371430D02*
X16310616Y-53457145D01*
X15551092Y-52942859D02*
X15482045Y-52885716D01*
X15482045Y-52885716D02*
X15412997Y-52771431D01*
X15412997Y-52771431D02*
X15412997Y-52485716D01*
X15412997Y-52485716D02*
X15482045Y-52371431D01*
X15482045Y-52371431D02*
X15551092Y-52314288D01*
X15551092Y-52314288D02*
X15689188Y-52257145D01*
X15689188Y-52257145D02*
X15827283Y-52257145D01*
X15827283Y-52257145D02*
X16034426Y-52314288D01*
X16034426Y-52314288D02*
X16862997Y-53000002D01*
X16862997Y-53000002D02*
X16862997Y-52257145D01*
X15412997Y-51514288D02*
X15412997Y-51400002D01*
X15412997Y-51400002D02*
X15482045Y-51285716D01*
X15482045Y-51285716D02*
X15551092Y-51228574D01*
X15551092Y-51228574D02*
X15689188Y-51171431D01*
X15689188Y-51171431D02*
X15965378Y-51114288D01*
X15965378Y-51114288D02*
X16310616Y-51114288D01*
X16310616Y-51114288D02*
X16586807Y-51171431D01*
X16586807Y-51171431D02*
X16724902Y-51228574D01*
X16724902Y-51228574D02*
X16793950Y-51285716D01*
X16793950Y-51285716D02*
X16862997Y-51400002D01*
X16862997Y-51400002D02*
X16862997Y-51514288D01*
X16862997Y-51514288D02*
X16793950Y-51628574D01*
X16793950Y-51628574D02*
X16724902Y-51685716D01*
X16724902Y-51685716D02*
X16586807Y-51742859D01*
X16586807Y-51742859D02*
X16310616Y-51800002D01*
X16310616Y-51800002D02*
X15965378Y-51800002D01*
X15965378Y-51800002D02*
X15689188Y-51742859D01*
X15689188Y-51742859D02*
X15551092Y-51685716D01*
X15551092Y-51685716D02*
X15482045Y-51628574D01*
X15482045Y-51628574D02*
X15412997Y-51514288D01*
X15551092Y-50657145D02*
X15482045Y-50600002D01*
X15482045Y-50600002D02*
X15412997Y-50485717D01*
X15412997Y-50485717D02*
X15412997Y-50200002D01*
X15412997Y-50200002D02*
X15482045Y-50085717D01*
X15482045Y-50085717D02*
X15551092Y-50028574D01*
X15551092Y-50028574D02*
X15689188Y-49971431D01*
X15689188Y-49971431D02*
X15827283Y-49971431D01*
X15827283Y-49971431D02*
X16034426Y-50028574D01*
X16034426Y-50028574D02*
X16862997Y-50714288D01*
X16862997Y-50714288D02*
X16862997Y-49971431D01*
X15412997Y-49571431D02*
X15412997Y-48828574D01*
X15412997Y-48828574D02*
X15965378Y-49228574D01*
X15965378Y-49228574D02*
X15965378Y-49057145D01*
X15965378Y-49057145D02*
X16034426Y-48942860D01*
X16034426Y-48942860D02*
X16103473Y-48885717D01*
X16103473Y-48885717D02*
X16241569Y-48828574D01*
X16241569Y-48828574D02*
X16586807Y-48828574D01*
X16586807Y-48828574D02*
X16724902Y-48885717D01*
X16724902Y-48885717D02*
X16793950Y-48942860D01*
X16793950Y-48942860D02*
X16862997Y-49057145D01*
X16862997Y-49057145D02*
X16862997Y-49400002D01*
X16862997Y-49400002D02*
X16793950Y-49514288D01*
X16793950Y-49514288D02*
X16724902Y-49571431D01*
X16793950Y-48257145D02*
X16862997Y-48257145D01*
X16862997Y-48257145D02*
X17001092Y-48314288D01*
X17001092Y-48314288D02*
X17070140Y-48371431D01*
X16862997Y-46828573D02*
X15412997Y-46828573D01*
X15412997Y-46828573D02*
X16448711Y-46428573D01*
X16448711Y-46428573D02*
X15412997Y-46028573D01*
X15412997Y-46028573D02*
X16862997Y-46028573D01*
X16724902Y-45457144D02*
X16793950Y-45400001D01*
X16793950Y-45400001D02*
X16862997Y-45457144D01*
X16862997Y-45457144D02*
X16793950Y-45514287D01*
X16793950Y-45514287D02*
X16724902Y-45457144D01*
X16724902Y-45457144D02*
X16862997Y-45457144D01*
X16862997Y-43400001D02*
X16862997Y-43971429D01*
X16862997Y-43971429D02*
X15412997Y-43971429D01*
X15896330Y-43114286D02*
X16862997Y-42828572D01*
X15896330Y-42542857D02*
X16862997Y-42828572D01*
X16862997Y-42828572D02*
X17208235Y-42942857D01*
X17208235Y-42942857D02*
X17277283Y-43000000D01*
X17277283Y-43000000D02*
X17346330Y-43114286D01*
X16862997Y-41914286D02*
X16793950Y-42028571D01*
X16793950Y-42028571D02*
X16655854Y-42085714D01*
X16655854Y-42085714D02*
X15412997Y-42085714D01*
X16793950Y-41000000D02*
X16862997Y-41114286D01*
X16862997Y-41114286D02*
X16862997Y-41342858D01*
X16862997Y-41342858D02*
X16793950Y-41457143D01*
X16793950Y-41457143D02*
X16655854Y-41514286D01*
X16655854Y-41514286D02*
X16103473Y-41514286D01*
X16103473Y-41514286D02*
X15965378Y-41457143D01*
X15965378Y-41457143D02*
X15896330Y-41342858D01*
X15896330Y-41342858D02*
X15896330Y-41114286D01*
X15896330Y-41114286D02*
X15965378Y-41000000D01*
X15965378Y-41000000D02*
X16103473Y-40942858D01*
X16103473Y-40942858D02*
X16241569Y-40942858D01*
X16241569Y-40942858D02*
X16379664Y-41514286D01*
X16724902Y-40428572D02*
X16793950Y-40371429D01*
X16793950Y-40371429D02*
X16862997Y-40428572D01*
X16862997Y-40428572D02*
X16793950Y-40485715D01*
X16793950Y-40485715D02*
X16724902Y-40428572D01*
X16724902Y-40428572D02*
X16862997Y-40428572D01*
X16862997Y-37342857D02*
X16172521Y-37742857D01*
X16862997Y-38028571D02*
X15412997Y-38028571D01*
X15412997Y-38028571D02*
X15412997Y-37571428D01*
X15412997Y-37571428D02*
X15482045Y-37457143D01*
X15482045Y-37457143D02*
X15551092Y-37400000D01*
X15551092Y-37400000D02*
X15689188Y-37342857D01*
X15689188Y-37342857D02*
X15896330Y-37342857D01*
X15896330Y-37342857D02*
X16034426Y-37400000D01*
X16034426Y-37400000D02*
X16103473Y-37457143D01*
X16103473Y-37457143D02*
X16172521Y-37571428D01*
X16172521Y-37571428D02*
X16172521Y-38028571D01*
X16793950Y-36371428D02*
X16862997Y-36485714D01*
X16862997Y-36485714D02*
X16862997Y-36714286D01*
X16862997Y-36714286D02*
X16793950Y-36828571D01*
X16793950Y-36828571D02*
X16655854Y-36885714D01*
X16655854Y-36885714D02*
X16103473Y-36885714D01*
X16103473Y-36885714D02*
X15965378Y-36828571D01*
X15965378Y-36828571D02*
X15896330Y-36714286D01*
X15896330Y-36714286D02*
X15896330Y-36485714D01*
X15896330Y-36485714D02*
X15965378Y-36371428D01*
X15965378Y-36371428D02*
X16103473Y-36314286D01*
X16103473Y-36314286D02*
X16241569Y-36314286D01*
X16241569Y-36314286D02*
X16379664Y-36885714D01*
X15896330Y-35914286D02*
X16862997Y-35628572D01*
X16862997Y-35628572D02*
X15896330Y-35342857D01*
X16862997Y-34885714D02*
X15896330Y-34885714D01*
X15412997Y-34885714D02*
X15482045Y-34942857D01*
X15482045Y-34942857D02*
X15551092Y-34885714D01*
X15551092Y-34885714D02*
X15482045Y-34828571D01*
X15482045Y-34828571D02*
X15412997Y-34885714D01*
X15412997Y-34885714D02*
X15551092Y-34885714D01*
X16793950Y-34371428D02*
X16862997Y-34257142D01*
X16862997Y-34257142D02*
X16862997Y-34028571D01*
X16862997Y-34028571D02*
X16793950Y-33914285D01*
X16793950Y-33914285D02*
X16655854Y-33857142D01*
X16655854Y-33857142D02*
X16586807Y-33857142D01*
X16586807Y-33857142D02*
X16448711Y-33914285D01*
X16448711Y-33914285D02*
X16379664Y-34028571D01*
X16379664Y-34028571D02*
X16379664Y-34200000D01*
X16379664Y-34200000D02*
X16310616Y-34314285D01*
X16310616Y-34314285D02*
X16172521Y-34371428D01*
X16172521Y-34371428D02*
X16103473Y-34371428D01*
X16103473Y-34371428D02*
X15965378Y-34314285D01*
X15965378Y-34314285D02*
X15896330Y-34200000D01*
X15896330Y-34200000D02*
X15896330Y-34028571D01*
X15896330Y-34028571D02*
X15965378Y-33914285D01*
X16862997Y-33342856D02*
X15896330Y-33342856D01*
X15412997Y-33342856D02*
X15482045Y-33399999D01*
X15482045Y-33399999D02*
X15551092Y-33342856D01*
X15551092Y-33342856D02*
X15482045Y-33285713D01*
X15482045Y-33285713D02*
X15412997Y-33342856D01*
X15412997Y-33342856D02*
X15551092Y-33342856D01*
X16862997Y-32599999D02*
X16793950Y-32714284D01*
X16793950Y-32714284D02*
X16724902Y-32771427D01*
X16724902Y-32771427D02*
X16586807Y-32828570D01*
X16586807Y-32828570D02*
X16172521Y-32828570D01*
X16172521Y-32828570D02*
X16034426Y-32771427D01*
X16034426Y-32771427D02*
X15965378Y-32714284D01*
X15965378Y-32714284D02*
X15896330Y-32599999D01*
X15896330Y-32599999D02*
X15896330Y-32428570D01*
X15896330Y-32428570D02*
X15965378Y-32314284D01*
X15965378Y-32314284D02*
X16034426Y-32257142D01*
X16034426Y-32257142D02*
X16172521Y-32199999D01*
X16172521Y-32199999D02*
X16586807Y-32199999D01*
X16586807Y-32199999D02*
X16724902Y-32257142D01*
X16724902Y-32257142D02*
X16793950Y-32314284D01*
X16793950Y-32314284D02*
X16862997Y-32428570D01*
X16862997Y-32428570D02*
X16862997Y-32599999D01*
X15896330Y-31685713D02*
X16862997Y-31685713D01*
X16034426Y-31685713D02*
X15965378Y-31628570D01*
X15965378Y-31628570D02*
X15896330Y-31514285D01*
X15896330Y-31514285D02*
X15896330Y-31342856D01*
X15896330Y-31342856D02*
X15965378Y-31228570D01*
X15965378Y-31228570D02*
X16103473Y-31171428D01*
X16103473Y-31171428D02*
X16862997Y-31171428D01*
X16103473Y-29285713D02*
X16172521Y-29114285D01*
X16172521Y-29114285D02*
X16241569Y-29057142D01*
X16241569Y-29057142D02*
X16379664Y-28999999D01*
X16379664Y-28999999D02*
X16586807Y-28999999D01*
X16586807Y-28999999D02*
X16724902Y-29057142D01*
X16724902Y-29057142D02*
X16793950Y-29114285D01*
X16793950Y-29114285D02*
X16862997Y-29228570D01*
X16862997Y-29228570D02*
X16862997Y-29685713D01*
X16862997Y-29685713D02*
X15412997Y-29685713D01*
X15412997Y-29685713D02*
X15412997Y-29285713D01*
X15412997Y-29285713D02*
X15482045Y-29171428D01*
X15482045Y-29171428D02*
X15551092Y-29114285D01*
X15551092Y-29114285D02*
X15689188Y-29057142D01*
X15689188Y-29057142D02*
X15827283Y-29057142D01*
X15827283Y-29057142D02*
X15965378Y-29114285D01*
X15965378Y-29114285D02*
X16034426Y-29171428D01*
X16034426Y-29171428D02*
X16103473Y-29285713D01*
X16103473Y-29285713D02*
X16103473Y-29685713D01*
X125658333Y-68024819D02*
X125325000Y-67548628D01*
X125086905Y-68024819D02*
X125086905Y-67024819D01*
X125086905Y-67024819D02*
X125467857Y-67024819D01*
X125467857Y-67024819D02*
X125563095Y-67072438D01*
X125563095Y-67072438D02*
X125610714Y-67120057D01*
X125610714Y-67120057D02*
X125658333Y-67215295D01*
X125658333Y-67215295D02*
X125658333Y-67358152D01*
X125658333Y-67358152D02*
X125610714Y-67453390D01*
X125610714Y-67453390D02*
X125563095Y-67501009D01*
X125563095Y-67501009D02*
X125467857Y-67548628D01*
X125467857Y-67548628D02*
X125086905Y-67548628D01*
X126515476Y-67358152D02*
X126515476Y-68024819D01*
X126277381Y-66977200D02*
X126039286Y-67691485D01*
X126039286Y-67691485D02*
X126658333Y-67691485D01*
X76666666Y-30124819D02*
X76666666Y-30839104D01*
X76666666Y-30839104D02*
X76619047Y-30981961D01*
X76619047Y-30981961D02*
X76523809Y-31077200D01*
X76523809Y-31077200D02*
X76380952Y-31124819D01*
X76380952Y-31124819D02*
X76285714Y-31124819D01*
X77571428Y-30458152D02*
X77571428Y-31124819D01*
X77333333Y-30077200D02*
X77095238Y-30791485D01*
X77095238Y-30791485D02*
X77714285Y-30791485D01*
X128650476Y-117407200D02*
X128793333Y-117454819D01*
X128793333Y-117454819D02*
X129031428Y-117454819D01*
X129031428Y-117454819D02*
X129126666Y-117407200D01*
X129126666Y-117407200D02*
X129174285Y-117359580D01*
X129174285Y-117359580D02*
X129221904Y-117264342D01*
X129221904Y-117264342D02*
X129221904Y-117169104D01*
X129221904Y-117169104D02*
X129174285Y-117073866D01*
X129174285Y-117073866D02*
X129126666Y-117026247D01*
X129126666Y-117026247D02*
X129031428Y-116978628D01*
X129031428Y-116978628D02*
X128840952Y-116931009D01*
X128840952Y-116931009D02*
X128745714Y-116883390D01*
X128745714Y-116883390D02*
X128698095Y-116835771D01*
X128698095Y-116835771D02*
X128650476Y-116740533D01*
X128650476Y-116740533D02*
X128650476Y-116645295D01*
X128650476Y-116645295D02*
X128698095Y-116550057D01*
X128698095Y-116550057D02*
X128745714Y-116502438D01*
X128745714Y-116502438D02*
X128840952Y-116454819D01*
X128840952Y-116454819D02*
X129079047Y-116454819D01*
X129079047Y-116454819D02*
X129221904Y-116502438D01*
X129555238Y-116454819D02*
X129793333Y-117454819D01*
X129793333Y-117454819D02*
X129983809Y-116740533D01*
X129983809Y-116740533D02*
X130174285Y-117454819D01*
X130174285Y-117454819D02*
X130412381Y-116454819D01*
X130745714Y-116550057D02*
X130793333Y-116502438D01*
X130793333Y-116502438D02*
X130888571Y-116454819D01*
X130888571Y-116454819D02*
X131126666Y-116454819D01*
X131126666Y-116454819D02*
X131221904Y-116502438D01*
X131221904Y-116502438D02*
X131269523Y-116550057D01*
X131269523Y-116550057D02*
X131317142Y-116645295D01*
X131317142Y-116645295D02*
X131317142Y-116740533D01*
X131317142Y-116740533D02*
X131269523Y-116883390D01*
X131269523Y-116883390D02*
X130698095Y-117454819D01*
X130698095Y-117454819D02*
X131317142Y-117454819D01*
X132174285Y-116788152D02*
X132174285Y-117454819D01*
X131936190Y-116407200D02*
X131698095Y-117121485D01*
X131698095Y-117121485D02*
X132317142Y-117121485D01*
X127388571Y-133954819D02*
X127388571Y-132954819D01*
X127959999Y-133954819D02*
X127531428Y-133383390D01*
X127959999Y-132954819D02*
X127388571Y-133526247D01*
X128388571Y-133431009D02*
X128721904Y-133431009D01*
X128864761Y-133954819D02*
X128388571Y-133954819D01*
X128388571Y-133954819D02*
X128388571Y-132954819D01*
X128388571Y-132954819D02*
X128864761Y-132954819D01*
X129483809Y-133478628D02*
X129483809Y-133954819D01*
X129150476Y-132954819D02*
X129483809Y-133478628D01*
X129483809Y-133478628D02*
X129817142Y-132954819D01*
X129912381Y-134050057D02*
X130674285Y-134050057D01*
X131483809Y-133954819D02*
X131150476Y-133478628D01*
X130912381Y-133954819D02*
X130912381Y-132954819D01*
X130912381Y-132954819D02*
X131293333Y-132954819D01*
X131293333Y-132954819D02*
X131388571Y-133002438D01*
X131388571Y-133002438D02*
X131436190Y-133050057D01*
X131436190Y-133050057D02*
X131483809Y-133145295D01*
X131483809Y-133145295D02*
X131483809Y-133288152D01*
X131483809Y-133288152D02*
X131436190Y-133383390D01*
X131436190Y-133383390D02*
X131388571Y-133431009D01*
X131388571Y-133431009D02*
X131293333Y-133478628D01*
X131293333Y-133478628D02*
X130912381Y-133478628D01*
X131912381Y-132954819D02*
X131912381Y-133764342D01*
X131912381Y-133764342D02*
X131960000Y-133859580D01*
X131960000Y-133859580D02*
X132007619Y-133907200D01*
X132007619Y-133907200D02*
X132102857Y-133954819D01*
X132102857Y-133954819D02*
X132293333Y-133954819D01*
X132293333Y-133954819D02*
X132388571Y-133907200D01*
X132388571Y-133907200D02*
X132436190Y-133859580D01*
X132436190Y-133859580D02*
X132483809Y-133764342D01*
X132483809Y-133764342D02*
X132483809Y-132954819D01*
X132960000Y-133954819D02*
X132960000Y-132954819D01*
X132960000Y-132954819D02*
X133531428Y-133954819D01*
X133531428Y-133954819D02*
X133531428Y-132954819D01*
X49126667Y-77157200D02*
X49269524Y-77204819D01*
X49269524Y-77204819D02*
X49507619Y-77204819D01*
X49507619Y-77204819D02*
X49602857Y-77157200D01*
X49602857Y-77157200D02*
X49650476Y-77109580D01*
X49650476Y-77109580D02*
X49698095Y-77014342D01*
X49698095Y-77014342D02*
X49698095Y-76919104D01*
X49698095Y-76919104D02*
X49650476Y-76823866D01*
X49650476Y-76823866D02*
X49602857Y-76776247D01*
X49602857Y-76776247D02*
X49507619Y-76728628D01*
X49507619Y-76728628D02*
X49317143Y-76681009D01*
X49317143Y-76681009D02*
X49221905Y-76633390D01*
X49221905Y-76633390D02*
X49174286Y-76585771D01*
X49174286Y-76585771D02*
X49126667Y-76490533D01*
X49126667Y-76490533D02*
X49126667Y-76395295D01*
X49126667Y-76395295D02*
X49174286Y-76300057D01*
X49174286Y-76300057D02*
X49221905Y-76252438D01*
X49221905Y-76252438D02*
X49317143Y-76204819D01*
X49317143Y-76204819D02*
X49555238Y-76204819D01*
X49555238Y-76204819D02*
X49698095Y-76252438D01*
X50031429Y-76204819D02*
X50269524Y-77204819D01*
X50269524Y-77204819D02*
X50460000Y-76490533D01*
X50460000Y-76490533D02*
X50650476Y-77204819D01*
X50650476Y-77204819D02*
X50888572Y-76204819D01*
X51412381Y-76633390D02*
X51317143Y-76585771D01*
X51317143Y-76585771D02*
X51269524Y-76538152D01*
X51269524Y-76538152D02*
X51221905Y-76442914D01*
X51221905Y-76442914D02*
X51221905Y-76395295D01*
X51221905Y-76395295D02*
X51269524Y-76300057D01*
X51269524Y-76300057D02*
X51317143Y-76252438D01*
X51317143Y-76252438D02*
X51412381Y-76204819D01*
X51412381Y-76204819D02*
X51602857Y-76204819D01*
X51602857Y-76204819D02*
X51698095Y-76252438D01*
X51698095Y-76252438D02*
X51745714Y-76300057D01*
X51745714Y-76300057D02*
X51793333Y-76395295D01*
X51793333Y-76395295D02*
X51793333Y-76442914D01*
X51793333Y-76442914D02*
X51745714Y-76538152D01*
X51745714Y-76538152D02*
X51698095Y-76585771D01*
X51698095Y-76585771D02*
X51602857Y-76633390D01*
X51602857Y-76633390D02*
X51412381Y-76633390D01*
X51412381Y-76633390D02*
X51317143Y-76681009D01*
X51317143Y-76681009D02*
X51269524Y-76728628D01*
X51269524Y-76728628D02*
X51221905Y-76823866D01*
X51221905Y-76823866D02*
X51221905Y-77014342D01*
X51221905Y-77014342D02*
X51269524Y-77109580D01*
X51269524Y-77109580D02*
X51317143Y-77157200D01*
X51317143Y-77157200D02*
X51412381Y-77204819D01*
X51412381Y-77204819D02*
X51602857Y-77204819D01*
X51602857Y-77204819D02*
X51698095Y-77157200D01*
X51698095Y-77157200D02*
X51745714Y-77109580D01*
X51745714Y-77109580D02*
X51793333Y-77014342D01*
X51793333Y-77014342D02*
X51793333Y-76823866D01*
X51793333Y-76823866D02*
X51745714Y-76728628D01*
X51745714Y-76728628D02*
X51698095Y-76681009D01*
X51698095Y-76681009D02*
X51602857Y-76633390D01*
X48460000Y-93874819D02*
X48460000Y-92874819D01*
X49031428Y-93874819D02*
X48602857Y-93303390D01*
X49031428Y-92874819D02*
X48460000Y-93446247D01*
X49460000Y-93351009D02*
X49793333Y-93351009D01*
X49936190Y-93874819D02*
X49460000Y-93874819D01*
X49460000Y-93874819D02*
X49460000Y-92874819D01*
X49460000Y-92874819D02*
X49936190Y-92874819D01*
X50555238Y-93398628D02*
X50555238Y-93874819D01*
X50221905Y-92874819D02*
X50555238Y-93398628D01*
X50555238Y-93398628D02*
X50888571Y-92874819D01*
X50983810Y-93970057D02*
X51745714Y-93970057D01*
X52031429Y-93874819D02*
X52221905Y-93874819D01*
X52221905Y-93874819D02*
X52317143Y-93827200D01*
X52317143Y-93827200D02*
X52364762Y-93779580D01*
X52364762Y-93779580D02*
X52460000Y-93636723D01*
X52460000Y-93636723D02*
X52507619Y-93446247D01*
X52507619Y-93446247D02*
X52507619Y-93065295D01*
X52507619Y-93065295D02*
X52460000Y-92970057D01*
X52460000Y-92970057D02*
X52412381Y-92922438D01*
X52412381Y-92922438D02*
X52317143Y-92874819D01*
X52317143Y-92874819D02*
X52126667Y-92874819D01*
X52126667Y-92874819D02*
X52031429Y-92922438D01*
X52031429Y-92922438D02*
X51983810Y-92970057D01*
X51983810Y-92970057D02*
X51936191Y-93065295D01*
X51936191Y-93065295D02*
X51936191Y-93303390D01*
X51936191Y-93303390D02*
X51983810Y-93398628D01*
X51983810Y-93398628D02*
X52031429Y-93446247D01*
X52031429Y-93446247D02*
X52126667Y-93493866D01*
X52126667Y-93493866D02*
X52317143Y-93493866D01*
X52317143Y-93493866D02*
X52412381Y-93446247D01*
X52412381Y-93446247D02*
X52460000Y-93398628D01*
X52460000Y-93398628D02*
X52507619Y-93303390D01*
X109126667Y-57407200D02*
X109269524Y-57454819D01*
X109269524Y-57454819D02*
X109507619Y-57454819D01*
X109507619Y-57454819D02*
X109602857Y-57407200D01*
X109602857Y-57407200D02*
X109650476Y-57359580D01*
X109650476Y-57359580D02*
X109698095Y-57264342D01*
X109698095Y-57264342D02*
X109698095Y-57169104D01*
X109698095Y-57169104D02*
X109650476Y-57073866D01*
X109650476Y-57073866D02*
X109602857Y-57026247D01*
X109602857Y-57026247D02*
X109507619Y-56978628D01*
X109507619Y-56978628D02*
X109317143Y-56931009D01*
X109317143Y-56931009D02*
X109221905Y-56883390D01*
X109221905Y-56883390D02*
X109174286Y-56835771D01*
X109174286Y-56835771D02*
X109126667Y-56740533D01*
X109126667Y-56740533D02*
X109126667Y-56645295D01*
X109126667Y-56645295D02*
X109174286Y-56550057D01*
X109174286Y-56550057D02*
X109221905Y-56502438D01*
X109221905Y-56502438D02*
X109317143Y-56454819D01*
X109317143Y-56454819D02*
X109555238Y-56454819D01*
X109555238Y-56454819D02*
X109698095Y-56502438D01*
X110031429Y-56454819D02*
X110269524Y-57454819D01*
X110269524Y-57454819D02*
X110460000Y-56740533D01*
X110460000Y-56740533D02*
X110650476Y-57454819D01*
X110650476Y-57454819D02*
X110888572Y-56454819D01*
X111745714Y-56454819D02*
X111269524Y-56454819D01*
X111269524Y-56454819D02*
X111221905Y-56931009D01*
X111221905Y-56931009D02*
X111269524Y-56883390D01*
X111269524Y-56883390D02*
X111364762Y-56835771D01*
X111364762Y-56835771D02*
X111602857Y-56835771D01*
X111602857Y-56835771D02*
X111698095Y-56883390D01*
X111698095Y-56883390D02*
X111745714Y-56931009D01*
X111745714Y-56931009D02*
X111793333Y-57026247D01*
X111793333Y-57026247D02*
X111793333Y-57264342D01*
X111793333Y-57264342D02*
X111745714Y-57359580D01*
X111745714Y-57359580D02*
X111698095Y-57407200D01*
X111698095Y-57407200D02*
X111602857Y-57454819D01*
X111602857Y-57454819D02*
X111364762Y-57454819D01*
X111364762Y-57454819D02*
X111269524Y-57407200D01*
X111269524Y-57407200D02*
X111221905Y-57359580D01*
X107531428Y-73954819D02*
X107531428Y-72954819D01*
X108102856Y-73954819D02*
X107674285Y-73383390D01*
X108102856Y-72954819D02*
X107531428Y-73526247D01*
X108531428Y-73431009D02*
X108864761Y-73431009D01*
X109007618Y-73954819D02*
X108531428Y-73954819D01*
X108531428Y-73954819D02*
X108531428Y-72954819D01*
X108531428Y-72954819D02*
X109007618Y-72954819D01*
X109626666Y-73478628D02*
X109626666Y-73954819D01*
X109293333Y-72954819D02*
X109626666Y-73478628D01*
X109626666Y-73478628D02*
X109959999Y-72954819D01*
X110055238Y-74050057D02*
X110817142Y-74050057D01*
X111626666Y-73859580D02*
X111579047Y-73907200D01*
X111579047Y-73907200D02*
X111436190Y-73954819D01*
X111436190Y-73954819D02*
X111340952Y-73954819D01*
X111340952Y-73954819D02*
X111198095Y-73907200D01*
X111198095Y-73907200D02*
X111102857Y-73811961D01*
X111102857Y-73811961D02*
X111055238Y-73716723D01*
X111055238Y-73716723D02*
X111007619Y-73526247D01*
X111007619Y-73526247D02*
X111007619Y-73383390D01*
X111007619Y-73383390D02*
X111055238Y-73192914D01*
X111055238Y-73192914D02*
X111102857Y-73097676D01*
X111102857Y-73097676D02*
X111198095Y-73002438D01*
X111198095Y-73002438D02*
X111340952Y-72954819D01*
X111340952Y-72954819D02*
X111436190Y-72954819D01*
X111436190Y-72954819D02*
X111579047Y-73002438D01*
X111579047Y-73002438D02*
X111626666Y-73050057D01*
X112531428Y-73954819D02*
X112055238Y-73954819D01*
X112055238Y-73954819D02*
X112055238Y-72954819D01*
X113436190Y-73954819D02*
X113102857Y-73478628D01*
X112864762Y-73954819D02*
X112864762Y-72954819D01*
X112864762Y-72954819D02*
X113245714Y-72954819D01*
X113245714Y-72954819D02*
X113340952Y-73002438D01*
X113340952Y-73002438D02*
X113388571Y-73050057D01*
X113388571Y-73050057D02*
X113436190Y-73145295D01*
X113436190Y-73145295D02*
X113436190Y-73288152D01*
X113436190Y-73288152D02*
X113388571Y-73383390D01*
X113388571Y-73383390D02*
X113340952Y-73431009D01*
X113340952Y-73431009D02*
X113245714Y-73478628D01*
X113245714Y-73478628D02*
X112864762Y-73478628D01*
X89126667Y-57407200D02*
X89269524Y-57454819D01*
X89269524Y-57454819D02*
X89507619Y-57454819D01*
X89507619Y-57454819D02*
X89602857Y-57407200D01*
X89602857Y-57407200D02*
X89650476Y-57359580D01*
X89650476Y-57359580D02*
X89698095Y-57264342D01*
X89698095Y-57264342D02*
X89698095Y-57169104D01*
X89698095Y-57169104D02*
X89650476Y-57073866D01*
X89650476Y-57073866D02*
X89602857Y-57026247D01*
X89602857Y-57026247D02*
X89507619Y-56978628D01*
X89507619Y-56978628D02*
X89317143Y-56931009D01*
X89317143Y-56931009D02*
X89221905Y-56883390D01*
X89221905Y-56883390D02*
X89174286Y-56835771D01*
X89174286Y-56835771D02*
X89126667Y-56740533D01*
X89126667Y-56740533D02*
X89126667Y-56645295D01*
X89126667Y-56645295D02*
X89174286Y-56550057D01*
X89174286Y-56550057D02*
X89221905Y-56502438D01*
X89221905Y-56502438D02*
X89317143Y-56454819D01*
X89317143Y-56454819D02*
X89555238Y-56454819D01*
X89555238Y-56454819D02*
X89698095Y-56502438D01*
X90031429Y-56454819D02*
X90269524Y-57454819D01*
X90269524Y-57454819D02*
X90460000Y-56740533D01*
X90460000Y-56740533D02*
X90650476Y-57454819D01*
X90650476Y-57454819D02*
X90888572Y-56454819D01*
X91698095Y-56788152D02*
X91698095Y-57454819D01*
X91460000Y-56407200D02*
X91221905Y-57121485D01*
X91221905Y-57121485D02*
X91840952Y-57121485D01*
X88507619Y-73954819D02*
X88507619Y-72954819D01*
X89079047Y-73954819D02*
X88650476Y-73383390D01*
X89079047Y-72954819D02*
X88507619Y-73526247D01*
X89507619Y-73431009D02*
X89840952Y-73431009D01*
X89983809Y-73954819D02*
X89507619Y-73954819D01*
X89507619Y-73954819D02*
X89507619Y-72954819D01*
X89507619Y-72954819D02*
X89983809Y-72954819D01*
X90602857Y-73478628D02*
X90602857Y-73954819D01*
X90269524Y-72954819D02*
X90602857Y-73478628D01*
X90602857Y-73478628D02*
X90936190Y-72954819D01*
X91031429Y-74050057D02*
X91793333Y-74050057D01*
X92364762Y-73431009D02*
X92031429Y-73431009D01*
X92031429Y-73954819D02*
X92031429Y-72954819D01*
X92031429Y-72954819D02*
X92507619Y-72954819D01*
X68690476Y-117407200D02*
X68833333Y-117454819D01*
X68833333Y-117454819D02*
X69071428Y-117454819D01*
X69071428Y-117454819D02*
X69166666Y-117407200D01*
X69166666Y-117407200D02*
X69214285Y-117359580D01*
X69214285Y-117359580D02*
X69261904Y-117264342D01*
X69261904Y-117264342D02*
X69261904Y-117169104D01*
X69261904Y-117169104D02*
X69214285Y-117073866D01*
X69214285Y-117073866D02*
X69166666Y-117026247D01*
X69166666Y-117026247D02*
X69071428Y-116978628D01*
X69071428Y-116978628D02*
X68880952Y-116931009D01*
X68880952Y-116931009D02*
X68785714Y-116883390D01*
X68785714Y-116883390D02*
X68738095Y-116835771D01*
X68738095Y-116835771D02*
X68690476Y-116740533D01*
X68690476Y-116740533D02*
X68690476Y-116645295D01*
X68690476Y-116645295D02*
X68738095Y-116550057D01*
X68738095Y-116550057D02*
X68785714Y-116502438D01*
X68785714Y-116502438D02*
X68880952Y-116454819D01*
X68880952Y-116454819D02*
X69119047Y-116454819D01*
X69119047Y-116454819D02*
X69261904Y-116502438D01*
X69595238Y-116454819D02*
X69833333Y-117454819D01*
X69833333Y-117454819D02*
X70023809Y-116740533D01*
X70023809Y-116740533D02*
X70214285Y-117454819D01*
X70214285Y-117454819D02*
X70452381Y-116454819D01*
X70785714Y-116550057D02*
X70833333Y-116502438D01*
X70833333Y-116502438D02*
X70928571Y-116454819D01*
X70928571Y-116454819D02*
X71166666Y-116454819D01*
X71166666Y-116454819D02*
X71261904Y-116502438D01*
X71261904Y-116502438D02*
X71309523Y-116550057D01*
X71309523Y-116550057D02*
X71357142Y-116645295D01*
X71357142Y-116645295D02*
X71357142Y-116740533D01*
X71357142Y-116740533D02*
X71309523Y-116883390D01*
X71309523Y-116883390D02*
X70738095Y-117454819D01*
X70738095Y-117454819D02*
X71357142Y-117454819D01*
X72309523Y-117454819D02*
X71738095Y-117454819D01*
X72023809Y-117454819D02*
X72023809Y-116454819D01*
X72023809Y-116454819D02*
X71928571Y-116597676D01*
X71928571Y-116597676D02*
X71833333Y-116692914D01*
X71833333Y-116692914D02*
X71738095Y-116740533D01*
X68460000Y-133954819D02*
X68460000Y-132954819D01*
X69031428Y-133954819D02*
X68602857Y-133383390D01*
X69031428Y-132954819D02*
X68460000Y-133526247D01*
X69460000Y-133431009D02*
X69793333Y-133431009D01*
X69936190Y-133954819D02*
X69460000Y-133954819D01*
X69460000Y-133954819D02*
X69460000Y-132954819D01*
X69460000Y-132954819D02*
X69936190Y-132954819D01*
X70555238Y-133478628D02*
X70555238Y-133954819D01*
X70221905Y-132954819D02*
X70555238Y-133478628D01*
X70555238Y-133478628D02*
X70888571Y-132954819D01*
X70983810Y-134050057D02*
X71745714Y-134050057D01*
X71936191Y-133050057D02*
X71983810Y-133002438D01*
X71983810Y-133002438D02*
X72079048Y-132954819D01*
X72079048Y-132954819D02*
X72317143Y-132954819D01*
X72317143Y-132954819D02*
X72412381Y-133002438D01*
X72412381Y-133002438D02*
X72460000Y-133050057D01*
X72460000Y-133050057D02*
X72507619Y-133145295D01*
X72507619Y-133145295D02*
X72507619Y-133240533D01*
X72507619Y-133240533D02*
X72460000Y-133383390D01*
X72460000Y-133383390D02*
X71888572Y-133954819D01*
X71888572Y-133954819D02*
X72507619Y-133954819D01*
X108650476Y-97407200D02*
X108793333Y-97454819D01*
X108793333Y-97454819D02*
X109031428Y-97454819D01*
X109031428Y-97454819D02*
X109126666Y-97407200D01*
X109126666Y-97407200D02*
X109174285Y-97359580D01*
X109174285Y-97359580D02*
X109221904Y-97264342D01*
X109221904Y-97264342D02*
X109221904Y-97169104D01*
X109221904Y-97169104D02*
X109174285Y-97073866D01*
X109174285Y-97073866D02*
X109126666Y-97026247D01*
X109126666Y-97026247D02*
X109031428Y-96978628D01*
X109031428Y-96978628D02*
X108840952Y-96931009D01*
X108840952Y-96931009D02*
X108745714Y-96883390D01*
X108745714Y-96883390D02*
X108698095Y-96835771D01*
X108698095Y-96835771D02*
X108650476Y-96740533D01*
X108650476Y-96740533D02*
X108650476Y-96645295D01*
X108650476Y-96645295D02*
X108698095Y-96550057D01*
X108698095Y-96550057D02*
X108745714Y-96502438D01*
X108745714Y-96502438D02*
X108840952Y-96454819D01*
X108840952Y-96454819D02*
X109079047Y-96454819D01*
X109079047Y-96454819D02*
X109221904Y-96502438D01*
X109555238Y-96454819D02*
X109793333Y-97454819D01*
X109793333Y-97454819D02*
X109983809Y-96740533D01*
X109983809Y-96740533D02*
X110174285Y-97454819D01*
X110174285Y-97454819D02*
X110412381Y-96454819D01*
X111317142Y-97454819D02*
X110745714Y-97454819D01*
X111031428Y-97454819D02*
X111031428Y-96454819D01*
X111031428Y-96454819D02*
X110936190Y-96597676D01*
X110936190Y-96597676D02*
X110840952Y-96692914D01*
X110840952Y-96692914D02*
X110745714Y-96740533D01*
X111650476Y-96454819D02*
X112317142Y-96454819D01*
X112317142Y-96454819D02*
X111888571Y-97454819D01*
X107055238Y-113954819D02*
X107055238Y-112954819D01*
X107626666Y-113954819D02*
X107198095Y-113383390D01*
X107626666Y-112954819D02*
X107055238Y-113526247D01*
X108055238Y-113431009D02*
X108388571Y-113431009D01*
X108531428Y-113954819D02*
X108055238Y-113954819D01*
X108055238Y-113954819D02*
X108055238Y-112954819D01*
X108055238Y-112954819D02*
X108531428Y-112954819D01*
X109150476Y-113478628D02*
X109150476Y-113954819D01*
X108817143Y-112954819D02*
X109150476Y-113478628D01*
X109150476Y-113478628D02*
X109483809Y-112954819D01*
X109579048Y-114050057D02*
X110340952Y-114050057D01*
X110531429Y-113907200D02*
X110674286Y-113954819D01*
X110674286Y-113954819D02*
X110912381Y-113954819D01*
X110912381Y-113954819D02*
X111007619Y-113907200D01*
X111007619Y-113907200D02*
X111055238Y-113859580D01*
X111055238Y-113859580D02*
X111102857Y-113764342D01*
X111102857Y-113764342D02*
X111102857Y-113669104D01*
X111102857Y-113669104D02*
X111055238Y-113573866D01*
X111055238Y-113573866D02*
X111007619Y-113526247D01*
X111007619Y-113526247D02*
X110912381Y-113478628D01*
X110912381Y-113478628D02*
X110721905Y-113431009D01*
X110721905Y-113431009D02*
X110626667Y-113383390D01*
X110626667Y-113383390D02*
X110579048Y-113335771D01*
X110579048Y-113335771D02*
X110531429Y-113240533D01*
X110531429Y-113240533D02*
X110531429Y-113145295D01*
X110531429Y-113145295D02*
X110579048Y-113050057D01*
X110579048Y-113050057D02*
X110626667Y-113002438D01*
X110626667Y-113002438D02*
X110721905Y-112954819D01*
X110721905Y-112954819D02*
X110960000Y-112954819D01*
X110960000Y-112954819D02*
X111102857Y-113002438D01*
X111388572Y-112954819D02*
X111960000Y-112954819D01*
X111674286Y-113954819D02*
X111674286Y-112954819D01*
X112483810Y-112954819D02*
X112674286Y-112954819D01*
X112674286Y-112954819D02*
X112769524Y-113002438D01*
X112769524Y-113002438D02*
X112864762Y-113097676D01*
X112864762Y-113097676D02*
X112912381Y-113288152D01*
X112912381Y-113288152D02*
X112912381Y-113621485D01*
X112912381Y-113621485D02*
X112864762Y-113811961D01*
X112864762Y-113811961D02*
X112769524Y-113907200D01*
X112769524Y-113907200D02*
X112674286Y-113954819D01*
X112674286Y-113954819D02*
X112483810Y-113954819D01*
X112483810Y-113954819D02*
X112388572Y-113907200D01*
X112388572Y-113907200D02*
X112293334Y-113811961D01*
X112293334Y-113811961D02*
X112245715Y-113621485D01*
X112245715Y-113621485D02*
X112245715Y-113288152D01*
X112245715Y-113288152D02*
X112293334Y-113097676D01*
X112293334Y-113097676D02*
X112388572Y-113002438D01*
X112388572Y-113002438D02*
X112483810Y-112954819D01*
X113912381Y-113954819D02*
X113579048Y-113478628D01*
X113340953Y-113954819D02*
X113340953Y-112954819D01*
X113340953Y-112954819D02*
X113721905Y-112954819D01*
X113721905Y-112954819D02*
X113817143Y-113002438D01*
X113817143Y-113002438D02*
X113864762Y-113050057D01*
X113864762Y-113050057D02*
X113912381Y-113145295D01*
X113912381Y-113145295D02*
X113912381Y-113288152D01*
X113912381Y-113288152D02*
X113864762Y-113383390D01*
X113864762Y-113383390D02*
X113817143Y-113431009D01*
X113817143Y-113431009D02*
X113721905Y-113478628D01*
X113721905Y-113478628D02*
X113340953Y-113478628D01*
X108650476Y-77157200D02*
X108793333Y-77204819D01*
X108793333Y-77204819D02*
X109031428Y-77204819D01*
X109031428Y-77204819D02*
X109126666Y-77157200D01*
X109126666Y-77157200D02*
X109174285Y-77109580D01*
X109174285Y-77109580D02*
X109221904Y-77014342D01*
X109221904Y-77014342D02*
X109221904Y-76919104D01*
X109221904Y-76919104D02*
X109174285Y-76823866D01*
X109174285Y-76823866D02*
X109126666Y-76776247D01*
X109126666Y-76776247D02*
X109031428Y-76728628D01*
X109031428Y-76728628D02*
X108840952Y-76681009D01*
X108840952Y-76681009D02*
X108745714Y-76633390D01*
X108745714Y-76633390D02*
X108698095Y-76585771D01*
X108698095Y-76585771D02*
X108650476Y-76490533D01*
X108650476Y-76490533D02*
X108650476Y-76395295D01*
X108650476Y-76395295D02*
X108698095Y-76300057D01*
X108698095Y-76300057D02*
X108745714Y-76252438D01*
X108745714Y-76252438D02*
X108840952Y-76204819D01*
X108840952Y-76204819D02*
X109079047Y-76204819D01*
X109079047Y-76204819D02*
X109221904Y-76252438D01*
X109555238Y-76204819D02*
X109793333Y-77204819D01*
X109793333Y-77204819D02*
X109983809Y-76490533D01*
X109983809Y-76490533D02*
X110174285Y-77204819D01*
X110174285Y-77204819D02*
X110412381Y-76204819D01*
X111317142Y-77204819D02*
X110745714Y-77204819D01*
X111031428Y-77204819D02*
X111031428Y-76204819D01*
X111031428Y-76204819D02*
X110936190Y-76347676D01*
X110936190Y-76347676D02*
X110840952Y-76442914D01*
X110840952Y-76442914D02*
X110745714Y-76490533D01*
X112269523Y-77204819D02*
X111698095Y-77204819D01*
X111983809Y-77204819D02*
X111983809Y-76204819D01*
X111983809Y-76204819D02*
X111888571Y-76347676D01*
X111888571Y-76347676D02*
X111793333Y-76442914D01*
X111793333Y-76442914D02*
X111698095Y-76490533D01*
X107007619Y-93874819D02*
X107007619Y-92874819D01*
X107579047Y-93874819D02*
X107150476Y-93303390D01*
X107579047Y-92874819D02*
X107007619Y-93446247D01*
X108007619Y-93351009D02*
X108340952Y-93351009D01*
X108483809Y-93874819D02*
X108007619Y-93874819D01*
X108007619Y-93874819D02*
X108007619Y-92874819D01*
X108007619Y-92874819D02*
X108483809Y-92874819D01*
X109102857Y-93398628D02*
X109102857Y-93874819D01*
X108769524Y-92874819D02*
X109102857Y-93398628D01*
X109102857Y-93398628D02*
X109436190Y-92874819D01*
X109531429Y-93970057D02*
X110293333Y-93970057D01*
X110483810Y-93589104D02*
X110960000Y-93589104D01*
X110388572Y-93874819D02*
X110721905Y-92874819D01*
X110721905Y-92874819D02*
X111055238Y-93874819D01*
X111388572Y-93874819D02*
X111388572Y-92874819D01*
X111388572Y-92874819D02*
X111626667Y-92874819D01*
X111626667Y-92874819D02*
X111769524Y-92922438D01*
X111769524Y-92922438D02*
X111864762Y-93017676D01*
X111864762Y-93017676D02*
X111912381Y-93112914D01*
X111912381Y-93112914D02*
X111960000Y-93303390D01*
X111960000Y-93303390D02*
X111960000Y-93446247D01*
X111960000Y-93446247D02*
X111912381Y-93636723D01*
X111912381Y-93636723D02*
X111864762Y-93731961D01*
X111864762Y-93731961D02*
X111769524Y-93827200D01*
X111769524Y-93827200D02*
X111626667Y-93874819D01*
X111626667Y-93874819D02*
X111388572Y-93874819D01*
X112388572Y-93874819D02*
X112388572Y-92874819D01*
X112388572Y-92874819D02*
X112626667Y-92874819D01*
X112626667Y-92874819D02*
X112769524Y-92922438D01*
X112769524Y-92922438D02*
X112864762Y-93017676D01*
X112864762Y-93017676D02*
X112912381Y-93112914D01*
X112912381Y-93112914D02*
X112960000Y-93303390D01*
X112960000Y-93303390D02*
X112960000Y-93446247D01*
X112960000Y-93446247D02*
X112912381Y-93636723D01*
X112912381Y-93636723D02*
X112864762Y-93731961D01*
X112864762Y-93731961D02*
X112769524Y-93827200D01*
X112769524Y-93827200D02*
X112626667Y-93874819D01*
X112626667Y-93874819D02*
X112388572Y-93874819D01*
X113960000Y-93874819D02*
X113626667Y-93398628D01*
X113388572Y-93874819D02*
X113388572Y-92874819D01*
X113388572Y-92874819D02*
X113769524Y-92874819D01*
X113769524Y-92874819D02*
X113864762Y-92922438D01*
X113864762Y-92922438D02*
X113912381Y-92970057D01*
X113912381Y-92970057D02*
X113960000Y-93065295D01*
X113960000Y-93065295D02*
X113960000Y-93208152D01*
X113960000Y-93208152D02*
X113912381Y-93303390D01*
X113912381Y-93303390D02*
X113864762Y-93351009D01*
X113864762Y-93351009D02*
X113769524Y-93398628D01*
X113769524Y-93398628D02*
X113388572Y-93398628D01*
X69126667Y-77157200D02*
X69269524Y-77204819D01*
X69269524Y-77204819D02*
X69507619Y-77204819D01*
X69507619Y-77204819D02*
X69602857Y-77157200D01*
X69602857Y-77157200D02*
X69650476Y-77109580D01*
X69650476Y-77109580D02*
X69698095Y-77014342D01*
X69698095Y-77014342D02*
X69698095Y-76919104D01*
X69698095Y-76919104D02*
X69650476Y-76823866D01*
X69650476Y-76823866D02*
X69602857Y-76776247D01*
X69602857Y-76776247D02*
X69507619Y-76728628D01*
X69507619Y-76728628D02*
X69317143Y-76681009D01*
X69317143Y-76681009D02*
X69221905Y-76633390D01*
X69221905Y-76633390D02*
X69174286Y-76585771D01*
X69174286Y-76585771D02*
X69126667Y-76490533D01*
X69126667Y-76490533D02*
X69126667Y-76395295D01*
X69126667Y-76395295D02*
X69174286Y-76300057D01*
X69174286Y-76300057D02*
X69221905Y-76252438D01*
X69221905Y-76252438D02*
X69317143Y-76204819D01*
X69317143Y-76204819D02*
X69555238Y-76204819D01*
X69555238Y-76204819D02*
X69698095Y-76252438D01*
X70031429Y-76204819D02*
X70269524Y-77204819D01*
X70269524Y-77204819D02*
X70460000Y-76490533D01*
X70460000Y-76490533D02*
X70650476Y-77204819D01*
X70650476Y-77204819D02*
X70888572Y-76204819D01*
X71317143Y-77204819D02*
X71507619Y-77204819D01*
X71507619Y-77204819D02*
X71602857Y-77157200D01*
X71602857Y-77157200D02*
X71650476Y-77109580D01*
X71650476Y-77109580D02*
X71745714Y-76966723D01*
X71745714Y-76966723D02*
X71793333Y-76776247D01*
X71793333Y-76776247D02*
X71793333Y-76395295D01*
X71793333Y-76395295D02*
X71745714Y-76300057D01*
X71745714Y-76300057D02*
X71698095Y-76252438D01*
X71698095Y-76252438D02*
X71602857Y-76204819D01*
X71602857Y-76204819D02*
X71412381Y-76204819D01*
X71412381Y-76204819D02*
X71317143Y-76252438D01*
X71317143Y-76252438D02*
X71269524Y-76300057D01*
X71269524Y-76300057D02*
X71221905Y-76395295D01*
X71221905Y-76395295D02*
X71221905Y-76633390D01*
X71221905Y-76633390D02*
X71269524Y-76728628D01*
X71269524Y-76728628D02*
X71317143Y-76776247D01*
X71317143Y-76776247D02*
X71412381Y-76823866D01*
X71412381Y-76823866D02*
X71602857Y-76823866D01*
X71602857Y-76823866D02*
X71698095Y-76776247D01*
X71698095Y-76776247D02*
X71745714Y-76728628D01*
X71745714Y-76728628D02*
X71793333Y-76633390D01*
X68507619Y-93874819D02*
X68507619Y-92874819D01*
X69079047Y-93874819D02*
X68650476Y-93303390D01*
X69079047Y-92874819D02*
X68507619Y-93446247D01*
X69507619Y-93351009D02*
X69840952Y-93351009D01*
X69983809Y-93874819D02*
X69507619Y-93874819D01*
X69507619Y-93874819D02*
X69507619Y-92874819D01*
X69507619Y-92874819D02*
X69983809Y-92874819D01*
X70602857Y-93398628D02*
X70602857Y-93874819D01*
X70269524Y-92874819D02*
X70602857Y-93398628D01*
X70602857Y-93398628D02*
X70936190Y-92874819D01*
X71031429Y-93970057D02*
X71793333Y-93970057D01*
X71983810Y-93589104D02*
X72460000Y-93589104D01*
X71888572Y-93874819D02*
X72221905Y-92874819D01*
X72221905Y-92874819D02*
X72555238Y-93874819D01*
X49126667Y-57407200D02*
X49269524Y-57454819D01*
X49269524Y-57454819D02*
X49507619Y-57454819D01*
X49507619Y-57454819D02*
X49602857Y-57407200D01*
X49602857Y-57407200D02*
X49650476Y-57359580D01*
X49650476Y-57359580D02*
X49698095Y-57264342D01*
X49698095Y-57264342D02*
X49698095Y-57169104D01*
X49698095Y-57169104D02*
X49650476Y-57073866D01*
X49650476Y-57073866D02*
X49602857Y-57026247D01*
X49602857Y-57026247D02*
X49507619Y-56978628D01*
X49507619Y-56978628D02*
X49317143Y-56931009D01*
X49317143Y-56931009D02*
X49221905Y-56883390D01*
X49221905Y-56883390D02*
X49174286Y-56835771D01*
X49174286Y-56835771D02*
X49126667Y-56740533D01*
X49126667Y-56740533D02*
X49126667Y-56645295D01*
X49126667Y-56645295D02*
X49174286Y-56550057D01*
X49174286Y-56550057D02*
X49221905Y-56502438D01*
X49221905Y-56502438D02*
X49317143Y-56454819D01*
X49317143Y-56454819D02*
X49555238Y-56454819D01*
X49555238Y-56454819D02*
X49698095Y-56502438D01*
X50031429Y-56454819D02*
X50269524Y-57454819D01*
X50269524Y-57454819D02*
X50460000Y-56740533D01*
X50460000Y-56740533D02*
X50650476Y-57454819D01*
X50650476Y-57454819D02*
X50888572Y-56454819D01*
X51221905Y-56550057D02*
X51269524Y-56502438D01*
X51269524Y-56502438D02*
X51364762Y-56454819D01*
X51364762Y-56454819D02*
X51602857Y-56454819D01*
X51602857Y-56454819D02*
X51698095Y-56502438D01*
X51698095Y-56502438D02*
X51745714Y-56550057D01*
X51745714Y-56550057D02*
X51793333Y-56645295D01*
X51793333Y-56645295D02*
X51793333Y-56740533D01*
X51793333Y-56740533D02*
X51745714Y-56883390D01*
X51745714Y-56883390D02*
X51174286Y-57454819D01*
X51174286Y-57454819D02*
X51793333Y-57454819D01*
X48436190Y-73954819D02*
X48436190Y-72954819D01*
X49007618Y-73954819D02*
X48579047Y-73383390D01*
X49007618Y-72954819D02*
X48436190Y-73526247D01*
X49436190Y-73431009D02*
X49769523Y-73431009D01*
X49912380Y-73954819D02*
X49436190Y-73954819D01*
X49436190Y-73954819D02*
X49436190Y-72954819D01*
X49436190Y-72954819D02*
X49912380Y-72954819D01*
X50531428Y-73478628D02*
X50531428Y-73954819D01*
X50198095Y-72954819D02*
X50531428Y-73478628D01*
X50531428Y-73478628D02*
X50864761Y-72954819D01*
X50960000Y-74050057D02*
X51721904Y-74050057D01*
X51960000Y-73954819D02*
X51960000Y-72954819D01*
X51960000Y-72954819D02*
X52198095Y-72954819D01*
X52198095Y-72954819D02*
X52340952Y-73002438D01*
X52340952Y-73002438D02*
X52436190Y-73097676D01*
X52436190Y-73097676D02*
X52483809Y-73192914D01*
X52483809Y-73192914D02*
X52531428Y-73383390D01*
X52531428Y-73383390D02*
X52531428Y-73526247D01*
X52531428Y-73526247D02*
X52483809Y-73716723D01*
X52483809Y-73716723D02*
X52436190Y-73811961D01*
X52436190Y-73811961D02*
X52340952Y-73907200D01*
X52340952Y-73907200D02*
X52198095Y-73954819D01*
X52198095Y-73954819D02*
X51960000Y-73954819D01*
X108650476Y-117407200D02*
X108793333Y-117454819D01*
X108793333Y-117454819D02*
X109031428Y-117454819D01*
X109031428Y-117454819D02*
X109126666Y-117407200D01*
X109126666Y-117407200D02*
X109174285Y-117359580D01*
X109174285Y-117359580D02*
X109221904Y-117264342D01*
X109221904Y-117264342D02*
X109221904Y-117169104D01*
X109221904Y-117169104D02*
X109174285Y-117073866D01*
X109174285Y-117073866D02*
X109126666Y-117026247D01*
X109126666Y-117026247D02*
X109031428Y-116978628D01*
X109031428Y-116978628D02*
X108840952Y-116931009D01*
X108840952Y-116931009D02*
X108745714Y-116883390D01*
X108745714Y-116883390D02*
X108698095Y-116835771D01*
X108698095Y-116835771D02*
X108650476Y-116740533D01*
X108650476Y-116740533D02*
X108650476Y-116645295D01*
X108650476Y-116645295D02*
X108698095Y-116550057D01*
X108698095Y-116550057D02*
X108745714Y-116502438D01*
X108745714Y-116502438D02*
X108840952Y-116454819D01*
X108840952Y-116454819D02*
X109079047Y-116454819D01*
X109079047Y-116454819D02*
X109221904Y-116502438D01*
X109555238Y-116454819D02*
X109793333Y-117454819D01*
X109793333Y-117454819D02*
X109983809Y-116740533D01*
X109983809Y-116740533D02*
X110174285Y-117454819D01*
X110174285Y-117454819D02*
X110412381Y-116454819D01*
X110745714Y-116550057D02*
X110793333Y-116502438D01*
X110793333Y-116502438D02*
X110888571Y-116454819D01*
X110888571Y-116454819D02*
X111126666Y-116454819D01*
X111126666Y-116454819D02*
X111221904Y-116502438D01*
X111221904Y-116502438D02*
X111269523Y-116550057D01*
X111269523Y-116550057D02*
X111317142Y-116645295D01*
X111317142Y-116645295D02*
X111317142Y-116740533D01*
X111317142Y-116740533D02*
X111269523Y-116883390D01*
X111269523Y-116883390D02*
X110698095Y-117454819D01*
X110698095Y-117454819D02*
X111317142Y-117454819D01*
X111650476Y-116454819D02*
X112269523Y-116454819D01*
X112269523Y-116454819D02*
X111936190Y-116835771D01*
X111936190Y-116835771D02*
X112079047Y-116835771D01*
X112079047Y-116835771D02*
X112174285Y-116883390D01*
X112174285Y-116883390D02*
X112221904Y-116931009D01*
X112221904Y-116931009D02*
X112269523Y-117026247D01*
X112269523Y-117026247D02*
X112269523Y-117264342D01*
X112269523Y-117264342D02*
X112221904Y-117359580D01*
X112221904Y-117359580D02*
X112174285Y-117407200D01*
X112174285Y-117407200D02*
X112079047Y-117454819D01*
X112079047Y-117454819D02*
X111793333Y-117454819D01*
X111793333Y-117454819D02*
X111698095Y-117407200D01*
X111698095Y-117407200D02*
X111650476Y-117359580D01*
X107079047Y-133954819D02*
X107079047Y-132954819D01*
X107650475Y-133954819D02*
X107221904Y-133383390D01*
X107650475Y-132954819D02*
X107079047Y-133526247D01*
X108079047Y-133431009D02*
X108412380Y-133431009D01*
X108555237Y-133954819D02*
X108079047Y-133954819D01*
X108079047Y-133954819D02*
X108079047Y-132954819D01*
X108079047Y-132954819D02*
X108555237Y-132954819D01*
X109174285Y-133478628D02*
X109174285Y-133954819D01*
X108840952Y-132954819D02*
X109174285Y-133478628D01*
X109174285Y-133478628D02*
X109507618Y-132954819D01*
X109602857Y-134050057D02*
X110364761Y-134050057D01*
X111079047Y-133954819D02*
X110602857Y-133954819D01*
X110602857Y-133954819D02*
X110602857Y-132954819D01*
X111602857Y-132954819D02*
X111793333Y-132954819D01*
X111793333Y-132954819D02*
X111888571Y-133002438D01*
X111888571Y-133002438D02*
X111983809Y-133097676D01*
X111983809Y-133097676D02*
X112031428Y-133288152D01*
X112031428Y-133288152D02*
X112031428Y-133621485D01*
X112031428Y-133621485D02*
X111983809Y-133811961D01*
X111983809Y-133811961D02*
X111888571Y-133907200D01*
X111888571Y-133907200D02*
X111793333Y-133954819D01*
X111793333Y-133954819D02*
X111602857Y-133954819D01*
X111602857Y-133954819D02*
X111507619Y-133907200D01*
X111507619Y-133907200D02*
X111412381Y-133811961D01*
X111412381Y-133811961D02*
X111364762Y-133621485D01*
X111364762Y-133621485D02*
X111364762Y-133288152D01*
X111364762Y-133288152D02*
X111412381Y-133097676D01*
X111412381Y-133097676D02*
X111507619Y-133002438D01*
X111507619Y-133002438D02*
X111602857Y-132954819D01*
X112412381Y-133669104D02*
X112888571Y-133669104D01*
X112317143Y-133954819D02*
X112650476Y-132954819D01*
X112650476Y-132954819D02*
X112983809Y-133954819D01*
X113317143Y-133954819D02*
X113317143Y-132954819D01*
X113317143Y-132954819D02*
X113555238Y-132954819D01*
X113555238Y-132954819D02*
X113698095Y-133002438D01*
X113698095Y-133002438D02*
X113793333Y-133097676D01*
X113793333Y-133097676D02*
X113840952Y-133192914D01*
X113840952Y-133192914D02*
X113888571Y-133383390D01*
X113888571Y-133383390D02*
X113888571Y-133526247D01*
X113888571Y-133526247D02*
X113840952Y-133716723D01*
X113840952Y-133716723D02*
X113793333Y-133811961D01*
X113793333Y-133811961D02*
X113698095Y-133907200D01*
X113698095Y-133907200D02*
X113555238Y-133954819D01*
X113555238Y-133954819D02*
X113317143Y-133954819D01*
X88650476Y-117407200D02*
X88793333Y-117454819D01*
X88793333Y-117454819D02*
X89031428Y-117454819D01*
X89031428Y-117454819D02*
X89126666Y-117407200D01*
X89126666Y-117407200D02*
X89174285Y-117359580D01*
X89174285Y-117359580D02*
X89221904Y-117264342D01*
X89221904Y-117264342D02*
X89221904Y-117169104D01*
X89221904Y-117169104D02*
X89174285Y-117073866D01*
X89174285Y-117073866D02*
X89126666Y-117026247D01*
X89126666Y-117026247D02*
X89031428Y-116978628D01*
X89031428Y-116978628D02*
X88840952Y-116931009D01*
X88840952Y-116931009D02*
X88745714Y-116883390D01*
X88745714Y-116883390D02*
X88698095Y-116835771D01*
X88698095Y-116835771D02*
X88650476Y-116740533D01*
X88650476Y-116740533D02*
X88650476Y-116645295D01*
X88650476Y-116645295D02*
X88698095Y-116550057D01*
X88698095Y-116550057D02*
X88745714Y-116502438D01*
X88745714Y-116502438D02*
X88840952Y-116454819D01*
X88840952Y-116454819D02*
X89079047Y-116454819D01*
X89079047Y-116454819D02*
X89221904Y-116502438D01*
X89555238Y-116454819D02*
X89793333Y-117454819D01*
X89793333Y-117454819D02*
X89983809Y-116740533D01*
X89983809Y-116740533D02*
X90174285Y-117454819D01*
X90174285Y-117454819D02*
X90412381Y-116454819D01*
X90745714Y-116550057D02*
X90793333Y-116502438D01*
X90793333Y-116502438D02*
X90888571Y-116454819D01*
X90888571Y-116454819D02*
X91126666Y-116454819D01*
X91126666Y-116454819D02*
X91221904Y-116502438D01*
X91221904Y-116502438D02*
X91269523Y-116550057D01*
X91269523Y-116550057D02*
X91317142Y-116645295D01*
X91317142Y-116645295D02*
X91317142Y-116740533D01*
X91317142Y-116740533D02*
X91269523Y-116883390D01*
X91269523Y-116883390D02*
X90698095Y-117454819D01*
X90698095Y-117454819D02*
X91317142Y-117454819D01*
X91698095Y-116550057D02*
X91745714Y-116502438D01*
X91745714Y-116502438D02*
X91840952Y-116454819D01*
X91840952Y-116454819D02*
X92079047Y-116454819D01*
X92079047Y-116454819D02*
X92174285Y-116502438D01*
X92174285Y-116502438D02*
X92221904Y-116550057D01*
X92221904Y-116550057D02*
X92269523Y-116645295D01*
X92269523Y-116645295D02*
X92269523Y-116740533D01*
X92269523Y-116740533D02*
X92221904Y-116883390D01*
X92221904Y-116883390D02*
X91650476Y-117454819D01*
X91650476Y-117454819D02*
X92269523Y-117454819D01*
X88460000Y-133954819D02*
X88460000Y-132954819D01*
X89031428Y-133954819D02*
X88602857Y-133383390D01*
X89031428Y-132954819D02*
X88460000Y-133526247D01*
X89460000Y-133431009D02*
X89793333Y-133431009D01*
X89936190Y-133954819D02*
X89460000Y-133954819D01*
X89460000Y-133954819D02*
X89460000Y-132954819D01*
X89460000Y-132954819D02*
X89936190Y-132954819D01*
X90555238Y-133478628D02*
X90555238Y-133954819D01*
X90221905Y-132954819D02*
X90555238Y-133478628D01*
X90555238Y-133478628D02*
X90888571Y-132954819D01*
X90983810Y-134050057D02*
X91745714Y-134050057D01*
X91888572Y-132954819D02*
X92507619Y-132954819D01*
X92507619Y-132954819D02*
X92174286Y-133335771D01*
X92174286Y-133335771D02*
X92317143Y-133335771D01*
X92317143Y-133335771D02*
X92412381Y-133383390D01*
X92412381Y-133383390D02*
X92460000Y-133431009D01*
X92460000Y-133431009D02*
X92507619Y-133526247D01*
X92507619Y-133526247D02*
X92507619Y-133764342D01*
X92507619Y-133764342D02*
X92460000Y-133859580D01*
X92460000Y-133859580D02*
X92412381Y-133907200D01*
X92412381Y-133907200D02*
X92317143Y-133954819D01*
X92317143Y-133954819D02*
X92031429Y-133954819D01*
X92031429Y-133954819D02*
X91936191Y-133907200D01*
X91936191Y-133907200D02*
X91888572Y-133859580D01*
X88690476Y-77157200D02*
X88833333Y-77204819D01*
X88833333Y-77204819D02*
X89071428Y-77204819D01*
X89071428Y-77204819D02*
X89166666Y-77157200D01*
X89166666Y-77157200D02*
X89214285Y-77109580D01*
X89214285Y-77109580D02*
X89261904Y-77014342D01*
X89261904Y-77014342D02*
X89261904Y-76919104D01*
X89261904Y-76919104D02*
X89214285Y-76823866D01*
X89214285Y-76823866D02*
X89166666Y-76776247D01*
X89166666Y-76776247D02*
X89071428Y-76728628D01*
X89071428Y-76728628D02*
X88880952Y-76681009D01*
X88880952Y-76681009D02*
X88785714Y-76633390D01*
X88785714Y-76633390D02*
X88738095Y-76585771D01*
X88738095Y-76585771D02*
X88690476Y-76490533D01*
X88690476Y-76490533D02*
X88690476Y-76395295D01*
X88690476Y-76395295D02*
X88738095Y-76300057D01*
X88738095Y-76300057D02*
X88785714Y-76252438D01*
X88785714Y-76252438D02*
X88880952Y-76204819D01*
X88880952Y-76204819D02*
X89119047Y-76204819D01*
X89119047Y-76204819D02*
X89261904Y-76252438D01*
X89595238Y-76204819D02*
X89833333Y-77204819D01*
X89833333Y-77204819D02*
X90023809Y-76490533D01*
X90023809Y-76490533D02*
X90214285Y-77204819D01*
X90214285Y-77204819D02*
X90452381Y-76204819D01*
X91357142Y-77204819D02*
X90785714Y-77204819D01*
X91071428Y-77204819D02*
X91071428Y-76204819D01*
X91071428Y-76204819D02*
X90976190Y-76347676D01*
X90976190Y-76347676D02*
X90880952Y-76442914D01*
X90880952Y-76442914D02*
X90785714Y-76490533D01*
X91976190Y-76204819D02*
X92071428Y-76204819D01*
X92071428Y-76204819D02*
X92166666Y-76252438D01*
X92166666Y-76252438D02*
X92214285Y-76300057D01*
X92214285Y-76300057D02*
X92261904Y-76395295D01*
X92261904Y-76395295D02*
X92309523Y-76585771D01*
X92309523Y-76585771D02*
X92309523Y-76823866D01*
X92309523Y-76823866D02*
X92261904Y-77014342D01*
X92261904Y-77014342D02*
X92214285Y-77109580D01*
X92214285Y-77109580D02*
X92166666Y-77157200D01*
X92166666Y-77157200D02*
X92071428Y-77204819D01*
X92071428Y-77204819D02*
X91976190Y-77204819D01*
X91976190Y-77204819D02*
X91880952Y-77157200D01*
X91880952Y-77157200D02*
X91833333Y-77109580D01*
X91833333Y-77109580D02*
X91785714Y-77014342D01*
X91785714Y-77014342D02*
X91738095Y-76823866D01*
X91738095Y-76823866D02*
X91738095Y-76585771D01*
X91738095Y-76585771D02*
X91785714Y-76395295D01*
X91785714Y-76395295D02*
X91833333Y-76300057D01*
X91833333Y-76300057D02*
X91880952Y-76252438D01*
X91880952Y-76252438D02*
X91976190Y-76204819D01*
X88436190Y-93874819D02*
X88436190Y-92874819D01*
X89007618Y-93874819D02*
X88579047Y-93303390D01*
X89007618Y-92874819D02*
X88436190Y-93446247D01*
X89436190Y-93351009D02*
X89769523Y-93351009D01*
X89912380Y-93874819D02*
X89436190Y-93874819D01*
X89436190Y-93874819D02*
X89436190Y-92874819D01*
X89436190Y-92874819D02*
X89912380Y-92874819D01*
X90531428Y-93398628D02*
X90531428Y-93874819D01*
X90198095Y-92874819D02*
X90531428Y-93398628D01*
X90531428Y-93398628D02*
X90864761Y-92874819D01*
X90960000Y-93970057D02*
X91721904Y-93970057D01*
X92293333Y-93351009D02*
X92436190Y-93398628D01*
X92436190Y-93398628D02*
X92483809Y-93446247D01*
X92483809Y-93446247D02*
X92531428Y-93541485D01*
X92531428Y-93541485D02*
X92531428Y-93684342D01*
X92531428Y-93684342D02*
X92483809Y-93779580D01*
X92483809Y-93779580D02*
X92436190Y-93827200D01*
X92436190Y-93827200D02*
X92340952Y-93874819D01*
X92340952Y-93874819D02*
X91960000Y-93874819D01*
X91960000Y-93874819D02*
X91960000Y-92874819D01*
X91960000Y-92874819D02*
X92293333Y-92874819D01*
X92293333Y-92874819D02*
X92388571Y-92922438D01*
X92388571Y-92922438D02*
X92436190Y-92970057D01*
X92436190Y-92970057D02*
X92483809Y-93065295D01*
X92483809Y-93065295D02*
X92483809Y-93160533D01*
X92483809Y-93160533D02*
X92436190Y-93255771D01*
X92436190Y-93255771D02*
X92388571Y-93303390D01*
X92388571Y-93303390D02*
X92293333Y-93351009D01*
X92293333Y-93351009D02*
X91960000Y-93351009D01*
X48650476Y-117407200D02*
X48793333Y-117454819D01*
X48793333Y-117454819D02*
X49031428Y-117454819D01*
X49031428Y-117454819D02*
X49126666Y-117407200D01*
X49126666Y-117407200D02*
X49174285Y-117359580D01*
X49174285Y-117359580D02*
X49221904Y-117264342D01*
X49221904Y-117264342D02*
X49221904Y-117169104D01*
X49221904Y-117169104D02*
X49174285Y-117073866D01*
X49174285Y-117073866D02*
X49126666Y-117026247D01*
X49126666Y-117026247D02*
X49031428Y-116978628D01*
X49031428Y-116978628D02*
X48840952Y-116931009D01*
X48840952Y-116931009D02*
X48745714Y-116883390D01*
X48745714Y-116883390D02*
X48698095Y-116835771D01*
X48698095Y-116835771D02*
X48650476Y-116740533D01*
X48650476Y-116740533D02*
X48650476Y-116645295D01*
X48650476Y-116645295D02*
X48698095Y-116550057D01*
X48698095Y-116550057D02*
X48745714Y-116502438D01*
X48745714Y-116502438D02*
X48840952Y-116454819D01*
X48840952Y-116454819D02*
X49079047Y-116454819D01*
X49079047Y-116454819D02*
X49221904Y-116502438D01*
X49555238Y-116454819D02*
X49793333Y-117454819D01*
X49793333Y-117454819D02*
X49983809Y-116740533D01*
X49983809Y-116740533D02*
X50174285Y-117454819D01*
X50174285Y-117454819D02*
X50412381Y-116454819D01*
X50745714Y-116550057D02*
X50793333Y-116502438D01*
X50793333Y-116502438D02*
X50888571Y-116454819D01*
X50888571Y-116454819D02*
X51126666Y-116454819D01*
X51126666Y-116454819D02*
X51221904Y-116502438D01*
X51221904Y-116502438D02*
X51269523Y-116550057D01*
X51269523Y-116550057D02*
X51317142Y-116645295D01*
X51317142Y-116645295D02*
X51317142Y-116740533D01*
X51317142Y-116740533D02*
X51269523Y-116883390D01*
X51269523Y-116883390D02*
X50698095Y-117454819D01*
X50698095Y-117454819D02*
X51317142Y-117454819D01*
X51936190Y-116454819D02*
X52031428Y-116454819D01*
X52031428Y-116454819D02*
X52126666Y-116502438D01*
X52126666Y-116502438D02*
X52174285Y-116550057D01*
X52174285Y-116550057D02*
X52221904Y-116645295D01*
X52221904Y-116645295D02*
X52269523Y-116835771D01*
X52269523Y-116835771D02*
X52269523Y-117073866D01*
X52269523Y-117073866D02*
X52221904Y-117264342D01*
X52221904Y-117264342D02*
X52174285Y-117359580D01*
X52174285Y-117359580D02*
X52126666Y-117407200D01*
X52126666Y-117407200D02*
X52031428Y-117454819D01*
X52031428Y-117454819D02*
X51936190Y-117454819D01*
X51936190Y-117454819D02*
X51840952Y-117407200D01*
X51840952Y-117407200D02*
X51793333Y-117359580D01*
X51793333Y-117359580D02*
X51745714Y-117264342D01*
X51745714Y-117264342D02*
X51698095Y-117073866D01*
X51698095Y-117073866D02*
X51698095Y-116835771D01*
X51698095Y-116835771D02*
X51745714Y-116645295D01*
X51745714Y-116645295D02*
X51793333Y-116550057D01*
X51793333Y-116550057D02*
X51840952Y-116502438D01*
X51840952Y-116502438D02*
X51936190Y-116454819D01*
X48460000Y-133954819D02*
X48460000Y-132954819D01*
X49031428Y-133954819D02*
X48602857Y-133383390D01*
X49031428Y-132954819D02*
X48460000Y-133526247D01*
X49460000Y-133431009D02*
X49793333Y-133431009D01*
X49936190Y-133954819D02*
X49460000Y-133954819D01*
X49460000Y-133954819D02*
X49460000Y-132954819D01*
X49460000Y-132954819D02*
X49936190Y-132954819D01*
X50555238Y-133478628D02*
X50555238Y-133954819D01*
X50221905Y-132954819D02*
X50555238Y-133478628D01*
X50555238Y-133478628D02*
X50888571Y-132954819D01*
X50983810Y-134050057D02*
X51745714Y-134050057D01*
X52507619Y-133954819D02*
X51936191Y-133954819D01*
X52221905Y-133954819D02*
X52221905Y-132954819D01*
X52221905Y-132954819D02*
X52126667Y-133097676D01*
X52126667Y-133097676D02*
X52031429Y-133192914D01*
X52031429Y-133192914D02*
X51936191Y-133240533D01*
X28650476Y-117407200D02*
X28793333Y-117454819D01*
X28793333Y-117454819D02*
X29031428Y-117454819D01*
X29031428Y-117454819D02*
X29126666Y-117407200D01*
X29126666Y-117407200D02*
X29174285Y-117359580D01*
X29174285Y-117359580D02*
X29221904Y-117264342D01*
X29221904Y-117264342D02*
X29221904Y-117169104D01*
X29221904Y-117169104D02*
X29174285Y-117073866D01*
X29174285Y-117073866D02*
X29126666Y-117026247D01*
X29126666Y-117026247D02*
X29031428Y-116978628D01*
X29031428Y-116978628D02*
X28840952Y-116931009D01*
X28840952Y-116931009D02*
X28745714Y-116883390D01*
X28745714Y-116883390D02*
X28698095Y-116835771D01*
X28698095Y-116835771D02*
X28650476Y-116740533D01*
X28650476Y-116740533D02*
X28650476Y-116645295D01*
X28650476Y-116645295D02*
X28698095Y-116550057D01*
X28698095Y-116550057D02*
X28745714Y-116502438D01*
X28745714Y-116502438D02*
X28840952Y-116454819D01*
X28840952Y-116454819D02*
X29079047Y-116454819D01*
X29079047Y-116454819D02*
X29221904Y-116502438D01*
X29555238Y-116454819D02*
X29793333Y-117454819D01*
X29793333Y-117454819D02*
X29983809Y-116740533D01*
X29983809Y-116740533D02*
X30174285Y-117454819D01*
X30174285Y-117454819D02*
X30412381Y-116454819D01*
X31317142Y-117454819D02*
X30745714Y-117454819D01*
X31031428Y-117454819D02*
X31031428Y-116454819D01*
X31031428Y-116454819D02*
X30936190Y-116597676D01*
X30936190Y-116597676D02*
X30840952Y-116692914D01*
X30840952Y-116692914D02*
X30745714Y-116740533D01*
X31793333Y-117454819D02*
X31983809Y-117454819D01*
X31983809Y-117454819D02*
X32079047Y-117407200D01*
X32079047Y-117407200D02*
X32126666Y-117359580D01*
X32126666Y-117359580D02*
X32221904Y-117216723D01*
X32221904Y-117216723D02*
X32269523Y-117026247D01*
X32269523Y-117026247D02*
X32269523Y-116645295D01*
X32269523Y-116645295D02*
X32221904Y-116550057D01*
X32221904Y-116550057D02*
X32174285Y-116502438D01*
X32174285Y-116502438D02*
X32079047Y-116454819D01*
X32079047Y-116454819D02*
X31888571Y-116454819D01*
X31888571Y-116454819D02*
X31793333Y-116502438D01*
X31793333Y-116502438D02*
X31745714Y-116550057D01*
X31745714Y-116550057D02*
X31698095Y-116645295D01*
X31698095Y-116645295D02*
X31698095Y-116883390D01*
X31698095Y-116883390D02*
X31745714Y-116978628D01*
X31745714Y-116978628D02*
X31793333Y-117026247D01*
X31793333Y-117026247D02*
X31888571Y-117073866D01*
X31888571Y-117073866D02*
X32079047Y-117073866D01*
X32079047Y-117073866D02*
X32174285Y-117026247D01*
X32174285Y-117026247D02*
X32221904Y-116978628D01*
X32221904Y-116978628D02*
X32269523Y-116883390D01*
X28460000Y-133954819D02*
X28460000Y-132954819D01*
X29031428Y-133954819D02*
X28602857Y-133383390D01*
X29031428Y-132954819D02*
X28460000Y-133526247D01*
X29460000Y-133431009D02*
X29793333Y-133431009D01*
X29936190Y-133954819D02*
X29460000Y-133954819D01*
X29460000Y-133954819D02*
X29460000Y-132954819D01*
X29460000Y-132954819D02*
X29936190Y-132954819D01*
X30555238Y-133478628D02*
X30555238Y-133954819D01*
X30221905Y-132954819D02*
X30555238Y-133478628D01*
X30555238Y-133478628D02*
X30888571Y-132954819D01*
X30983810Y-134050057D02*
X31745714Y-134050057D01*
X32174286Y-132954819D02*
X32269524Y-132954819D01*
X32269524Y-132954819D02*
X32364762Y-133002438D01*
X32364762Y-133002438D02*
X32412381Y-133050057D01*
X32412381Y-133050057D02*
X32460000Y-133145295D01*
X32460000Y-133145295D02*
X32507619Y-133335771D01*
X32507619Y-133335771D02*
X32507619Y-133573866D01*
X32507619Y-133573866D02*
X32460000Y-133764342D01*
X32460000Y-133764342D02*
X32412381Y-133859580D01*
X32412381Y-133859580D02*
X32364762Y-133907200D01*
X32364762Y-133907200D02*
X32269524Y-133954819D01*
X32269524Y-133954819D02*
X32174286Y-133954819D01*
X32174286Y-133954819D02*
X32079048Y-133907200D01*
X32079048Y-133907200D02*
X32031429Y-133859580D01*
X32031429Y-133859580D02*
X31983810Y-133764342D01*
X31983810Y-133764342D02*
X31936191Y-133573866D01*
X31936191Y-133573866D02*
X31936191Y-133335771D01*
X31936191Y-133335771D02*
X31983810Y-133145295D01*
X31983810Y-133145295D02*
X32031429Y-133050057D01*
X32031429Y-133050057D02*
X32079048Y-133002438D01*
X32079048Y-133002438D02*
X32174286Y-132954819D01*
X128650476Y-97407200D02*
X128793333Y-97454819D01*
X128793333Y-97454819D02*
X129031428Y-97454819D01*
X129031428Y-97454819D02*
X129126666Y-97407200D01*
X129126666Y-97407200D02*
X129174285Y-97359580D01*
X129174285Y-97359580D02*
X129221904Y-97264342D01*
X129221904Y-97264342D02*
X129221904Y-97169104D01*
X129221904Y-97169104D02*
X129174285Y-97073866D01*
X129174285Y-97073866D02*
X129126666Y-97026247D01*
X129126666Y-97026247D02*
X129031428Y-96978628D01*
X129031428Y-96978628D02*
X128840952Y-96931009D01*
X128840952Y-96931009D02*
X128745714Y-96883390D01*
X128745714Y-96883390D02*
X128698095Y-96835771D01*
X128698095Y-96835771D02*
X128650476Y-96740533D01*
X128650476Y-96740533D02*
X128650476Y-96645295D01*
X128650476Y-96645295D02*
X128698095Y-96550057D01*
X128698095Y-96550057D02*
X128745714Y-96502438D01*
X128745714Y-96502438D02*
X128840952Y-96454819D01*
X128840952Y-96454819D02*
X129079047Y-96454819D01*
X129079047Y-96454819D02*
X129221904Y-96502438D01*
X129555238Y-96454819D02*
X129793333Y-97454819D01*
X129793333Y-97454819D02*
X129983809Y-96740533D01*
X129983809Y-96740533D02*
X130174285Y-97454819D01*
X130174285Y-97454819D02*
X130412381Y-96454819D01*
X131317142Y-97454819D02*
X130745714Y-97454819D01*
X131031428Y-97454819D02*
X131031428Y-96454819D01*
X131031428Y-96454819D02*
X130936190Y-96597676D01*
X130936190Y-96597676D02*
X130840952Y-96692914D01*
X130840952Y-96692914D02*
X130745714Y-96740533D01*
X131888571Y-96883390D02*
X131793333Y-96835771D01*
X131793333Y-96835771D02*
X131745714Y-96788152D01*
X131745714Y-96788152D02*
X131698095Y-96692914D01*
X131698095Y-96692914D02*
X131698095Y-96645295D01*
X131698095Y-96645295D02*
X131745714Y-96550057D01*
X131745714Y-96550057D02*
X131793333Y-96502438D01*
X131793333Y-96502438D02*
X131888571Y-96454819D01*
X131888571Y-96454819D02*
X132079047Y-96454819D01*
X132079047Y-96454819D02*
X132174285Y-96502438D01*
X132174285Y-96502438D02*
X132221904Y-96550057D01*
X132221904Y-96550057D02*
X132269523Y-96645295D01*
X132269523Y-96645295D02*
X132269523Y-96692914D01*
X132269523Y-96692914D02*
X132221904Y-96788152D01*
X132221904Y-96788152D02*
X132174285Y-96835771D01*
X132174285Y-96835771D02*
X132079047Y-96883390D01*
X132079047Y-96883390D02*
X131888571Y-96883390D01*
X131888571Y-96883390D02*
X131793333Y-96931009D01*
X131793333Y-96931009D02*
X131745714Y-96978628D01*
X131745714Y-96978628D02*
X131698095Y-97073866D01*
X131698095Y-97073866D02*
X131698095Y-97264342D01*
X131698095Y-97264342D02*
X131745714Y-97359580D01*
X131745714Y-97359580D02*
X131793333Y-97407200D01*
X131793333Y-97407200D02*
X131888571Y-97454819D01*
X131888571Y-97454819D02*
X132079047Y-97454819D01*
X132079047Y-97454819D02*
X132174285Y-97407200D01*
X132174285Y-97407200D02*
X132221904Y-97359580D01*
X132221904Y-97359580D02*
X132269523Y-97264342D01*
X132269523Y-97264342D02*
X132269523Y-97073866D01*
X132269523Y-97073866D02*
X132221904Y-96978628D01*
X132221904Y-96978628D02*
X132174285Y-96931009D01*
X132174285Y-96931009D02*
X132079047Y-96883390D01*
X127126666Y-113954819D02*
X127126666Y-112954819D01*
X127698094Y-113954819D02*
X127269523Y-113383390D01*
X127698094Y-112954819D02*
X127126666Y-113526247D01*
X128126666Y-113431009D02*
X128459999Y-113431009D01*
X128602856Y-113954819D02*
X128126666Y-113954819D01*
X128126666Y-113954819D02*
X128126666Y-112954819D01*
X128126666Y-112954819D02*
X128602856Y-112954819D01*
X129221904Y-113478628D02*
X129221904Y-113954819D01*
X128888571Y-112954819D02*
X129221904Y-113478628D01*
X129221904Y-113478628D02*
X129555237Y-112954819D01*
X129650476Y-114050057D02*
X130412380Y-114050057D01*
X130602857Y-113907200D02*
X130745714Y-113954819D01*
X130745714Y-113954819D02*
X130983809Y-113954819D01*
X130983809Y-113954819D02*
X131079047Y-113907200D01*
X131079047Y-113907200D02*
X131126666Y-113859580D01*
X131126666Y-113859580D02*
X131174285Y-113764342D01*
X131174285Y-113764342D02*
X131174285Y-113669104D01*
X131174285Y-113669104D02*
X131126666Y-113573866D01*
X131126666Y-113573866D02*
X131079047Y-113526247D01*
X131079047Y-113526247D02*
X130983809Y-113478628D01*
X130983809Y-113478628D02*
X130793333Y-113431009D01*
X130793333Y-113431009D02*
X130698095Y-113383390D01*
X130698095Y-113383390D02*
X130650476Y-113335771D01*
X130650476Y-113335771D02*
X130602857Y-113240533D01*
X130602857Y-113240533D02*
X130602857Y-113145295D01*
X130602857Y-113145295D02*
X130650476Y-113050057D01*
X130650476Y-113050057D02*
X130698095Y-113002438D01*
X130698095Y-113002438D02*
X130793333Y-112954819D01*
X130793333Y-112954819D02*
X131031428Y-112954819D01*
X131031428Y-112954819D02*
X131174285Y-113002438D01*
X131460000Y-112954819D02*
X132031428Y-112954819D01*
X131745714Y-113954819D02*
X131745714Y-112954819D01*
X132364762Y-113431009D02*
X132698095Y-113431009D01*
X132840952Y-113954819D02*
X132364762Y-113954819D01*
X132364762Y-113954819D02*
X132364762Y-112954819D01*
X132364762Y-112954819D02*
X132840952Y-112954819D01*
X133269524Y-113954819D02*
X133269524Y-112954819D01*
X133269524Y-112954819D02*
X133650476Y-112954819D01*
X133650476Y-112954819D02*
X133745714Y-113002438D01*
X133745714Y-113002438D02*
X133793333Y-113050057D01*
X133793333Y-113050057D02*
X133840952Y-113145295D01*
X133840952Y-113145295D02*
X133840952Y-113288152D01*
X133840952Y-113288152D02*
X133793333Y-113383390D01*
X133793333Y-113383390D02*
X133745714Y-113431009D01*
X133745714Y-113431009D02*
X133650476Y-113478628D01*
X133650476Y-113478628D02*
X133269524Y-113478628D01*
X88650476Y-97407200D02*
X88793333Y-97454819D01*
X88793333Y-97454819D02*
X89031428Y-97454819D01*
X89031428Y-97454819D02*
X89126666Y-97407200D01*
X89126666Y-97407200D02*
X89174285Y-97359580D01*
X89174285Y-97359580D02*
X89221904Y-97264342D01*
X89221904Y-97264342D02*
X89221904Y-97169104D01*
X89221904Y-97169104D02*
X89174285Y-97073866D01*
X89174285Y-97073866D02*
X89126666Y-97026247D01*
X89126666Y-97026247D02*
X89031428Y-96978628D01*
X89031428Y-96978628D02*
X88840952Y-96931009D01*
X88840952Y-96931009D02*
X88745714Y-96883390D01*
X88745714Y-96883390D02*
X88698095Y-96835771D01*
X88698095Y-96835771D02*
X88650476Y-96740533D01*
X88650476Y-96740533D02*
X88650476Y-96645295D01*
X88650476Y-96645295D02*
X88698095Y-96550057D01*
X88698095Y-96550057D02*
X88745714Y-96502438D01*
X88745714Y-96502438D02*
X88840952Y-96454819D01*
X88840952Y-96454819D02*
X89079047Y-96454819D01*
X89079047Y-96454819D02*
X89221904Y-96502438D01*
X89555238Y-96454819D02*
X89793333Y-97454819D01*
X89793333Y-97454819D02*
X89983809Y-96740533D01*
X89983809Y-96740533D02*
X90174285Y-97454819D01*
X90174285Y-97454819D02*
X90412381Y-96454819D01*
X91317142Y-97454819D02*
X90745714Y-97454819D01*
X91031428Y-97454819D02*
X91031428Y-96454819D01*
X91031428Y-96454819D02*
X90936190Y-96597676D01*
X90936190Y-96597676D02*
X90840952Y-96692914D01*
X90840952Y-96692914D02*
X90745714Y-96740533D01*
X92174285Y-96454819D02*
X91983809Y-96454819D01*
X91983809Y-96454819D02*
X91888571Y-96502438D01*
X91888571Y-96502438D02*
X91840952Y-96550057D01*
X91840952Y-96550057D02*
X91745714Y-96692914D01*
X91745714Y-96692914D02*
X91698095Y-96883390D01*
X91698095Y-96883390D02*
X91698095Y-97264342D01*
X91698095Y-97264342D02*
X91745714Y-97359580D01*
X91745714Y-97359580D02*
X91793333Y-97407200D01*
X91793333Y-97407200D02*
X91888571Y-97454819D01*
X91888571Y-97454819D02*
X92079047Y-97454819D01*
X92079047Y-97454819D02*
X92174285Y-97407200D01*
X92174285Y-97407200D02*
X92221904Y-97359580D01*
X92221904Y-97359580D02*
X92269523Y-97264342D01*
X92269523Y-97264342D02*
X92269523Y-97026247D01*
X92269523Y-97026247D02*
X92221904Y-96931009D01*
X92221904Y-96931009D02*
X92174285Y-96883390D01*
X92174285Y-96883390D02*
X92079047Y-96835771D01*
X92079047Y-96835771D02*
X91888571Y-96835771D01*
X91888571Y-96835771D02*
X91793333Y-96883390D01*
X91793333Y-96883390D02*
X91745714Y-96931009D01*
X91745714Y-96931009D02*
X91698095Y-97026247D01*
X88460000Y-113954819D02*
X88460000Y-112954819D01*
X89031428Y-113954819D02*
X88602857Y-113383390D01*
X89031428Y-112954819D02*
X88460000Y-113526247D01*
X89460000Y-113431009D02*
X89793333Y-113431009D01*
X89936190Y-113954819D02*
X89460000Y-113954819D01*
X89460000Y-113954819D02*
X89460000Y-112954819D01*
X89460000Y-112954819D02*
X89936190Y-112954819D01*
X90555238Y-113478628D02*
X90555238Y-113954819D01*
X90221905Y-112954819D02*
X90555238Y-113478628D01*
X90555238Y-113478628D02*
X90888571Y-112954819D01*
X90983810Y-114050057D02*
X91745714Y-114050057D01*
X91888572Y-112954819D02*
X92555238Y-112954819D01*
X92555238Y-112954819D02*
X92126667Y-113954819D01*
X29166667Y-77157200D02*
X29309524Y-77204819D01*
X29309524Y-77204819D02*
X29547619Y-77204819D01*
X29547619Y-77204819D02*
X29642857Y-77157200D01*
X29642857Y-77157200D02*
X29690476Y-77109580D01*
X29690476Y-77109580D02*
X29738095Y-77014342D01*
X29738095Y-77014342D02*
X29738095Y-76919104D01*
X29738095Y-76919104D02*
X29690476Y-76823866D01*
X29690476Y-76823866D02*
X29642857Y-76776247D01*
X29642857Y-76776247D02*
X29547619Y-76728628D01*
X29547619Y-76728628D02*
X29357143Y-76681009D01*
X29357143Y-76681009D02*
X29261905Y-76633390D01*
X29261905Y-76633390D02*
X29214286Y-76585771D01*
X29214286Y-76585771D02*
X29166667Y-76490533D01*
X29166667Y-76490533D02*
X29166667Y-76395295D01*
X29166667Y-76395295D02*
X29214286Y-76300057D01*
X29214286Y-76300057D02*
X29261905Y-76252438D01*
X29261905Y-76252438D02*
X29357143Y-76204819D01*
X29357143Y-76204819D02*
X29595238Y-76204819D01*
X29595238Y-76204819D02*
X29738095Y-76252438D01*
X30071429Y-76204819D02*
X30309524Y-77204819D01*
X30309524Y-77204819D02*
X30500000Y-76490533D01*
X30500000Y-76490533D02*
X30690476Y-77204819D01*
X30690476Y-77204819D02*
X30928572Y-76204819D01*
X31214286Y-76204819D02*
X31880952Y-76204819D01*
X31880952Y-76204819D02*
X31452381Y-77204819D01*
X28460000Y-93954819D02*
X28460000Y-92954819D01*
X29031428Y-93954819D02*
X28602857Y-93383390D01*
X29031428Y-92954819D02*
X28460000Y-93526247D01*
X29460000Y-93431009D02*
X29793333Y-93431009D01*
X29936190Y-93954819D02*
X29460000Y-93954819D01*
X29460000Y-93954819D02*
X29460000Y-92954819D01*
X29460000Y-92954819D02*
X29936190Y-92954819D01*
X30555238Y-93478628D02*
X30555238Y-93954819D01*
X30221905Y-92954819D02*
X30555238Y-93478628D01*
X30555238Y-93478628D02*
X30888571Y-92954819D01*
X30983810Y-94050057D02*
X31745714Y-94050057D01*
X32126667Y-93383390D02*
X32031429Y-93335771D01*
X32031429Y-93335771D02*
X31983810Y-93288152D01*
X31983810Y-93288152D02*
X31936191Y-93192914D01*
X31936191Y-93192914D02*
X31936191Y-93145295D01*
X31936191Y-93145295D02*
X31983810Y-93050057D01*
X31983810Y-93050057D02*
X32031429Y-93002438D01*
X32031429Y-93002438D02*
X32126667Y-92954819D01*
X32126667Y-92954819D02*
X32317143Y-92954819D01*
X32317143Y-92954819D02*
X32412381Y-93002438D01*
X32412381Y-93002438D02*
X32460000Y-93050057D01*
X32460000Y-93050057D02*
X32507619Y-93145295D01*
X32507619Y-93145295D02*
X32507619Y-93192914D01*
X32507619Y-93192914D02*
X32460000Y-93288152D01*
X32460000Y-93288152D02*
X32412381Y-93335771D01*
X32412381Y-93335771D02*
X32317143Y-93383390D01*
X32317143Y-93383390D02*
X32126667Y-93383390D01*
X32126667Y-93383390D02*
X32031429Y-93431009D01*
X32031429Y-93431009D02*
X31983810Y-93478628D01*
X31983810Y-93478628D02*
X31936191Y-93573866D01*
X31936191Y-93573866D02*
X31936191Y-93764342D01*
X31936191Y-93764342D02*
X31983810Y-93859580D01*
X31983810Y-93859580D02*
X32031429Y-93907200D01*
X32031429Y-93907200D02*
X32126667Y-93954819D01*
X32126667Y-93954819D02*
X32317143Y-93954819D01*
X32317143Y-93954819D02*
X32412381Y-93907200D01*
X32412381Y-93907200D02*
X32460000Y-93859580D01*
X32460000Y-93859580D02*
X32507619Y-93764342D01*
X32507619Y-93764342D02*
X32507619Y-93573866D01*
X32507619Y-93573866D02*
X32460000Y-93478628D01*
X32460000Y-93478628D02*
X32412381Y-93431009D01*
X32412381Y-93431009D02*
X32317143Y-93383390D01*
X68650476Y-97407200D02*
X68793333Y-97454819D01*
X68793333Y-97454819D02*
X69031428Y-97454819D01*
X69031428Y-97454819D02*
X69126666Y-97407200D01*
X69126666Y-97407200D02*
X69174285Y-97359580D01*
X69174285Y-97359580D02*
X69221904Y-97264342D01*
X69221904Y-97264342D02*
X69221904Y-97169104D01*
X69221904Y-97169104D02*
X69174285Y-97073866D01*
X69174285Y-97073866D02*
X69126666Y-97026247D01*
X69126666Y-97026247D02*
X69031428Y-96978628D01*
X69031428Y-96978628D02*
X68840952Y-96931009D01*
X68840952Y-96931009D02*
X68745714Y-96883390D01*
X68745714Y-96883390D02*
X68698095Y-96835771D01*
X68698095Y-96835771D02*
X68650476Y-96740533D01*
X68650476Y-96740533D02*
X68650476Y-96645295D01*
X68650476Y-96645295D02*
X68698095Y-96550057D01*
X68698095Y-96550057D02*
X68745714Y-96502438D01*
X68745714Y-96502438D02*
X68840952Y-96454819D01*
X68840952Y-96454819D02*
X69079047Y-96454819D01*
X69079047Y-96454819D02*
X69221904Y-96502438D01*
X69555238Y-96454819D02*
X69793333Y-97454819D01*
X69793333Y-97454819D02*
X69983809Y-96740533D01*
X69983809Y-96740533D02*
X70174285Y-97454819D01*
X70174285Y-97454819D02*
X70412381Y-96454819D01*
X71317142Y-97454819D02*
X70745714Y-97454819D01*
X71031428Y-97454819D02*
X71031428Y-96454819D01*
X71031428Y-96454819D02*
X70936190Y-96597676D01*
X70936190Y-96597676D02*
X70840952Y-96692914D01*
X70840952Y-96692914D02*
X70745714Y-96740533D01*
X72221904Y-96454819D02*
X71745714Y-96454819D01*
X71745714Y-96454819D02*
X71698095Y-96931009D01*
X71698095Y-96931009D02*
X71745714Y-96883390D01*
X71745714Y-96883390D02*
X71840952Y-96835771D01*
X71840952Y-96835771D02*
X72079047Y-96835771D01*
X72079047Y-96835771D02*
X72174285Y-96883390D01*
X72174285Y-96883390D02*
X72221904Y-96931009D01*
X72221904Y-96931009D02*
X72269523Y-97026247D01*
X72269523Y-97026247D02*
X72269523Y-97264342D01*
X72269523Y-97264342D02*
X72221904Y-97359580D01*
X72221904Y-97359580D02*
X72174285Y-97407200D01*
X72174285Y-97407200D02*
X72079047Y-97454819D01*
X72079047Y-97454819D02*
X71840952Y-97454819D01*
X71840952Y-97454819D02*
X71745714Y-97407200D01*
X71745714Y-97407200D02*
X71698095Y-97359580D01*
X68460000Y-113954819D02*
X68460000Y-112954819D01*
X69031428Y-113954819D02*
X68602857Y-113383390D01*
X69031428Y-112954819D02*
X68460000Y-113526247D01*
X69460000Y-113431009D02*
X69793333Y-113431009D01*
X69936190Y-113954819D02*
X69460000Y-113954819D01*
X69460000Y-113954819D02*
X69460000Y-112954819D01*
X69460000Y-112954819D02*
X69936190Y-112954819D01*
X70555238Y-113478628D02*
X70555238Y-113954819D01*
X70221905Y-112954819D02*
X70555238Y-113478628D01*
X70555238Y-113478628D02*
X70888571Y-112954819D01*
X70983810Y-114050057D02*
X71745714Y-114050057D01*
X72412381Y-112954819D02*
X72221905Y-112954819D01*
X72221905Y-112954819D02*
X72126667Y-113002438D01*
X72126667Y-113002438D02*
X72079048Y-113050057D01*
X72079048Y-113050057D02*
X71983810Y-113192914D01*
X71983810Y-113192914D02*
X71936191Y-113383390D01*
X71936191Y-113383390D02*
X71936191Y-113764342D01*
X71936191Y-113764342D02*
X71983810Y-113859580D01*
X71983810Y-113859580D02*
X72031429Y-113907200D01*
X72031429Y-113907200D02*
X72126667Y-113954819D01*
X72126667Y-113954819D02*
X72317143Y-113954819D01*
X72317143Y-113954819D02*
X72412381Y-113907200D01*
X72412381Y-113907200D02*
X72460000Y-113859580D01*
X72460000Y-113859580D02*
X72507619Y-113764342D01*
X72507619Y-113764342D02*
X72507619Y-113526247D01*
X72507619Y-113526247D02*
X72460000Y-113431009D01*
X72460000Y-113431009D02*
X72412381Y-113383390D01*
X72412381Y-113383390D02*
X72317143Y-113335771D01*
X72317143Y-113335771D02*
X72126667Y-113335771D01*
X72126667Y-113335771D02*
X72031429Y-113383390D01*
X72031429Y-113383390D02*
X71983810Y-113431009D01*
X71983810Y-113431009D02*
X71936191Y-113526247D01*
X48650476Y-97407200D02*
X48793333Y-97454819D01*
X48793333Y-97454819D02*
X49031428Y-97454819D01*
X49031428Y-97454819D02*
X49126666Y-97407200D01*
X49126666Y-97407200D02*
X49174285Y-97359580D01*
X49174285Y-97359580D02*
X49221904Y-97264342D01*
X49221904Y-97264342D02*
X49221904Y-97169104D01*
X49221904Y-97169104D02*
X49174285Y-97073866D01*
X49174285Y-97073866D02*
X49126666Y-97026247D01*
X49126666Y-97026247D02*
X49031428Y-96978628D01*
X49031428Y-96978628D02*
X48840952Y-96931009D01*
X48840952Y-96931009D02*
X48745714Y-96883390D01*
X48745714Y-96883390D02*
X48698095Y-96835771D01*
X48698095Y-96835771D02*
X48650476Y-96740533D01*
X48650476Y-96740533D02*
X48650476Y-96645295D01*
X48650476Y-96645295D02*
X48698095Y-96550057D01*
X48698095Y-96550057D02*
X48745714Y-96502438D01*
X48745714Y-96502438D02*
X48840952Y-96454819D01*
X48840952Y-96454819D02*
X49079047Y-96454819D01*
X49079047Y-96454819D02*
X49221904Y-96502438D01*
X49555238Y-96454819D02*
X49793333Y-97454819D01*
X49793333Y-97454819D02*
X49983809Y-96740533D01*
X49983809Y-96740533D02*
X50174285Y-97454819D01*
X50174285Y-97454819D02*
X50412381Y-96454819D01*
X51317142Y-97454819D02*
X50745714Y-97454819D01*
X51031428Y-97454819D02*
X51031428Y-96454819D01*
X51031428Y-96454819D02*
X50936190Y-96597676D01*
X50936190Y-96597676D02*
X50840952Y-96692914D01*
X50840952Y-96692914D02*
X50745714Y-96740533D01*
X52174285Y-96788152D02*
X52174285Y-97454819D01*
X51936190Y-96407200D02*
X51698095Y-97121485D01*
X51698095Y-97121485D02*
X52317142Y-97121485D01*
X48460000Y-113954819D02*
X48460000Y-112954819D01*
X49031428Y-113954819D02*
X48602857Y-113383390D01*
X49031428Y-112954819D02*
X48460000Y-113526247D01*
X49460000Y-113431009D02*
X49793333Y-113431009D01*
X49936190Y-113954819D02*
X49460000Y-113954819D01*
X49460000Y-113954819D02*
X49460000Y-112954819D01*
X49460000Y-112954819D02*
X49936190Y-112954819D01*
X50555238Y-113478628D02*
X50555238Y-113954819D01*
X50221905Y-112954819D02*
X50555238Y-113478628D01*
X50555238Y-113478628D02*
X50888571Y-112954819D01*
X50983810Y-114050057D02*
X51745714Y-114050057D01*
X52460000Y-112954819D02*
X51983810Y-112954819D01*
X51983810Y-112954819D02*
X51936191Y-113431009D01*
X51936191Y-113431009D02*
X51983810Y-113383390D01*
X51983810Y-113383390D02*
X52079048Y-113335771D01*
X52079048Y-113335771D02*
X52317143Y-113335771D01*
X52317143Y-113335771D02*
X52412381Y-113383390D01*
X52412381Y-113383390D02*
X52460000Y-113431009D01*
X52460000Y-113431009D02*
X52507619Y-113526247D01*
X52507619Y-113526247D02*
X52507619Y-113764342D01*
X52507619Y-113764342D02*
X52460000Y-113859580D01*
X52460000Y-113859580D02*
X52412381Y-113907200D01*
X52412381Y-113907200D02*
X52317143Y-113954819D01*
X52317143Y-113954819D02*
X52079048Y-113954819D01*
X52079048Y-113954819D02*
X51983810Y-113907200D01*
X51983810Y-113907200D02*
X51936191Y-113859580D01*
X28650476Y-97407200D02*
X28793333Y-97454819D01*
X28793333Y-97454819D02*
X29031428Y-97454819D01*
X29031428Y-97454819D02*
X29126666Y-97407200D01*
X29126666Y-97407200D02*
X29174285Y-97359580D01*
X29174285Y-97359580D02*
X29221904Y-97264342D01*
X29221904Y-97264342D02*
X29221904Y-97169104D01*
X29221904Y-97169104D02*
X29174285Y-97073866D01*
X29174285Y-97073866D02*
X29126666Y-97026247D01*
X29126666Y-97026247D02*
X29031428Y-96978628D01*
X29031428Y-96978628D02*
X28840952Y-96931009D01*
X28840952Y-96931009D02*
X28745714Y-96883390D01*
X28745714Y-96883390D02*
X28698095Y-96835771D01*
X28698095Y-96835771D02*
X28650476Y-96740533D01*
X28650476Y-96740533D02*
X28650476Y-96645295D01*
X28650476Y-96645295D02*
X28698095Y-96550057D01*
X28698095Y-96550057D02*
X28745714Y-96502438D01*
X28745714Y-96502438D02*
X28840952Y-96454819D01*
X28840952Y-96454819D02*
X29079047Y-96454819D01*
X29079047Y-96454819D02*
X29221904Y-96502438D01*
X29555238Y-96454819D02*
X29793333Y-97454819D01*
X29793333Y-97454819D02*
X29983809Y-96740533D01*
X29983809Y-96740533D02*
X30174285Y-97454819D01*
X30174285Y-97454819D02*
X30412381Y-96454819D01*
X31317142Y-97454819D02*
X30745714Y-97454819D01*
X31031428Y-97454819D02*
X31031428Y-96454819D01*
X31031428Y-96454819D02*
X30936190Y-96597676D01*
X30936190Y-96597676D02*
X30840952Y-96692914D01*
X30840952Y-96692914D02*
X30745714Y-96740533D01*
X31650476Y-96454819D02*
X32269523Y-96454819D01*
X32269523Y-96454819D02*
X31936190Y-96835771D01*
X31936190Y-96835771D02*
X32079047Y-96835771D01*
X32079047Y-96835771D02*
X32174285Y-96883390D01*
X32174285Y-96883390D02*
X32221904Y-96931009D01*
X32221904Y-96931009D02*
X32269523Y-97026247D01*
X32269523Y-97026247D02*
X32269523Y-97264342D01*
X32269523Y-97264342D02*
X32221904Y-97359580D01*
X32221904Y-97359580D02*
X32174285Y-97407200D01*
X32174285Y-97407200D02*
X32079047Y-97454819D01*
X32079047Y-97454819D02*
X31793333Y-97454819D01*
X31793333Y-97454819D02*
X31698095Y-97407200D01*
X31698095Y-97407200D02*
X31650476Y-97359580D01*
X28460000Y-114034819D02*
X28460000Y-113034819D01*
X29031428Y-114034819D02*
X28602857Y-113463390D01*
X29031428Y-113034819D02*
X28460000Y-113606247D01*
X29460000Y-113511009D02*
X29793333Y-113511009D01*
X29936190Y-114034819D02*
X29460000Y-114034819D01*
X29460000Y-114034819D02*
X29460000Y-113034819D01*
X29460000Y-113034819D02*
X29936190Y-113034819D01*
X30555238Y-113558628D02*
X30555238Y-114034819D01*
X30221905Y-113034819D02*
X30555238Y-113558628D01*
X30555238Y-113558628D02*
X30888571Y-113034819D01*
X30983810Y-114130057D02*
X31745714Y-114130057D01*
X32412381Y-113368152D02*
X32412381Y-114034819D01*
X32174286Y-112987200D02*
X31936191Y-113701485D01*
X31936191Y-113701485D02*
X32555238Y-113701485D01*
X69126667Y-57407200D02*
X69269524Y-57454819D01*
X69269524Y-57454819D02*
X69507619Y-57454819D01*
X69507619Y-57454819D02*
X69602857Y-57407200D01*
X69602857Y-57407200D02*
X69650476Y-57359580D01*
X69650476Y-57359580D02*
X69698095Y-57264342D01*
X69698095Y-57264342D02*
X69698095Y-57169104D01*
X69698095Y-57169104D02*
X69650476Y-57073866D01*
X69650476Y-57073866D02*
X69602857Y-57026247D01*
X69602857Y-57026247D02*
X69507619Y-56978628D01*
X69507619Y-56978628D02*
X69317143Y-56931009D01*
X69317143Y-56931009D02*
X69221905Y-56883390D01*
X69221905Y-56883390D02*
X69174286Y-56835771D01*
X69174286Y-56835771D02*
X69126667Y-56740533D01*
X69126667Y-56740533D02*
X69126667Y-56645295D01*
X69126667Y-56645295D02*
X69174286Y-56550057D01*
X69174286Y-56550057D02*
X69221905Y-56502438D01*
X69221905Y-56502438D02*
X69317143Y-56454819D01*
X69317143Y-56454819D02*
X69555238Y-56454819D01*
X69555238Y-56454819D02*
X69698095Y-56502438D01*
X70031429Y-56454819D02*
X70269524Y-57454819D01*
X70269524Y-57454819D02*
X70460000Y-56740533D01*
X70460000Y-56740533D02*
X70650476Y-57454819D01*
X70650476Y-57454819D02*
X70888572Y-56454819D01*
X71174286Y-56454819D02*
X71793333Y-56454819D01*
X71793333Y-56454819D02*
X71460000Y-56835771D01*
X71460000Y-56835771D02*
X71602857Y-56835771D01*
X71602857Y-56835771D02*
X71698095Y-56883390D01*
X71698095Y-56883390D02*
X71745714Y-56931009D01*
X71745714Y-56931009D02*
X71793333Y-57026247D01*
X71793333Y-57026247D02*
X71793333Y-57264342D01*
X71793333Y-57264342D02*
X71745714Y-57359580D01*
X71745714Y-57359580D02*
X71698095Y-57407200D01*
X71698095Y-57407200D02*
X71602857Y-57454819D01*
X71602857Y-57454819D02*
X71317143Y-57454819D01*
X71317143Y-57454819D02*
X71221905Y-57407200D01*
X71221905Y-57407200D02*
X71174286Y-57359580D01*
X68483809Y-73954819D02*
X68483809Y-72954819D01*
X69055237Y-73954819D02*
X68626666Y-73383390D01*
X69055237Y-72954819D02*
X68483809Y-73526247D01*
X69483809Y-73431009D02*
X69817142Y-73431009D01*
X69959999Y-73954819D02*
X69483809Y-73954819D01*
X69483809Y-73954819D02*
X69483809Y-72954819D01*
X69483809Y-72954819D02*
X69959999Y-72954819D01*
X70579047Y-73478628D02*
X70579047Y-73954819D01*
X70245714Y-72954819D02*
X70579047Y-73478628D01*
X70579047Y-73478628D02*
X70912380Y-72954819D01*
X71007619Y-74050057D02*
X71769523Y-74050057D01*
X72007619Y-73431009D02*
X72340952Y-73431009D01*
X72483809Y-73954819D02*
X72007619Y-73954819D01*
X72007619Y-73954819D02*
X72007619Y-72954819D01*
X72007619Y-72954819D02*
X72483809Y-72954819D01*
X29126667Y-57407200D02*
X29269524Y-57454819D01*
X29269524Y-57454819D02*
X29507619Y-57454819D01*
X29507619Y-57454819D02*
X29602857Y-57407200D01*
X29602857Y-57407200D02*
X29650476Y-57359580D01*
X29650476Y-57359580D02*
X29698095Y-57264342D01*
X29698095Y-57264342D02*
X29698095Y-57169104D01*
X29698095Y-57169104D02*
X29650476Y-57073866D01*
X29650476Y-57073866D02*
X29602857Y-57026247D01*
X29602857Y-57026247D02*
X29507619Y-56978628D01*
X29507619Y-56978628D02*
X29317143Y-56931009D01*
X29317143Y-56931009D02*
X29221905Y-56883390D01*
X29221905Y-56883390D02*
X29174286Y-56835771D01*
X29174286Y-56835771D02*
X29126667Y-56740533D01*
X29126667Y-56740533D02*
X29126667Y-56645295D01*
X29126667Y-56645295D02*
X29174286Y-56550057D01*
X29174286Y-56550057D02*
X29221905Y-56502438D01*
X29221905Y-56502438D02*
X29317143Y-56454819D01*
X29317143Y-56454819D02*
X29555238Y-56454819D01*
X29555238Y-56454819D02*
X29698095Y-56502438D01*
X30031429Y-56454819D02*
X30269524Y-57454819D01*
X30269524Y-57454819D02*
X30460000Y-56740533D01*
X30460000Y-56740533D02*
X30650476Y-57454819D01*
X30650476Y-57454819D02*
X30888572Y-56454819D01*
X31793333Y-57454819D02*
X31221905Y-57454819D01*
X31507619Y-57454819D02*
X31507619Y-56454819D01*
X31507619Y-56454819D02*
X31412381Y-56597676D01*
X31412381Y-56597676D02*
X31317143Y-56692914D01*
X31317143Y-56692914D02*
X31221905Y-56740533D01*
X28436190Y-73954819D02*
X28436190Y-72954819D01*
X29007618Y-73954819D02*
X28579047Y-73383390D01*
X29007618Y-72954819D02*
X28436190Y-73526247D01*
X29436190Y-73431009D02*
X29769523Y-73431009D01*
X29912380Y-73954819D02*
X29436190Y-73954819D01*
X29436190Y-73954819D02*
X29436190Y-72954819D01*
X29436190Y-72954819D02*
X29912380Y-72954819D01*
X30531428Y-73478628D02*
X30531428Y-73954819D01*
X30198095Y-72954819D02*
X30531428Y-73478628D01*
X30531428Y-73478628D02*
X30864761Y-72954819D01*
X30960000Y-74050057D02*
X31721904Y-74050057D01*
X32531428Y-73859580D02*
X32483809Y-73907200D01*
X32483809Y-73907200D02*
X32340952Y-73954819D01*
X32340952Y-73954819D02*
X32245714Y-73954819D01*
X32245714Y-73954819D02*
X32102857Y-73907200D01*
X32102857Y-73907200D02*
X32007619Y-73811961D01*
X32007619Y-73811961D02*
X31960000Y-73716723D01*
X31960000Y-73716723D02*
X31912381Y-73526247D01*
X31912381Y-73526247D02*
X31912381Y-73383390D01*
X31912381Y-73383390D02*
X31960000Y-73192914D01*
X31960000Y-73192914D02*
X32007619Y-73097676D01*
X32007619Y-73097676D02*
X32102857Y-73002438D01*
X32102857Y-73002438D02*
X32245714Y-72954819D01*
X32245714Y-72954819D02*
X32340952Y-72954819D01*
X32340952Y-72954819D02*
X32483809Y-73002438D01*
X32483809Y-73002438D02*
X32531428Y-73050057D01*
X88833333Y-39429580D02*
X88785714Y-39477200D01*
X88785714Y-39477200D02*
X88642857Y-39524819D01*
X88642857Y-39524819D02*
X88547619Y-39524819D01*
X88547619Y-39524819D02*
X88404762Y-39477200D01*
X88404762Y-39477200D02*
X88309524Y-39381961D01*
X88309524Y-39381961D02*
X88261905Y-39286723D01*
X88261905Y-39286723D02*
X88214286Y-39096247D01*
X88214286Y-39096247D02*
X88214286Y-38953390D01*
X88214286Y-38953390D02*
X88261905Y-38762914D01*
X88261905Y-38762914D02*
X88309524Y-38667676D01*
X88309524Y-38667676D02*
X88404762Y-38572438D01*
X88404762Y-38572438D02*
X88547619Y-38524819D01*
X88547619Y-38524819D02*
X88642857Y-38524819D01*
X88642857Y-38524819D02*
X88785714Y-38572438D01*
X88785714Y-38572438D02*
X88833333Y-38620057D01*
X89690476Y-38858152D02*
X89690476Y-39524819D01*
X89452381Y-38477200D02*
X89214286Y-39191485D01*
X89214286Y-39191485D02*
X89833333Y-39191485D01*
X123608333Y-28429580D02*
X123560714Y-28477200D01*
X123560714Y-28477200D02*
X123417857Y-28524819D01*
X123417857Y-28524819D02*
X123322619Y-28524819D01*
X123322619Y-28524819D02*
X123179762Y-28477200D01*
X123179762Y-28477200D02*
X123084524Y-28381961D01*
X123084524Y-28381961D02*
X123036905Y-28286723D01*
X123036905Y-28286723D02*
X122989286Y-28096247D01*
X122989286Y-28096247D02*
X122989286Y-27953390D01*
X122989286Y-27953390D02*
X123036905Y-27762914D01*
X123036905Y-27762914D02*
X123084524Y-27667676D01*
X123084524Y-27667676D02*
X123179762Y-27572438D01*
X123179762Y-27572438D02*
X123322619Y-27524819D01*
X123322619Y-27524819D02*
X123417857Y-27524819D01*
X123417857Y-27524819D02*
X123560714Y-27572438D01*
X123560714Y-27572438D02*
X123608333Y-27620057D01*
X124560714Y-28524819D02*
X123989286Y-28524819D01*
X124275000Y-28524819D02*
X124275000Y-27524819D01*
X124275000Y-27524819D02*
X124179762Y-27667676D01*
X124179762Y-27667676D02*
X124084524Y-27762914D01*
X124084524Y-27762914D02*
X123989286Y-27810533D01*
X125508333Y-59024819D02*
X125175000Y-58548628D01*
X124936905Y-59024819D02*
X124936905Y-58024819D01*
X124936905Y-58024819D02*
X125317857Y-58024819D01*
X125317857Y-58024819D02*
X125413095Y-58072438D01*
X125413095Y-58072438D02*
X125460714Y-58120057D01*
X125460714Y-58120057D02*
X125508333Y-58215295D01*
X125508333Y-58215295D02*
X125508333Y-58358152D01*
X125508333Y-58358152D02*
X125460714Y-58453390D01*
X125460714Y-58453390D02*
X125413095Y-58501009D01*
X125413095Y-58501009D02*
X125317857Y-58548628D01*
X125317857Y-58548628D02*
X124936905Y-58548628D01*
X126460714Y-59024819D02*
X125889286Y-59024819D01*
X126175000Y-59024819D02*
X126175000Y-58024819D01*
X126175000Y-58024819D02*
X126079762Y-58167676D01*
X126079762Y-58167676D02*
X125984524Y-58262914D01*
X125984524Y-58262914D02*
X125889286Y-58310533D01*
X125658333Y-65024819D02*
X125325000Y-64548628D01*
X125086905Y-65024819D02*
X125086905Y-64024819D01*
X125086905Y-64024819D02*
X125467857Y-64024819D01*
X125467857Y-64024819D02*
X125563095Y-64072438D01*
X125563095Y-64072438D02*
X125610714Y-64120057D01*
X125610714Y-64120057D02*
X125658333Y-64215295D01*
X125658333Y-64215295D02*
X125658333Y-64358152D01*
X125658333Y-64358152D02*
X125610714Y-64453390D01*
X125610714Y-64453390D02*
X125563095Y-64501009D01*
X125563095Y-64501009D02*
X125467857Y-64548628D01*
X125467857Y-64548628D02*
X125086905Y-64548628D01*
X125991667Y-64024819D02*
X126610714Y-64024819D01*
X126610714Y-64024819D02*
X126277381Y-64405771D01*
X126277381Y-64405771D02*
X126420238Y-64405771D01*
X126420238Y-64405771D02*
X126515476Y-64453390D01*
X126515476Y-64453390D02*
X126563095Y-64501009D01*
X126563095Y-64501009D02*
X126610714Y-64596247D01*
X126610714Y-64596247D02*
X126610714Y-64834342D01*
X126610714Y-64834342D02*
X126563095Y-64929580D01*
X126563095Y-64929580D02*
X126515476Y-64977200D01*
X126515476Y-64977200D02*
X126420238Y-65024819D01*
X126420238Y-65024819D02*
X126134524Y-65024819D01*
X126134524Y-65024819D02*
X126039286Y-64977200D01*
X126039286Y-64977200D02*
X125991667Y-64929580D01*
X125658333Y-62024819D02*
X125325000Y-61548628D01*
X125086905Y-62024819D02*
X125086905Y-61024819D01*
X125086905Y-61024819D02*
X125467857Y-61024819D01*
X125467857Y-61024819D02*
X125563095Y-61072438D01*
X125563095Y-61072438D02*
X125610714Y-61120057D01*
X125610714Y-61120057D02*
X125658333Y-61215295D01*
X125658333Y-61215295D02*
X125658333Y-61358152D01*
X125658333Y-61358152D02*
X125610714Y-61453390D01*
X125610714Y-61453390D02*
X125563095Y-61501009D01*
X125563095Y-61501009D02*
X125467857Y-61548628D01*
X125467857Y-61548628D02*
X125086905Y-61548628D01*
X126039286Y-61120057D02*
X126086905Y-61072438D01*
X126086905Y-61072438D02*
X126182143Y-61024819D01*
X126182143Y-61024819D02*
X126420238Y-61024819D01*
X126420238Y-61024819D02*
X126515476Y-61072438D01*
X126515476Y-61072438D02*
X126563095Y-61120057D01*
X126563095Y-61120057D02*
X126610714Y-61215295D01*
X126610714Y-61215295D02*
X126610714Y-61310533D01*
X126610714Y-61310533D02*
X126563095Y-61453390D01*
X126563095Y-61453390D02*
X125991667Y-62024819D01*
X125991667Y-62024819D02*
X126610714Y-62024819D01*
X123608333Y-31429580D02*
X123560714Y-31477200D01*
X123560714Y-31477200D02*
X123417857Y-31524819D01*
X123417857Y-31524819D02*
X123322619Y-31524819D01*
X123322619Y-31524819D02*
X123179762Y-31477200D01*
X123179762Y-31477200D02*
X123084524Y-31381961D01*
X123084524Y-31381961D02*
X123036905Y-31286723D01*
X123036905Y-31286723D02*
X122989286Y-31096247D01*
X122989286Y-31096247D02*
X122989286Y-30953390D01*
X122989286Y-30953390D02*
X123036905Y-30762914D01*
X123036905Y-30762914D02*
X123084524Y-30667676D01*
X123084524Y-30667676D02*
X123179762Y-30572438D01*
X123179762Y-30572438D02*
X123322619Y-30524819D01*
X123322619Y-30524819D02*
X123417857Y-30524819D01*
X123417857Y-30524819D02*
X123560714Y-30572438D01*
X123560714Y-30572438D02*
X123608333Y-30620057D01*
X123989286Y-30620057D02*
X124036905Y-30572438D01*
X124036905Y-30572438D02*
X124132143Y-30524819D01*
X124132143Y-30524819D02*
X124370238Y-30524819D01*
X124370238Y-30524819D02*
X124465476Y-30572438D01*
X124465476Y-30572438D02*
X124513095Y-30620057D01*
X124513095Y-30620057D02*
X124560714Y-30715295D01*
X124560714Y-30715295D02*
X124560714Y-30810533D01*
X124560714Y-30810533D02*
X124513095Y-30953390D01*
X124513095Y-30953390D02*
X123941667Y-31524819D01*
X123941667Y-31524819D02*
X124560714Y-31524819D01*
X119108333Y-25429580D02*
X119060714Y-25477200D01*
X119060714Y-25477200D02*
X118917857Y-25524819D01*
X118917857Y-25524819D02*
X118822619Y-25524819D01*
X118822619Y-25524819D02*
X118679762Y-25477200D01*
X118679762Y-25477200D02*
X118584524Y-25381961D01*
X118584524Y-25381961D02*
X118536905Y-25286723D01*
X118536905Y-25286723D02*
X118489286Y-25096247D01*
X118489286Y-25096247D02*
X118489286Y-24953390D01*
X118489286Y-24953390D02*
X118536905Y-24762914D01*
X118536905Y-24762914D02*
X118584524Y-24667676D01*
X118584524Y-24667676D02*
X118679762Y-24572438D01*
X118679762Y-24572438D02*
X118822619Y-24524819D01*
X118822619Y-24524819D02*
X118917857Y-24524819D01*
X118917857Y-24524819D02*
X119060714Y-24572438D01*
X119060714Y-24572438D02*
X119108333Y-24620057D01*
X119441667Y-24524819D02*
X120060714Y-24524819D01*
X120060714Y-24524819D02*
X119727381Y-24905771D01*
X119727381Y-24905771D02*
X119870238Y-24905771D01*
X119870238Y-24905771D02*
X119965476Y-24953390D01*
X119965476Y-24953390D02*
X120013095Y-25001009D01*
X120013095Y-25001009D02*
X120060714Y-25096247D01*
X120060714Y-25096247D02*
X120060714Y-25334342D01*
X120060714Y-25334342D02*
X120013095Y-25429580D01*
X120013095Y-25429580D02*
X119965476Y-25477200D01*
X119965476Y-25477200D02*
X119870238Y-25524819D01*
X119870238Y-25524819D02*
X119584524Y-25524819D01*
X119584524Y-25524819D02*
X119489286Y-25477200D01*
X119489286Y-25477200D02*
X119441667Y-25429580D01*
X23666666Y-25044819D02*
X23666666Y-25759104D01*
X23666666Y-25759104D02*
X23619047Y-25901961D01*
X23619047Y-25901961D02*
X23523809Y-25997200D01*
X23523809Y-25997200D02*
X23380952Y-26044819D01*
X23380952Y-26044819D02*
X23285714Y-26044819D01*
X24619047Y-25044819D02*
X24142857Y-25044819D01*
X24142857Y-25044819D02*
X24095238Y-25521009D01*
X24095238Y-25521009D02*
X24142857Y-25473390D01*
X24142857Y-25473390D02*
X24238095Y-25425771D01*
X24238095Y-25425771D02*
X24476190Y-25425771D01*
X24476190Y-25425771D02*
X24571428Y-25473390D01*
X24571428Y-25473390D02*
X24619047Y-25521009D01*
X24619047Y-25521009D02*
X24666666Y-25616247D01*
X24666666Y-25616247D02*
X24666666Y-25854342D01*
X24666666Y-25854342D02*
X24619047Y-25949580D01*
X24619047Y-25949580D02*
X24571428Y-25997200D01*
X24571428Y-25997200D02*
X24476190Y-26044819D01*
X24476190Y-26044819D02*
X24238095Y-26044819D01*
X24238095Y-26044819D02*
X24142857Y-25997200D01*
X24142857Y-25997200D02*
X24095238Y-25949580D01*
X100833333Y-45729580D02*
X100785714Y-45777200D01*
X100785714Y-45777200D02*
X100642857Y-45824819D01*
X100642857Y-45824819D02*
X100547619Y-45824819D01*
X100547619Y-45824819D02*
X100404762Y-45777200D01*
X100404762Y-45777200D02*
X100309524Y-45681961D01*
X100309524Y-45681961D02*
X100261905Y-45586723D01*
X100261905Y-45586723D02*
X100214286Y-45396247D01*
X100214286Y-45396247D02*
X100214286Y-45253390D01*
X100214286Y-45253390D02*
X100261905Y-45062914D01*
X100261905Y-45062914D02*
X100309524Y-44967676D01*
X100309524Y-44967676D02*
X100404762Y-44872438D01*
X100404762Y-44872438D02*
X100547619Y-44824819D01*
X100547619Y-44824819D02*
X100642857Y-44824819D01*
X100642857Y-44824819D02*
X100785714Y-44872438D01*
X100785714Y-44872438D02*
X100833333Y-44920057D01*
X101404762Y-45253390D02*
X101309524Y-45205771D01*
X101309524Y-45205771D02*
X101261905Y-45158152D01*
X101261905Y-45158152D02*
X101214286Y-45062914D01*
X101214286Y-45062914D02*
X101214286Y-45015295D01*
X101214286Y-45015295D02*
X101261905Y-44920057D01*
X101261905Y-44920057D02*
X101309524Y-44872438D01*
X101309524Y-44872438D02*
X101404762Y-44824819D01*
X101404762Y-44824819D02*
X101595238Y-44824819D01*
X101595238Y-44824819D02*
X101690476Y-44872438D01*
X101690476Y-44872438D02*
X101738095Y-44920057D01*
X101738095Y-44920057D02*
X101785714Y-45015295D01*
X101785714Y-45015295D02*
X101785714Y-45062914D01*
X101785714Y-45062914D02*
X101738095Y-45158152D01*
X101738095Y-45158152D02*
X101690476Y-45205771D01*
X101690476Y-45205771D02*
X101595238Y-45253390D01*
X101595238Y-45253390D02*
X101404762Y-45253390D01*
X101404762Y-45253390D02*
X101309524Y-45301009D01*
X101309524Y-45301009D02*
X101261905Y-45348628D01*
X101261905Y-45348628D02*
X101214286Y-45443866D01*
X101214286Y-45443866D02*
X101214286Y-45634342D01*
X101214286Y-45634342D02*
X101261905Y-45729580D01*
X101261905Y-45729580D02*
X101309524Y-45777200D01*
X101309524Y-45777200D02*
X101404762Y-45824819D01*
X101404762Y-45824819D02*
X101595238Y-45824819D01*
X101595238Y-45824819D02*
X101690476Y-45777200D01*
X101690476Y-45777200D02*
X101738095Y-45729580D01*
X101738095Y-45729580D02*
X101785714Y-45634342D01*
X101785714Y-45634342D02*
X101785714Y-45443866D01*
X101785714Y-45443866D02*
X101738095Y-45348628D01*
X101738095Y-45348628D02*
X101690476Y-45301009D01*
X101690476Y-45301009D02*
X101595238Y-45253390D01*
X131658333Y-31524819D02*
X131325000Y-31048628D01*
X131086905Y-31524819D02*
X131086905Y-30524819D01*
X131086905Y-30524819D02*
X131467857Y-30524819D01*
X131467857Y-30524819D02*
X131563095Y-30572438D01*
X131563095Y-30572438D02*
X131610714Y-30620057D01*
X131610714Y-30620057D02*
X131658333Y-30715295D01*
X131658333Y-30715295D02*
X131658333Y-30858152D01*
X131658333Y-30858152D02*
X131610714Y-30953390D01*
X131610714Y-30953390D02*
X131563095Y-31001009D01*
X131563095Y-31001009D02*
X131467857Y-31048628D01*
X131467857Y-31048628D02*
X131086905Y-31048628D01*
X132563095Y-30524819D02*
X132086905Y-30524819D01*
X132086905Y-30524819D02*
X132039286Y-31001009D01*
X132039286Y-31001009D02*
X132086905Y-30953390D01*
X132086905Y-30953390D02*
X132182143Y-30905771D01*
X132182143Y-30905771D02*
X132420238Y-30905771D01*
X132420238Y-30905771D02*
X132515476Y-30953390D01*
X132515476Y-30953390D02*
X132563095Y-31001009D01*
X132563095Y-31001009D02*
X132610714Y-31096247D01*
X132610714Y-31096247D02*
X132610714Y-31334342D01*
X132610714Y-31334342D02*
X132563095Y-31429580D01*
X132563095Y-31429580D02*
X132515476Y-31477200D01*
X132515476Y-31477200D02*
X132420238Y-31524819D01*
X132420238Y-31524819D02*
X132182143Y-31524819D01*
X132182143Y-31524819D02*
X132086905Y-31477200D01*
X132086905Y-31477200D02*
X132039286Y-31429580D01*
X84123809Y-30978628D02*
X84123809Y-31454819D01*
X83790476Y-30454819D02*
X84123809Y-30978628D01*
X84123809Y-30978628D02*
X84457142Y-30454819D01*
X85314285Y-31454819D02*
X84742857Y-31454819D01*
X85028571Y-31454819D02*
X85028571Y-30454819D01*
X85028571Y-30454819D02*
X84933333Y-30597676D01*
X84933333Y-30597676D02*
X84838095Y-30692914D01*
X84838095Y-30692914D02*
X84742857Y-30740533D01*
X131658333Y-28524819D02*
X131325000Y-28048628D01*
X131086905Y-28524819D02*
X131086905Y-27524819D01*
X131086905Y-27524819D02*
X131467857Y-27524819D01*
X131467857Y-27524819D02*
X131563095Y-27572438D01*
X131563095Y-27572438D02*
X131610714Y-27620057D01*
X131610714Y-27620057D02*
X131658333Y-27715295D01*
X131658333Y-27715295D02*
X131658333Y-27858152D01*
X131658333Y-27858152D02*
X131610714Y-27953390D01*
X131610714Y-27953390D02*
X131563095Y-28001009D01*
X131563095Y-28001009D02*
X131467857Y-28048628D01*
X131467857Y-28048628D02*
X131086905Y-28048628D01*
X132229762Y-27953390D02*
X132134524Y-27905771D01*
X132134524Y-27905771D02*
X132086905Y-27858152D01*
X132086905Y-27858152D02*
X132039286Y-27762914D01*
X132039286Y-27762914D02*
X132039286Y-27715295D01*
X132039286Y-27715295D02*
X132086905Y-27620057D01*
X132086905Y-27620057D02*
X132134524Y-27572438D01*
X132134524Y-27572438D02*
X132229762Y-27524819D01*
X132229762Y-27524819D02*
X132420238Y-27524819D01*
X132420238Y-27524819D02*
X132515476Y-27572438D01*
X132515476Y-27572438D02*
X132563095Y-27620057D01*
X132563095Y-27620057D02*
X132610714Y-27715295D01*
X132610714Y-27715295D02*
X132610714Y-27762914D01*
X132610714Y-27762914D02*
X132563095Y-27858152D01*
X132563095Y-27858152D02*
X132515476Y-27905771D01*
X132515476Y-27905771D02*
X132420238Y-27953390D01*
X132420238Y-27953390D02*
X132229762Y-27953390D01*
X132229762Y-27953390D02*
X132134524Y-28001009D01*
X132134524Y-28001009D02*
X132086905Y-28048628D01*
X132086905Y-28048628D02*
X132039286Y-28143866D01*
X132039286Y-28143866D02*
X132039286Y-28334342D01*
X132039286Y-28334342D02*
X132086905Y-28429580D01*
X132086905Y-28429580D02*
X132134524Y-28477200D01*
X132134524Y-28477200D02*
X132229762Y-28524819D01*
X132229762Y-28524819D02*
X132420238Y-28524819D01*
X132420238Y-28524819D02*
X132515476Y-28477200D01*
X132515476Y-28477200D02*
X132563095Y-28429580D01*
X132563095Y-28429580D02*
X132610714Y-28334342D01*
X132610714Y-28334342D02*
X132610714Y-28143866D01*
X132610714Y-28143866D02*
X132563095Y-28048628D01*
X132563095Y-28048628D02*
X132515476Y-28001009D01*
X132515476Y-28001009D02*
X132420238Y-27953390D01*
X96988095Y-29879819D02*
X96988095Y-30689342D01*
X96988095Y-30689342D02*
X97035714Y-30784580D01*
X97035714Y-30784580D02*
X97083333Y-30832200D01*
X97083333Y-30832200D02*
X97178571Y-30879819D01*
X97178571Y-30879819D02*
X97369047Y-30879819D01*
X97369047Y-30879819D02*
X97464285Y-30832200D01*
X97464285Y-30832200D02*
X97511904Y-30784580D01*
X97511904Y-30784580D02*
X97559523Y-30689342D01*
X97559523Y-30689342D02*
X97559523Y-29879819D01*
X97940476Y-29879819D02*
X98559523Y-29879819D01*
X98559523Y-29879819D02*
X98226190Y-30260771D01*
X98226190Y-30260771D02*
X98369047Y-30260771D01*
X98369047Y-30260771D02*
X98464285Y-30308390D01*
X98464285Y-30308390D02*
X98511904Y-30356009D01*
X98511904Y-30356009D02*
X98559523Y-30451247D01*
X98559523Y-30451247D02*
X98559523Y-30689342D01*
X98559523Y-30689342D02*
X98511904Y-30784580D01*
X98511904Y-30784580D02*
X98464285Y-30832200D01*
X98464285Y-30832200D02*
X98369047Y-30879819D01*
X98369047Y-30879819D02*
X98083333Y-30879819D01*
X98083333Y-30879819D02*
X97988095Y-30832200D01*
X97988095Y-30832200D02*
X97940476Y-30784580D01*
X106908333Y-25524819D02*
X106575000Y-25048628D01*
X106336905Y-25524819D02*
X106336905Y-24524819D01*
X106336905Y-24524819D02*
X106717857Y-24524819D01*
X106717857Y-24524819D02*
X106813095Y-24572438D01*
X106813095Y-24572438D02*
X106860714Y-24620057D01*
X106860714Y-24620057D02*
X106908333Y-24715295D01*
X106908333Y-24715295D02*
X106908333Y-24858152D01*
X106908333Y-24858152D02*
X106860714Y-24953390D01*
X106860714Y-24953390D02*
X106813095Y-25001009D01*
X106813095Y-25001009D02*
X106717857Y-25048628D01*
X106717857Y-25048628D02*
X106336905Y-25048628D01*
X107384524Y-25524819D02*
X107575000Y-25524819D01*
X107575000Y-25524819D02*
X107670238Y-25477200D01*
X107670238Y-25477200D02*
X107717857Y-25429580D01*
X107717857Y-25429580D02*
X107813095Y-25286723D01*
X107813095Y-25286723D02*
X107860714Y-25096247D01*
X107860714Y-25096247D02*
X107860714Y-24715295D01*
X107860714Y-24715295D02*
X107813095Y-24620057D01*
X107813095Y-24620057D02*
X107765476Y-24572438D01*
X107765476Y-24572438D02*
X107670238Y-24524819D01*
X107670238Y-24524819D02*
X107479762Y-24524819D01*
X107479762Y-24524819D02*
X107384524Y-24572438D01*
X107384524Y-24572438D02*
X107336905Y-24620057D01*
X107336905Y-24620057D02*
X107289286Y-24715295D01*
X107289286Y-24715295D02*
X107289286Y-24953390D01*
X107289286Y-24953390D02*
X107336905Y-25048628D01*
X107336905Y-25048628D02*
X107384524Y-25096247D01*
X107384524Y-25096247D02*
X107479762Y-25143866D01*
X107479762Y-25143866D02*
X107670238Y-25143866D01*
X107670238Y-25143866D02*
X107765476Y-25096247D01*
X107765476Y-25096247D02*
X107813095Y-25048628D01*
X107813095Y-25048628D02*
X107860714Y-24953390D01*
X96682142Y-48774819D02*
X96348809Y-48298628D01*
X96110714Y-48774819D02*
X96110714Y-47774819D01*
X96110714Y-47774819D02*
X96491666Y-47774819D01*
X96491666Y-47774819D02*
X96586904Y-47822438D01*
X96586904Y-47822438D02*
X96634523Y-47870057D01*
X96634523Y-47870057D02*
X96682142Y-47965295D01*
X96682142Y-47965295D02*
X96682142Y-48108152D01*
X96682142Y-48108152D02*
X96634523Y-48203390D01*
X96634523Y-48203390D02*
X96586904Y-48251009D01*
X96586904Y-48251009D02*
X96491666Y-48298628D01*
X96491666Y-48298628D02*
X96110714Y-48298628D01*
X97634523Y-48774819D02*
X97063095Y-48774819D01*
X97348809Y-48774819D02*
X97348809Y-47774819D01*
X97348809Y-47774819D02*
X97253571Y-47917676D01*
X97253571Y-47917676D02*
X97158333Y-48012914D01*
X97158333Y-48012914D02*
X97063095Y-48060533D01*
X98015476Y-47870057D02*
X98063095Y-47822438D01*
X98063095Y-47822438D02*
X98158333Y-47774819D01*
X98158333Y-47774819D02*
X98396428Y-47774819D01*
X98396428Y-47774819D02*
X98491666Y-47822438D01*
X98491666Y-47822438D02*
X98539285Y-47870057D01*
X98539285Y-47870057D02*
X98586904Y-47965295D01*
X98586904Y-47965295D02*
X98586904Y-48060533D01*
X98586904Y-48060533D02*
X98539285Y-48203390D01*
X98539285Y-48203390D02*
X97967857Y-48774819D01*
X97967857Y-48774819D02*
X98586904Y-48774819D01*
X95108333Y-27929580D02*
X95060714Y-27977200D01*
X95060714Y-27977200D02*
X94917857Y-28024819D01*
X94917857Y-28024819D02*
X94822619Y-28024819D01*
X94822619Y-28024819D02*
X94679762Y-27977200D01*
X94679762Y-27977200D02*
X94584524Y-27881961D01*
X94584524Y-27881961D02*
X94536905Y-27786723D01*
X94536905Y-27786723D02*
X94489286Y-27596247D01*
X94489286Y-27596247D02*
X94489286Y-27453390D01*
X94489286Y-27453390D02*
X94536905Y-27262914D01*
X94536905Y-27262914D02*
X94584524Y-27167676D01*
X94584524Y-27167676D02*
X94679762Y-27072438D01*
X94679762Y-27072438D02*
X94822619Y-27024819D01*
X94822619Y-27024819D02*
X94917857Y-27024819D01*
X94917857Y-27024819D02*
X95060714Y-27072438D01*
X95060714Y-27072438D02*
X95108333Y-27120057D01*
X95441667Y-27024819D02*
X96108333Y-27024819D01*
X96108333Y-27024819D02*
X95679762Y-28024819D01*
X121666666Y-23954819D02*
X121666666Y-24669104D01*
X121666666Y-24669104D02*
X121619047Y-24811961D01*
X121619047Y-24811961D02*
X121523809Y-24907200D01*
X121523809Y-24907200D02*
X121380952Y-24954819D01*
X121380952Y-24954819D02*
X121285714Y-24954819D01*
X122571428Y-23954819D02*
X122380952Y-23954819D01*
X122380952Y-23954819D02*
X122285714Y-24002438D01*
X122285714Y-24002438D02*
X122238095Y-24050057D01*
X122238095Y-24050057D02*
X122142857Y-24192914D01*
X122142857Y-24192914D02*
X122095238Y-24383390D01*
X122095238Y-24383390D02*
X122095238Y-24764342D01*
X122095238Y-24764342D02*
X122142857Y-24859580D01*
X122142857Y-24859580D02*
X122190476Y-24907200D01*
X122190476Y-24907200D02*
X122285714Y-24954819D01*
X122285714Y-24954819D02*
X122476190Y-24954819D01*
X122476190Y-24954819D02*
X122571428Y-24907200D01*
X122571428Y-24907200D02*
X122619047Y-24859580D01*
X122619047Y-24859580D02*
X122666666Y-24764342D01*
X122666666Y-24764342D02*
X122666666Y-24526247D01*
X122666666Y-24526247D02*
X122619047Y-24431009D01*
X122619047Y-24431009D02*
X122571428Y-24383390D01*
X122571428Y-24383390D02*
X122476190Y-24335771D01*
X122476190Y-24335771D02*
X122285714Y-24335771D01*
X122285714Y-24335771D02*
X122190476Y-24383390D01*
X122190476Y-24383390D02*
X122142857Y-24431009D01*
X122142857Y-24431009D02*
X122095238Y-24526247D01*
X114907142Y-25524819D02*
X114573809Y-25048628D01*
X114335714Y-25524819D02*
X114335714Y-24524819D01*
X114335714Y-24524819D02*
X114716666Y-24524819D01*
X114716666Y-24524819D02*
X114811904Y-24572438D01*
X114811904Y-24572438D02*
X114859523Y-24620057D01*
X114859523Y-24620057D02*
X114907142Y-24715295D01*
X114907142Y-24715295D02*
X114907142Y-24858152D01*
X114907142Y-24858152D02*
X114859523Y-24953390D01*
X114859523Y-24953390D02*
X114811904Y-25001009D01*
X114811904Y-25001009D02*
X114716666Y-25048628D01*
X114716666Y-25048628D02*
X114335714Y-25048628D01*
X115859523Y-25524819D02*
X115288095Y-25524819D01*
X115573809Y-25524819D02*
X115573809Y-24524819D01*
X115573809Y-24524819D02*
X115478571Y-24667676D01*
X115478571Y-24667676D02*
X115383333Y-24762914D01*
X115383333Y-24762914D02*
X115288095Y-24810533D01*
X116811904Y-25524819D02*
X116240476Y-25524819D01*
X116526190Y-25524819D02*
X116526190Y-24524819D01*
X116526190Y-24524819D02*
X116430952Y-24667676D01*
X116430952Y-24667676D02*
X116335714Y-24762914D01*
X116335714Y-24762914D02*
X116240476Y-24810533D01*
X84582142Y-36459580D02*
X84534523Y-36507200D01*
X84534523Y-36507200D02*
X84391666Y-36554819D01*
X84391666Y-36554819D02*
X84296428Y-36554819D01*
X84296428Y-36554819D02*
X84153571Y-36507200D01*
X84153571Y-36507200D02*
X84058333Y-36411961D01*
X84058333Y-36411961D02*
X84010714Y-36316723D01*
X84010714Y-36316723D02*
X83963095Y-36126247D01*
X83963095Y-36126247D02*
X83963095Y-35983390D01*
X83963095Y-35983390D02*
X84010714Y-35792914D01*
X84010714Y-35792914D02*
X84058333Y-35697676D01*
X84058333Y-35697676D02*
X84153571Y-35602438D01*
X84153571Y-35602438D02*
X84296428Y-35554819D01*
X84296428Y-35554819D02*
X84391666Y-35554819D01*
X84391666Y-35554819D02*
X84534523Y-35602438D01*
X84534523Y-35602438D02*
X84582142Y-35650057D01*
X85534523Y-36554819D02*
X84963095Y-36554819D01*
X85248809Y-36554819D02*
X85248809Y-35554819D01*
X85248809Y-35554819D02*
X85153571Y-35697676D01*
X85153571Y-35697676D02*
X85058333Y-35792914D01*
X85058333Y-35792914D02*
X84963095Y-35840533D01*
X86486904Y-36554819D02*
X85915476Y-36554819D01*
X86201190Y-36554819D02*
X86201190Y-35554819D01*
X86201190Y-35554819D02*
X86105952Y-35697676D01*
X86105952Y-35697676D02*
X86010714Y-35792914D01*
X86010714Y-35792914D02*
X85915476Y-35840533D01*
X127833333Y-31524819D02*
X127500000Y-31048628D01*
X127261905Y-31524819D02*
X127261905Y-30524819D01*
X127261905Y-30524819D02*
X127642857Y-30524819D01*
X127642857Y-30524819D02*
X127738095Y-30572438D01*
X127738095Y-30572438D02*
X127785714Y-30620057D01*
X127785714Y-30620057D02*
X127833333Y-30715295D01*
X127833333Y-30715295D02*
X127833333Y-30858152D01*
X127833333Y-30858152D02*
X127785714Y-30953390D01*
X127785714Y-30953390D02*
X127738095Y-31001009D01*
X127738095Y-31001009D02*
X127642857Y-31048628D01*
X127642857Y-31048628D02*
X127261905Y-31048628D01*
X128690476Y-30524819D02*
X128500000Y-30524819D01*
X128500000Y-30524819D02*
X128404762Y-30572438D01*
X128404762Y-30572438D02*
X128357143Y-30620057D01*
X128357143Y-30620057D02*
X128261905Y-30762914D01*
X128261905Y-30762914D02*
X128214286Y-30953390D01*
X128214286Y-30953390D02*
X128214286Y-31334342D01*
X128214286Y-31334342D02*
X128261905Y-31429580D01*
X128261905Y-31429580D02*
X128309524Y-31477200D01*
X128309524Y-31477200D02*
X128404762Y-31524819D01*
X128404762Y-31524819D02*
X128595238Y-31524819D01*
X128595238Y-31524819D02*
X128690476Y-31477200D01*
X128690476Y-31477200D02*
X128738095Y-31429580D01*
X128738095Y-31429580D02*
X128785714Y-31334342D01*
X128785714Y-31334342D02*
X128785714Y-31096247D01*
X128785714Y-31096247D02*
X128738095Y-31001009D01*
X128738095Y-31001009D02*
X128690476Y-30953390D01*
X128690476Y-30953390D02*
X128595238Y-30905771D01*
X128595238Y-30905771D02*
X128404762Y-30905771D01*
X128404762Y-30905771D02*
X128309524Y-30953390D01*
X128309524Y-30953390D02*
X128261905Y-31001009D01*
X128261905Y-31001009D02*
X128214286Y-31096247D01*
X106316666Y-20154819D02*
X106316666Y-20869104D01*
X106316666Y-20869104D02*
X106269047Y-21011961D01*
X106269047Y-21011961D02*
X106173809Y-21107200D01*
X106173809Y-21107200D02*
X106030952Y-21154819D01*
X106030952Y-21154819D02*
X105935714Y-21154819D01*
X106792857Y-21154819D02*
X106792857Y-20154819D01*
X106792857Y-20154819D02*
X107173809Y-20154819D01*
X107173809Y-20154819D02*
X107269047Y-20202438D01*
X107269047Y-20202438D02*
X107316666Y-20250057D01*
X107316666Y-20250057D02*
X107364285Y-20345295D01*
X107364285Y-20345295D02*
X107364285Y-20488152D01*
X107364285Y-20488152D02*
X107316666Y-20583390D01*
X107316666Y-20583390D02*
X107269047Y-20631009D01*
X107269047Y-20631009D02*
X107173809Y-20678628D01*
X107173809Y-20678628D02*
X106792857Y-20678628D01*
X108316666Y-21154819D02*
X107745238Y-21154819D01*
X108030952Y-21154819D02*
X108030952Y-20154819D01*
X108030952Y-20154819D02*
X107935714Y-20297676D01*
X107935714Y-20297676D02*
X107840476Y-20392914D01*
X107840476Y-20392914D02*
X107745238Y-20440533D01*
X104558333Y-42929580D02*
X104510714Y-42977200D01*
X104510714Y-42977200D02*
X104367857Y-43024819D01*
X104367857Y-43024819D02*
X104272619Y-43024819D01*
X104272619Y-43024819D02*
X104129762Y-42977200D01*
X104129762Y-42977200D02*
X104034524Y-42881961D01*
X104034524Y-42881961D02*
X103986905Y-42786723D01*
X103986905Y-42786723D02*
X103939286Y-42596247D01*
X103939286Y-42596247D02*
X103939286Y-42453390D01*
X103939286Y-42453390D02*
X103986905Y-42262914D01*
X103986905Y-42262914D02*
X104034524Y-42167676D01*
X104034524Y-42167676D02*
X104129762Y-42072438D01*
X104129762Y-42072438D02*
X104272619Y-42024819D01*
X104272619Y-42024819D02*
X104367857Y-42024819D01*
X104367857Y-42024819D02*
X104510714Y-42072438D01*
X104510714Y-42072438D02*
X104558333Y-42120057D01*
X105415476Y-42024819D02*
X105225000Y-42024819D01*
X105225000Y-42024819D02*
X105129762Y-42072438D01*
X105129762Y-42072438D02*
X105082143Y-42120057D01*
X105082143Y-42120057D02*
X104986905Y-42262914D01*
X104986905Y-42262914D02*
X104939286Y-42453390D01*
X104939286Y-42453390D02*
X104939286Y-42834342D01*
X104939286Y-42834342D02*
X104986905Y-42929580D01*
X104986905Y-42929580D02*
X105034524Y-42977200D01*
X105034524Y-42977200D02*
X105129762Y-43024819D01*
X105129762Y-43024819D02*
X105320238Y-43024819D01*
X105320238Y-43024819D02*
X105415476Y-42977200D01*
X105415476Y-42977200D02*
X105463095Y-42929580D01*
X105463095Y-42929580D02*
X105510714Y-42834342D01*
X105510714Y-42834342D02*
X105510714Y-42596247D01*
X105510714Y-42596247D02*
X105463095Y-42501009D01*
X105463095Y-42501009D02*
X105415476Y-42453390D01*
X105415476Y-42453390D02*
X105320238Y-42405771D01*
X105320238Y-42405771D02*
X105129762Y-42405771D01*
X105129762Y-42405771D02*
X105034524Y-42453390D01*
X105034524Y-42453390D02*
X104986905Y-42501009D01*
X104986905Y-42501009D02*
X104939286Y-42596247D01*
X128650476Y-77157200D02*
X128793333Y-77204819D01*
X128793333Y-77204819D02*
X129031428Y-77204819D01*
X129031428Y-77204819D02*
X129126666Y-77157200D01*
X129126666Y-77157200D02*
X129174285Y-77109580D01*
X129174285Y-77109580D02*
X129221904Y-77014342D01*
X129221904Y-77014342D02*
X129221904Y-76919104D01*
X129221904Y-76919104D02*
X129174285Y-76823866D01*
X129174285Y-76823866D02*
X129126666Y-76776247D01*
X129126666Y-76776247D02*
X129031428Y-76728628D01*
X129031428Y-76728628D02*
X128840952Y-76681009D01*
X128840952Y-76681009D02*
X128745714Y-76633390D01*
X128745714Y-76633390D02*
X128698095Y-76585771D01*
X128698095Y-76585771D02*
X128650476Y-76490533D01*
X128650476Y-76490533D02*
X128650476Y-76395295D01*
X128650476Y-76395295D02*
X128698095Y-76300057D01*
X128698095Y-76300057D02*
X128745714Y-76252438D01*
X128745714Y-76252438D02*
X128840952Y-76204819D01*
X128840952Y-76204819D02*
X129079047Y-76204819D01*
X129079047Y-76204819D02*
X129221904Y-76252438D01*
X129555238Y-76204819D02*
X129793333Y-77204819D01*
X129793333Y-77204819D02*
X129983809Y-76490533D01*
X129983809Y-76490533D02*
X130174285Y-77204819D01*
X130174285Y-77204819D02*
X130412381Y-76204819D01*
X130745714Y-76300057D02*
X130793333Y-76252438D01*
X130793333Y-76252438D02*
X130888571Y-76204819D01*
X130888571Y-76204819D02*
X131126666Y-76204819D01*
X131126666Y-76204819D02*
X131221904Y-76252438D01*
X131221904Y-76252438D02*
X131269523Y-76300057D01*
X131269523Y-76300057D02*
X131317142Y-76395295D01*
X131317142Y-76395295D02*
X131317142Y-76490533D01*
X131317142Y-76490533D02*
X131269523Y-76633390D01*
X131269523Y-76633390D02*
X130698095Y-77204819D01*
X130698095Y-77204819D02*
X131317142Y-77204819D01*
X132221904Y-76204819D02*
X131745714Y-76204819D01*
X131745714Y-76204819D02*
X131698095Y-76681009D01*
X131698095Y-76681009D02*
X131745714Y-76633390D01*
X131745714Y-76633390D02*
X131840952Y-76585771D01*
X131840952Y-76585771D02*
X132079047Y-76585771D01*
X132079047Y-76585771D02*
X132174285Y-76633390D01*
X132174285Y-76633390D02*
X132221904Y-76681009D01*
X132221904Y-76681009D02*
X132269523Y-76776247D01*
X132269523Y-76776247D02*
X132269523Y-77014342D01*
X132269523Y-77014342D02*
X132221904Y-77109580D01*
X132221904Y-77109580D02*
X132174285Y-77157200D01*
X132174285Y-77157200D02*
X132079047Y-77204819D01*
X132079047Y-77204819D02*
X131840952Y-77204819D01*
X131840952Y-77204819D02*
X131745714Y-77157200D01*
X131745714Y-77157200D02*
X131698095Y-77109580D01*
X127579047Y-93874819D02*
X127579047Y-92874819D01*
X128150475Y-93874819D02*
X127721904Y-93303390D01*
X128150475Y-92874819D02*
X127579047Y-93446247D01*
X128579047Y-93351009D02*
X128912380Y-93351009D01*
X129055237Y-93874819D02*
X128579047Y-93874819D01*
X128579047Y-93874819D02*
X128579047Y-92874819D01*
X128579047Y-92874819D02*
X129055237Y-92874819D01*
X129674285Y-93398628D02*
X129674285Y-93874819D01*
X129340952Y-92874819D02*
X129674285Y-93398628D01*
X129674285Y-93398628D02*
X130007618Y-92874819D01*
X130102857Y-93970057D02*
X130864761Y-93970057D01*
X131674285Y-93874819D02*
X131340952Y-93398628D01*
X131102857Y-93874819D02*
X131102857Y-92874819D01*
X131102857Y-92874819D02*
X131483809Y-92874819D01*
X131483809Y-92874819D02*
X131579047Y-92922438D01*
X131579047Y-92922438D02*
X131626666Y-92970057D01*
X131626666Y-92970057D02*
X131674285Y-93065295D01*
X131674285Y-93065295D02*
X131674285Y-93208152D01*
X131674285Y-93208152D02*
X131626666Y-93303390D01*
X131626666Y-93303390D02*
X131579047Y-93351009D01*
X131579047Y-93351009D02*
X131483809Y-93398628D01*
X131483809Y-93398628D02*
X131102857Y-93398628D01*
X132055238Y-93827200D02*
X132198095Y-93874819D01*
X132198095Y-93874819D02*
X132436190Y-93874819D01*
X132436190Y-93874819D02*
X132531428Y-93827200D01*
X132531428Y-93827200D02*
X132579047Y-93779580D01*
X132579047Y-93779580D02*
X132626666Y-93684342D01*
X132626666Y-93684342D02*
X132626666Y-93589104D01*
X132626666Y-93589104D02*
X132579047Y-93493866D01*
X132579047Y-93493866D02*
X132531428Y-93446247D01*
X132531428Y-93446247D02*
X132436190Y-93398628D01*
X132436190Y-93398628D02*
X132245714Y-93351009D01*
X132245714Y-93351009D02*
X132150476Y-93303390D01*
X132150476Y-93303390D02*
X132102857Y-93255771D01*
X132102857Y-93255771D02*
X132055238Y-93160533D01*
X132055238Y-93160533D02*
X132055238Y-93065295D01*
X132055238Y-93065295D02*
X132102857Y-92970057D01*
X132102857Y-92970057D02*
X132150476Y-92922438D01*
X132150476Y-92922438D02*
X132245714Y-92874819D01*
X132245714Y-92874819D02*
X132483809Y-92874819D01*
X132483809Y-92874819D02*
X132626666Y-92922438D01*
X132912381Y-92874819D02*
X133483809Y-92874819D01*
X133198095Y-93874819D02*
X133198095Y-92874819D01*
X111199405Y-25304819D02*
X111199405Y-24304819D01*
X111199405Y-24304819D02*
X111437500Y-24304819D01*
X111437500Y-24304819D02*
X111580357Y-24352438D01*
X111580357Y-24352438D02*
X111675595Y-24447676D01*
X111675595Y-24447676D02*
X111723214Y-24542914D01*
X111723214Y-24542914D02*
X111770833Y-24733390D01*
X111770833Y-24733390D02*
X111770833Y-24876247D01*
X111770833Y-24876247D02*
X111723214Y-25066723D01*
X111723214Y-25066723D02*
X111675595Y-25161961D01*
X111675595Y-25161961D02*
X111580357Y-25257200D01*
X111580357Y-25257200D02*
X111437500Y-25304819D01*
X111437500Y-25304819D02*
X111199405Y-25304819D01*
X112151786Y-24400057D02*
X112199405Y-24352438D01*
X112199405Y-24352438D02*
X112294643Y-24304819D01*
X112294643Y-24304819D02*
X112532738Y-24304819D01*
X112532738Y-24304819D02*
X112627976Y-24352438D01*
X112627976Y-24352438D02*
X112675595Y-24400057D01*
X112675595Y-24400057D02*
X112723214Y-24495295D01*
X112723214Y-24495295D02*
X112723214Y-24590533D01*
X112723214Y-24590533D02*
X112675595Y-24733390D01*
X112675595Y-24733390D02*
X112104167Y-25304819D01*
X112104167Y-25304819D02*
X112723214Y-25304819D01*
X100833333Y-48679580D02*
X100785714Y-48727200D01*
X100785714Y-48727200D02*
X100642857Y-48774819D01*
X100642857Y-48774819D02*
X100547619Y-48774819D01*
X100547619Y-48774819D02*
X100404762Y-48727200D01*
X100404762Y-48727200D02*
X100309524Y-48631961D01*
X100309524Y-48631961D02*
X100261905Y-48536723D01*
X100261905Y-48536723D02*
X100214286Y-48346247D01*
X100214286Y-48346247D02*
X100214286Y-48203390D01*
X100214286Y-48203390D02*
X100261905Y-48012914D01*
X100261905Y-48012914D02*
X100309524Y-47917676D01*
X100309524Y-47917676D02*
X100404762Y-47822438D01*
X100404762Y-47822438D02*
X100547619Y-47774819D01*
X100547619Y-47774819D02*
X100642857Y-47774819D01*
X100642857Y-47774819D02*
X100785714Y-47822438D01*
X100785714Y-47822438D02*
X100833333Y-47870057D01*
X101309524Y-48774819D02*
X101500000Y-48774819D01*
X101500000Y-48774819D02*
X101595238Y-48727200D01*
X101595238Y-48727200D02*
X101642857Y-48679580D01*
X101642857Y-48679580D02*
X101738095Y-48536723D01*
X101738095Y-48536723D02*
X101785714Y-48346247D01*
X101785714Y-48346247D02*
X101785714Y-47965295D01*
X101785714Y-47965295D02*
X101738095Y-47870057D01*
X101738095Y-47870057D02*
X101690476Y-47822438D01*
X101690476Y-47822438D02*
X101595238Y-47774819D01*
X101595238Y-47774819D02*
X101404762Y-47774819D01*
X101404762Y-47774819D02*
X101309524Y-47822438D01*
X101309524Y-47822438D02*
X101261905Y-47870057D01*
X101261905Y-47870057D02*
X101214286Y-47965295D01*
X101214286Y-47965295D02*
X101214286Y-48203390D01*
X101214286Y-48203390D02*
X101261905Y-48298628D01*
X101261905Y-48298628D02*
X101309524Y-48346247D01*
X101309524Y-48346247D02*
X101404762Y-48393866D01*
X101404762Y-48393866D02*
X101595238Y-48393866D01*
X101595238Y-48393866D02*
X101690476Y-48346247D01*
X101690476Y-48346247D02*
X101738095Y-48298628D01*
X101738095Y-48298628D02*
X101785714Y-48203390D01*
X127833333Y-28524819D02*
X127500000Y-28048628D01*
X127261905Y-28524819D02*
X127261905Y-27524819D01*
X127261905Y-27524819D02*
X127642857Y-27524819D01*
X127642857Y-27524819D02*
X127738095Y-27572438D01*
X127738095Y-27572438D02*
X127785714Y-27620057D01*
X127785714Y-27620057D02*
X127833333Y-27715295D01*
X127833333Y-27715295D02*
X127833333Y-27858152D01*
X127833333Y-27858152D02*
X127785714Y-27953390D01*
X127785714Y-27953390D02*
X127738095Y-28001009D01*
X127738095Y-28001009D02*
X127642857Y-28048628D01*
X127642857Y-28048628D02*
X127261905Y-28048628D01*
X128166667Y-27524819D02*
X128833333Y-27524819D01*
X128833333Y-27524819D02*
X128404762Y-28524819D01*
X106608333Y-33429580D02*
X106560714Y-33477200D01*
X106560714Y-33477200D02*
X106417857Y-33524819D01*
X106417857Y-33524819D02*
X106322619Y-33524819D01*
X106322619Y-33524819D02*
X106179762Y-33477200D01*
X106179762Y-33477200D02*
X106084524Y-33381961D01*
X106084524Y-33381961D02*
X106036905Y-33286723D01*
X106036905Y-33286723D02*
X105989286Y-33096247D01*
X105989286Y-33096247D02*
X105989286Y-32953390D01*
X105989286Y-32953390D02*
X106036905Y-32762914D01*
X106036905Y-32762914D02*
X106084524Y-32667676D01*
X106084524Y-32667676D02*
X106179762Y-32572438D01*
X106179762Y-32572438D02*
X106322619Y-32524819D01*
X106322619Y-32524819D02*
X106417857Y-32524819D01*
X106417857Y-32524819D02*
X106560714Y-32572438D01*
X106560714Y-32572438D02*
X106608333Y-32620057D01*
X107513095Y-32524819D02*
X107036905Y-32524819D01*
X107036905Y-32524819D02*
X106989286Y-33001009D01*
X106989286Y-33001009D02*
X107036905Y-32953390D01*
X107036905Y-32953390D02*
X107132143Y-32905771D01*
X107132143Y-32905771D02*
X107370238Y-32905771D01*
X107370238Y-32905771D02*
X107465476Y-32953390D01*
X107465476Y-32953390D02*
X107513095Y-33001009D01*
X107513095Y-33001009D02*
X107560714Y-33096247D01*
X107560714Y-33096247D02*
X107560714Y-33334342D01*
X107560714Y-33334342D02*
X107513095Y-33429580D01*
X107513095Y-33429580D02*
X107465476Y-33477200D01*
X107465476Y-33477200D02*
X107370238Y-33524819D01*
X107370238Y-33524819D02*
X107132143Y-33524819D01*
X107132143Y-33524819D02*
X107036905Y-33477200D01*
X107036905Y-33477200D02*
X106989286Y-33429580D01*
X111199405Y-21304819D02*
X111199405Y-20304819D01*
X111199405Y-20304819D02*
X111437500Y-20304819D01*
X111437500Y-20304819D02*
X111580357Y-20352438D01*
X111580357Y-20352438D02*
X111675595Y-20447676D01*
X111675595Y-20447676D02*
X111723214Y-20542914D01*
X111723214Y-20542914D02*
X111770833Y-20733390D01*
X111770833Y-20733390D02*
X111770833Y-20876247D01*
X111770833Y-20876247D02*
X111723214Y-21066723D01*
X111723214Y-21066723D02*
X111675595Y-21161961D01*
X111675595Y-21161961D02*
X111580357Y-21257200D01*
X111580357Y-21257200D02*
X111437500Y-21304819D01*
X111437500Y-21304819D02*
X111199405Y-21304819D01*
X112723214Y-21304819D02*
X112151786Y-21304819D01*
X112437500Y-21304819D02*
X112437500Y-20304819D01*
X112437500Y-20304819D02*
X112342262Y-20447676D01*
X112342262Y-20447676D02*
X112247024Y-20542914D01*
X112247024Y-20542914D02*
X112151786Y-20590533D01*
X88357142Y-36429580D02*
X88309523Y-36477200D01*
X88309523Y-36477200D02*
X88166666Y-36524819D01*
X88166666Y-36524819D02*
X88071428Y-36524819D01*
X88071428Y-36524819D02*
X87928571Y-36477200D01*
X87928571Y-36477200D02*
X87833333Y-36381961D01*
X87833333Y-36381961D02*
X87785714Y-36286723D01*
X87785714Y-36286723D02*
X87738095Y-36096247D01*
X87738095Y-36096247D02*
X87738095Y-35953390D01*
X87738095Y-35953390D02*
X87785714Y-35762914D01*
X87785714Y-35762914D02*
X87833333Y-35667676D01*
X87833333Y-35667676D02*
X87928571Y-35572438D01*
X87928571Y-35572438D02*
X88071428Y-35524819D01*
X88071428Y-35524819D02*
X88166666Y-35524819D01*
X88166666Y-35524819D02*
X88309523Y-35572438D01*
X88309523Y-35572438D02*
X88357142Y-35620057D01*
X89309523Y-36524819D02*
X88738095Y-36524819D01*
X89023809Y-36524819D02*
X89023809Y-35524819D01*
X89023809Y-35524819D02*
X88928571Y-35667676D01*
X88928571Y-35667676D02*
X88833333Y-35762914D01*
X88833333Y-35762914D02*
X88738095Y-35810533D01*
X89690476Y-35620057D02*
X89738095Y-35572438D01*
X89738095Y-35572438D02*
X89833333Y-35524819D01*
X89833333Y-35524819D02*
X90071428Y-35524819D01*
X90071428Y-35524819D02*
X90166666Y-35572438D01*
X90166666Y-35572438D02*
X90214285Y-35620057D01*
X90214285Y-35620057D02*
X90261904Y-35715295D01*
X90261904Y-35715295D02*
X90261904Y-35810533D01*
X90261904Y-35810533D02*
X90214285Y-35953390D01*
X90214285Y-35953390D02*
X89642857Y-36524819D01*
X89642857Y-36524819D02*
X90261904Y-36524819D01*
X116504819Y-31624404D02*
X117314342Y-31624404D01*
X117314342Y-31624404D02*
X117409580Y-31576785D01*
X117409580Y-31576785D02*
X117457200Y-31529166D01*
X117457200Y-31529166D02*
X117504819Y-31433928D01*
X117504819Y-31433928D02*
X117504819Y-31243452D01*
X117504819Y-31243452D02*
X117457200Y-31148214D01*
X117457200Y-31148214D02*
X117409580Y-31100595D01*
X117409580Y-31100595D02*
X117314342Y-31052976D01*
X117314342Y-31052976D02*
X116504819Y-31052976D01*
X117504819Y-30052976D02*
X117504819Y-30624404D01*
X117504819Y-30338690D02*
X116504819Y-30338690D01*
X116504819Y-30338690D02*
X116647676Y-30433928D01*
X116647676Y-30433928D02*
X116742914Y-30529166D01*
X116742914Y-30529166D02*
X116790533Y-30624404D01*
X114907142Y-21524819D02*
X114573809Y-21048628D01*
X114335714Y-21524819D02*
X114335714Y-20524819D01*
X114335714Y-20524819D02*
X114716666Y-20524819D01*
X114716666Y-20524819D02*
X114811904Y-20572438D01*
X114811904Y-20572438D02*
X114859523Y-20620057D01*
X114859523Y-20620057D02*
X114907142Y-20715295D01*
X114907142Y-20715295D02*
X114907142Y-20858152D01*
X114907142Y-20858152D02*
X114859523Y-20953390D01*
X114859523Y-20953390D02*
X114811904Y-21001009D01*
X114811904Y-21001009D02*
X114716666Y-21048628D01*
X114716666Y-21048628D02*
X114335714Y-21048628D01*
X115859523Y-21524819D02*
X115288095Y-21524819D01*
X115573809Y-21524819D02*
X115573809Y-20524819D01*
X115573809Y-20524819D02*
X115478571Y-20667676D01*
X115478571Y-20667676D02*
X115383333Y-20762914D01*
X115383333Y-20762914D02*
X115288095Y-20810533D01*
X116478571Y-20524819D02*
X116573809Y-20524819D01*
X116573809Y-20524819D02*
X116669047Y-20572438D01*
X116669047Y-20572438D02*
X116716666Y-20620057D01*
X116716666Y-20620057D02*
X116764285Y-20715295D01*
X116764285Y-20715295D02*
X116811904Y-20905771D01*
X116811904Y-20905771D02*
X116811904Y-21143866D01*
X116811904Y-21143866D02*
X116764285Y-21334342D01*
X116764285Y-21334342D02*
X116716666Y-21429580D01*
X116716666Y-21429580D02*
X116669047Y-21477200D01*
X116669047Y-21477200D02*
X116573809Y-21524819D01*
X116573809Y-21524819D02*
X116478571Y-21524819D01*
X116478571Y-21524819D02*
X116383333Y-21477200D01*
X116383333Y-21477200D02*
X116335714Y-21429580D01*
X116335714Y-21429580D02*
X116288095Y-21334342D01*
X116288095Y-21334342D02*
X116240476Y-21143866D01*
X116240476Y-21143866D02*
X116240476Y-20905771D01*
X116240476Y-20905771D02*
X116288095Y-20715295D01*
X116288095Y-20715295D02*
X116335714Y-20620057D01*
X116335714Y-20620057D02*
X116383333Y-20572438D01*
X116383333Y-20572438D02*
X116478571Y-20524819D01*
X88357142Y-33429580D02*
X88309523Y-33477200D01*
X88309523Y-33477200D02*
X88166666Y-33524819D01*
X88166666Y-33524819D02*
X88071428Y-33524819D01*
X88071428Y-33524819D02*
X87928571Y-33477200D01*
X87928571Y-33477200D02*
X87833333Y-33381961D01*
X87833333Y-33381961D02*
X87785714Y-33286723D01*
X87785714Y-33286723D02*
X87738095Y-33096247D01*
X87738095Y-33096247D02*
X87738095Y-32953390D01*
X87738095Y-32953390D02*
X87785714Y-32762914D01*
X87785714Y-32762914D02*
X87833333Y-32667676D01*
X87833333Y-32667676D02*
X87928571Y-32572438D01*
X87928571Y-32572438D02*
X88071428Y-32524819D01*
X88071428Y-32524819D02*
X88166666Y-32524819D01*
X88166666Y-32524819D02*
X88309523Y-32572438D01*
X88309523Y-32572438D02*
X88357142Y-32620057D01*
X89309523Y-33524819D02*
X88738095Y-33524819D01*
X89023809Y-33524819D02*
X89023809Y-32524819D01*
X89023809Y-32524819D02*
X88928571Y-32667676D01*
X88928571Y-32667676D02*
X88833333Y-32762914D01*
X88833333Y-32762914D02*
X88738095Y-32810533D01*
X89928571Y-32524819D02*
X90023809Y-32524819D01*
X90023809Y-32524819D02*
X90119047Y-32572438D01*
X90119047Y-32572438D02*
X90166666Y-32620057D01*
X90166666Y-32620057D02*
X90214285Y-32715295D01*
X90214285Y-32715295D02*
X90261904Y-32905771D01*
X90261904Y-32905771D02*
X90261904Y-33143866D01*
X90261904Y-33143866D02*
X90214285Y-33334342D01*
X90214285Y-33334342D02*
X90166666Y-33429580D01*
X90166666Y-33429580D02*
X90119047Y-33477200D01*
X90119047Y-33477200D02*
X90023809Y-33524819D01*
X90023809Y-33524819D02*
X89928571Y-33524819D01*
X89928571Y-33524819D02*
X89833333Y-33477200D01*
X89833333Y-33477200D02*
X89785714Y-33429580D01*
X89785714Y-33429580D02*
X89738095Y-33334342D01*
X89738095Y-33334342D02*
X89690476Y-33143866D01*
X89690476Y-33143866D02*
X89690476Y-32905771D01*
X89690476Y-32905771D02*
X89738095Y-32715295D01*
X89738095Y-32715295D02*
X89785714Y-32620057D01*
X89785714Y-32620057D02*
X89833333Y-32572438D01*
X89833333Y-32572438D02*
X89928571Y-32524819D01*
D13*
%TO.C,R4*%
X125587742Y-68477500D02*
X126062258Y-68477500D01*
X125587742Y-69522500D02*
X126062258Y-69522500D01*
%TO.C,J4*%
X75670000Y-34710000D02*
X75670000Y-42390000D01*
X75670000Y-34710000D02*
X78330000Y-34710000D01*
X75670000Y-42390000D02*
X78330000Y-42390000D01*
X77000000Y-32110000D02*
X78330000Y-32110000D01*
X78330000Y-32110000D02*
X78330000Y-33440000D01*
X78330000Y-34710000D02*
X78330000Y-42390000D01*
%TO.C,SW24*%
X123475000Y-118095000D02*
X137445000Y-118095000D01*
X123475000Y-132065000D02*
X123475000Y-118095000D01*
X137445000Y-118095000D02*
X137445000Y-132065000D01*
X137445000Y-132065000D02*
X123475000Y-132065000D01*
%TO.C,SW8*%
X43475000Y-78015000D02*
X57445000Y-78015000D01*
X43475000Y-91985000D02*
X43475000Y-78015000D01*
X57445000Y-78015000D02*
X57445000Y-91985000D01*
X57445000Y-91985000D02*
X43475000Y-91985000D01*
%TO.C,SW5*%
X103475000Y-58095000D02*
X117445000Y-58095000D01*
X103475000Y-72065000D02*
X103475000Y-58095000D01*
X117445000Y-58095000D02*
X117445000Y-72065000D01*
X117445000Y-72065000D02*
X103475000Y-72065000D01*
%TO.C,SW4*%
X83475000Y-58095000D02*
X97445000Y-58095000D01*
X83475000Y-72065000D02*
X83475000Y-58095000D01*
X97445000Y-58095000D02*
X97445000Y-72065000D01*
X97445000Y-72065000D02*
X83475000Y-72065000D01*
%TO.C,SW21*%
X63475000Y-118095000D02*
X77445000Y-118095000D01*
X63475000Y-132065000D02*
X63475000Y-118095000D01*
X77445000Y-118095000D02*
X77445000Y-132065000D01*
X77445000Y-132065000D02*
X63475000Y-132065000D01*
%TO.C,SW17*%
X103475000Y-98015000D02*
X117445000Y-98015000D01*
X103475000Y-111985000D02*
X103475000Y-98015000D01*
X117445000Y-98015000D02*
X117445000Y-111985000D01*
X117445000Y-111985000D02*
X103475000Y-111985000D01*
%TO.C,SW11*%
X103475000Y-78015000D02*
X117445000Y-78015000D01*
X103475000Y-91985000D02*
X103475000Y-78015000D01*
X117445000Y-78015000D02*
X117445000Y-91985000D01*
X117445000Y-91985000D02*
X103475000Y-91985000D01*
%TO.C,SW9*%
X63475000Y-78015000D02*
X77445000Y-78015000D01*
X63475000Y-91985000D02*
X63475000Y-78015000D01*
X77445000Y-78015000D02*
X77445000Y-91985000D01*
X77445000Y-91985000D02*
X63475000Y-91985000D01*
%TO.C,SW2*%
X43475000Y-58095000D02*
X57445000Y-58095000D01*
X43475000Y-72065000D02*
X43475000Y-58095000D01*
X57445000Y-58095000D02*
X57445000Y-72065000D01*
X57445000Y-72065000D02*
X43475000Y-72065000D01*
%TO.C,SW23*%
X103475000Y-118095000D02*
X117445000Y-118095000D01*
X103475000Y-132065000D02*
X103475000Y-118095000D01*
X117445000Y-118095000D02*
X117445000Y-132065000D01*
X117445000Y-132065000D02*
X103475000Y-132065000D01*
%TO.C,SW22*%
X83475000Y-118095000D02*
X97445000Y-118095000D01*
X83475000Y-132065000D02*
X83475000Y-118095000D01*
X97445000Y-118095000D02*
X97445000Y-132065000D01*
X97445000Y-132065000D02*
X83475000Y-132065000D01*
%TO.C,SW10*%
X83475000Y-78015000D02*
X97445000Y-78015000D01*
X83475000Y-91985000D02*
X83475000Y-78015000D01*
X97445000Y-78015000D02*
X97445000Y-91985000D01*
X97445000Y-91985000D02*
X83475000Y-91985000D01*
%TO.C,SW20*%
X43475000Y-118095000D02*
X57445000Y-118095000D01*
X43475000Y-132065000D02*
X43475000Y-118095000D01*
X57445000Y-118095000D02*
X57445000Y-132065000D01*
X57445000Y-132065000D02*
X43475000Y-132065000D01*
%TO.C,SW19*%
X23475000Y-118095000D02*
X37445000Y-118095000D01*
X23475000Y-132065000D02*
X23475000Y-118095000D01*
X37445000Y-118095000D02*
X37445000Y-132065000D01*
X37445000Y-132065000D02*
X23475000Y-132065000D01*
%TO.C,SW18*%
X123475000Y-98015000D02*
X137445000Y-98015000D01*
X123475000Y-111985000D02*
X123475000Y-98015000D01*
X137445000Y-98015000D02*
X137445000Y-111985000D01*
X137445000Y-111985000D02*
X123475000Y-111985000D01*
%TO.C,SW16*%
X83475000Y-98015000D02*
X97445000Y-98015000D01*
X83475000Y-111985000D02*
X83475000Y-98015000D01*
X97445000Y-98015000D02*
X97445000Y-111985000D01*
X97445000Y-111985000D02*
X83475000Y-111985000D01*
%TO.C,SW7*%
X23475000Y-78095000D02*
X37445000Y-78095000D01*
X23475000Y-92065000D02*
X23475000Y-78095000D01*
X37445000Y-78095000D02*
X37445000Y-92065000D01*
X37445000Y-92065000D02*
X23475000Y-92065000D01*
%TO.C,SW15*%
X63475000Y-98015000D02*
X77445000Y-98015000D01*
X63475000Y-111985000D02*
X63475000Y-98015000D01*
X77445000Y-98015000D02*
X77445000Y-111985000D01*
X77445000Y-111985000D02*
X63475000Y-111985000D01*
%TO.C,SW14*%
X43475000Y-98015000D02*
X57445000Y-98015000D01*
X43475000Y-111985000D02*
X43475000Y-98015000D01*
X57445000Y-98015000D02*
X57445000Y-111985000D01*
X57445000Y-111985000D02*
X43475000Y-111985000D01*
%TO.C,SW13*%
X23475000Y-98095000D02*
X37445000Y-98095000D01*
X23475000Y-112065000D02*
X23475000Y-98095000D01*
X37445000Y-98095000D02*
X37445000Y-112065000D01*
X37445000Y-112065000D02*
X23475000Y-112065000D01*
%TO.C,SW3*%
X63475000Y-58095000D02*
X77445000Y-58095000D01*
X63475000Y-72065000D02*
X63475000Y-58095000D01*
X77445000Y-58095000D02*
X77445000Y-72065000D01*
X77445000Y-72065000D02*
X63475000Y-72065000D01*
%TO.C,SW1*%
X23475000Y-58095000D02*
X37445000Y-58095000D01*
X23475000Y-72065000D02*
X23475000Y-58095000D01*
X37445000Y-58095000D02*
X37445000Y-72065000D01*
X37445000Y-72065000D02*
X23475000Y-72065000D01*
%TO.C,C4*%
X88859420Y-39990000D02*
X89140580Y-39990000D01*
X88859420Y-41010000D02*
X89140580Y-41010000D01*
%TO.C,C1*%
X123634420Y-28990000D02*
X123915580Y-28990000D01*
X123634420Y-30010000D02*
X123915580Y-30010000D01*
%TO.C,R1*%
X125437742Y-59477500D02*
X125912258Y-59477500D01*
X125437742Y-60522500D02*
X125912258Y-60522500D01*
%TO.C,R3*%
X125587742Y-65477500D02*
X126062258Y-65477500D01*
X125587742Y-66522500D02*
X126062258Y-66522500D01*
%TO.C,R2*%
X125587742Y-62477500D02*
X126062258Y-62477500D01*
X125587742Y-63522500D02*
X126062258Y-63522500D01*
%TO.C,C2*%
X123634420Y-31990000D02*
X123915580Y-31990000D01*
X123634420Y-33010000D02*
X123915580Y-33010000D01*
%TO.C,C3*%
X119134420Y-25990000D02*
X119415580Y-25990000D01*
X119134420Y-27010000D02*
X119415580Y-27010000D01*
%TO.C,J5*%
X22670000Y-29630000D02*
X22670000Y-47470000D01*
X22670000Y-29630000D02*
X25330000Y-29630000D01*
X22670000Y-47470000D02*
X25330000Y-47470000D01*
X24000000Y-27030000D02*
X25330000Y-27030000D01*
X25330000Y-27030000D02*
X25330000Y-28360000D01*
X25330000Y-29630000D02*
X25330000Y-47470000D01*
%TO.C,C8*%
X100859420Y-46290000D02*
X101140580Y-46290000D01*
X100859420Y-47310000D02*
X101140580Y-47310000D01*
%TO.C,R5*%
X131587742Y-31977500D02*
X132062258Y-31977500D01*
X131587742Y-33022500D02*
X132062258Y-33022500D01*
%TO.C,Y1*%
X86600000Y-35250000D02*
X86600000Y-31950000D01*
X86600000Y-31950000D02*
X82600000Y-31950000D01*
%TO.C,R8*%
X131587742Y-28977500D02*
X132062258Y-28977500D01*
X131587742Y-30022500D02*
X132062258Y-30022500D01*
%TO.C,U3*%
X92640000Y-32715000D02*
X92640000Y-33665000D01*
X92640000Y-33665000D02*
X91300000Y-33665000D01*
X92640000Y-42935000D02*
X92640000Y-41985000D01*
X93590000Y-32715000D02*
X92640000Y-32715000D01*
X93590000Y-42935000D02*
X92640000Y-42935000D01*
X101910000Y-32715000D02*
X102860000Y-32715000D01*
X101910000Y-42935000D02*
X102860000Y-42935000D01*
X102860000Y-32715000D02*
X102860000Y-33665000D01*
X102860000Y-42935000D02*
X102860000Y-41985000D01*
%TO.C,R9*%
X106837742Y-25977500D02*
X107312258Y-25977500D01*
X106837742Y-27022500D02*
X107312258Y-27022500D01*
%TO.C,R12*%
X97087742Y-49227500D02*
X97562258Y-49227500D01*
X97087742Y-50272500D02*
X97562258Y-50272500D01*
%TO.C,C7*%
X95134420Y-28490000D02*
X95415580Y-28490000D01*
X95134420Y-29510000D02*
X95415580Y-29510000D01*
%TO.C,J6*%
X133330000Y-24225000D02*
X133330000Y-22305000D01*
X133330000Y-18590000D02*
X133330000Y-20295000D01*
X124170000Y-22305000D02*
X124170000Y-24225000D01*
X124170000Y-20295000D02*
X124170000Y-18590000D01*
X124170000Y-18590000D02*
X133330000Y-18590000D01*
%TO.C,R11*%
X115312742Y-25977500D02*
X115787258Y-25977500D01*
X115312742Y-27022500D02*
X115787258Y-27022500D01*
%TO.C,C11*%
X85365580Y-38010000D02*
X85084420Y-38010000D01*
X85365580Y-36990000D02*
X85084420Y-36990000D01*
%TO.C,R6*%
X127762742Y-31977500D02*
X128237258Y-31977500D01*
X127762742Y-33022500D02*
X128237258Y-33022500D01*
%TO.C,JP1*%
X105750000Y-22800000D02*
X105750000Y-22200000D01*
X106450000Y-21500000D02*
X107850000Y-21500000D01*
X107850000Y-23500000D02*
X106450000Y-23500000D01*
X108550000Y-22200000D02*
X108550000Y-22800000D01*
X106450000Y-21500000D02*
G75*
G03*
X105750000Y-22200000I-1J-699999D01*
G01*
X105750000Y-22800000D02*
G75*
G03*
X106450000Y-23500000I699999J-1D01*
G01*
X108550000Y-22200000D02*
G75*
G03*
X107850000Y-21500000I-700000J0D01*
G01*
X107850000Y-23500000D02*
G75*
G03*
X108550000Y-22800000I0J700000D01*
G01*
%TO.C,C6*%
X104584420Y-43490000D02*
X104865580Y-43490000D01*
X104584420Y-44510000D02*
X104865580Y-44510000D01*
%TO.C,SW25*%
X123475000Y-78015000D02*
X137445000Y-78015000D01*
X123475000Y-91985000D02*
X123475000Y-78015000D01*
X137445000Y-78015000D02*
X137445000Y-91985000D01*
X137445000Y-91985000D02*
X123475000Y-91985000D01*
%TO.C,D2*%
X110252500Y-25540000D02*
X110252500Y-27460000D01*
X110252500Y-27460000D02*
X112937500Y-27460000D01*
X112937500Y-25540000D02*
X110252500Y-25540000D01*
%TO.C,C9*%
X100859420Y-49240000D02*
X101140580Y-49240000D01*
X100859420Y-50260000D02*
X101140580Y-50260000D01*
%TO.C,R7*%
X127762742Y-28977500D02*
X128237258Y-28977500D01*
X127762742Y-30022500D02*
X128237258Y-30022500D01*
%TO.C,C5*%
X106634420Y-33990000D02*
X106915580Y-33990000D01*
X106634420Y-35010000D02*
X106915580Y-35010000D01*
%TO.C,D1*%
X110252500Y-21540000D02*
X110252500Y-23460000D01*
X110252500Y-23460000D02*
X112937500Y-23460000D01*
X112937500Y-21540000D02*
X110252500Y-21540000D01*
%TO.C,C12*%
X88859420Y-36990000D02*
X89140580Y-36990000D01*
X88859420Y-38010000D02*
X89140580Y-38010000D01*
%TO.C,U1*%
X117890000Y-30862500D02*
X117890000Y-32662500D01*
X117890000Y-30862500D02*
X117890000Y-30062500D01*
X121010000Y-30862500D02*
X121010000Y-31662500D01*
X121010000Y-30862500D02*
X121010000Y-30062500D01*
%TO.C,R10*%
X115312742Y-21977500D02*
X115787258Y-21977500D01*
X115312742Y-23022500D02*
X115787258Y-23022500D01*
%TO.C,C10*%
X88859420Y-33990000D02*
X89140580Y-33990000D01*
X88859420Y-35010000D02*
X89140580Y-35010000D01*
%TD*%
M02*
