%TF.GenerationSoftware,KiCad,Pcbnew,7.0.9*%
%TF.CreationDate,2023-12-17T15:27:51-08:00*%
%TF.ProjectId,MicroTrainer,4d696372-6f54-4726-9169-6e65722e6b69,rev?*%
%TF.SameCoordinates,Original*%
%TF.FileFunction,Paste,Top*%
%TF.FilePolarity,Positive*%
%FSLAX46Y46*%
G04 Gerber Fmt 4.6, Leading zero omitted, Abs format (unit mm)*
G04 Created by KiCad (PCBNEW 7.0.9) date 2023-12-17 15:27:51*
%MOMM*%
%LPD*%
G01*
G04 APERTURE LIST*
G04 Aperture macros list*
%AMRoundRect*
0 Rectangle with rounded corners*
0 $1 Rounding radius*
0 $2 $3 $4 $5 $6 $7 $8 $9 X,Y pos of 4 corners*
0 Add a 4 corners polygon primitive as box body*
4,1,4,$2,$3,$4,$5,$6,$7,$8,$9,$2,$3,0*
0 Add four circle primitives for the rounded corners*
1,1,$1+$1,$2,$3*
1,1,$1+$1,$4,$5*
1,1,$1+$1,$6,$7*
1,1,$1+$1,$8,$9*
0 Add four rect primitives between the rounded corners*
20,1,$1+$1,$2,$3,$4,$5,0*
20,1,$1+$1,$4,$5,$6,$7,0*
20,1,$1+$1,$6,$7,$8,$9,0*
20,1,$1+$1,$8,$9,$2,$3,0*%
G04 Aperture macros list end*
%ADD10RoundRect,0.200000X-0.200000X-0.275000X0.200000X-0.275000X0.200000X0.275000X-0.200000X0.275000X0*%
%ADD11RoundRect,0.225000X-0.225000X-0.250000X0.225000X-0.250000X0.225000X0.250000X-0.225000X0.250000X0*%
%ADD12R,1.400000X1.200000*%
%ADD13RoundRect,0.075000X-0.700000X-0.075000X0.700000X-0.075000X0.700000X0.075000X-0.700000X0.075000X0*%
%ADD14RoundRect,0.075000X-0.075000X-0.700000X0.075000X-0.700000X0.075000X0.700000X-0.075000X0.700000X0*%
%ADD15R,0.600000X1.240000*%
%ADD16R,0.300000X1.240000*%
%ADD17RoundRect,0.225000X0.225000X0.250000X-0.225000X0.250000X-0.225000X-0.250000X0.225000X-0.250000X0*%
%ADD18RoundRect,0.243750X-0.243750X-0.456250X0.243750X-0.456250X0.243750X0.456250X-0.243750X0.456250X0*%
%ADD19RoundRect,0.150000X0.150000X-0.512500X0.150000X0.512500X-0.150000X0.512500X-0.150000X-0.512500X0*%
G04 APERTURE END LIST*
D10*
%TO.C,R4*%
X125000000Y-69000000D03*
X126650000Y-69000000D03*
%TD*%
D11*
%TO.C,C4*%
X88225000Y-40500000D03*
X89775000Y-40500000D03*
%TD*%
%TO.C,C1*%
X123000000Y-29500000D03*
X124550000Y-29500000D03*
%TD*%
D10*
%TO.C,R1*%
X124850000Y-60000000D03*
X126500000Y-60000000D03*
%TD*%
%TO.C,R3*%
X125000000Y-66000000D03*
X126650000Y-66000000D03*
%TD*%
%TO.C,R2*%
X125000000Y-63000000D03*
X126650000Y-63000000D03*
%TD*%
D11*
%TO.C,C2*%
X123000000Y-32500000D03*
X124550000Y-32500000D03*
%TD*%
%TO.C,C3*%
X118500000Y-26500000D03*
X120050000Y-26500000D03*
%TD*%
%TO.C,C8*%
X100225000Y-46800000D03*
X101775000Y-46800000D03*
%TD*%
D10*
%TO.C,R5*%
X131000000Y-32500000D03*
X132650000Y-32500000D03*
%TD*%
D12*
%TO.C,Y1*%
X85700000Y-32750000D03*
X83500000Y-32750000D03*
X83500000Y-34450000D03*
X85700000Y-34450000D03*
%TD*%
D10*
%TO.C,R8*%
X131000000Y-29500000D03*
X132650000Y-29500000D03*
%TD*%
D13*
%TO.C,U3*%
X92075000Y-34075000D03*
X92075000Y-34575000D03*
X92075000Y-35075000D03*
X92075000Y-35575000D03*
X92075000Y-36075000D03*
X92075000Y-36575000D03*
X92075000Y-37075000D03*
X92075000Y-37575000D03*
X92075000Y-38075000D03*
X92075000Y-38575000D03*
X92075000Y-39075000D03*
X92075000Y-39575000D03*
X92075000Y-40075000D03*
X92075000Y-40575000D03*
X92075000Y-41075000D03*
X92075000Y-41575000D03*
D14*
X94000000Y-43500000D03*
X94500000Y-43500000D03*
X95000000Y-43500000D03*
X95500000Y-43500000D03*
X96000000Y-43500000D03*
X96500000Y-43500000D03*
X97000000Y-43500000D03*
X97500000Y-43500000D03*
X98000000Y-43500000D03*
X98500000Y-43500000D03*
X99000000Y-43500000D03*
X99500000Y-43500000D03*
X100000000Y-43500000D03*
X100500000Y-43500000D03*
X101000000Y-43500000D03*
X101500000Y-43500000D03*
D13*
X103425000Y-41575000D03*
X103425000Y-41075000D03*
X103425000Y-40575000D03*
X103425000Y-40075000D03*
X103425000Y-39575000D03*
X103425000Y-39075000D03*
X103425000Y-38575000D03*
X103425000Y-38075000D03*
X103425000Y-37575000D03*
X103425000Y-37075000D03*
X103425000Y-36575000D03*
X103425000Y-36075000D03*
X103425000Y-35575000D03*
X103425000Y-35075000D03*
X103425000Y-34575000D03*
X103425000Y-34075000D03*
D14*
X101500000Y-32150000D03*
X101000000Y-32150000D03*
X100500000Y-32150000D03*
X100000000Y-32150000D03*
X99500000Y-32150000D03*
X99000000Y-32150000D03*
X98500000Y-32150000D03*
X98000000Y-32150000D03*
X97500000Y-32150000D03*
X97000000Y-32150000D03*
X96500000Y-32150000D03*
X96000000Y-32150000D03*
X95500000Y-32150000D03*
X95000000Y-32150000D03*
X94500000Y-32150000D03*
X94000000Y-32150000D03*
%TD*%
D10*
%TO.C,R9*%
X106250000Y-26500000D03*
X107900000Y-26500000D03*
%TD*%
%TO.C,R12*%
X96500000Y-49750000D03*
X98150000Y-49750000D03*
%TD*%
D11*
%TO.C,C7*%
X94500000Y-29000000D03*
X96050000Y-29000000D03*
%TD*%
D15*
%TO.C,J6*%
X131950000Y-26100000D03*
X131150000Y-26100000D03*
D16*
X130000000Y-26100000D03*
X129000000Y-26100000D03*
X128500000Y-26100000D03*
X127500000Y-26100000D03*
D15*
X126350000Y-26100000D03*
X125550000Y-26100000D03*
X125550000Y-26100000D03*
X126350000Y-26100000D03*
D16*
X127000000Y-26100000D03*
X128000000Y-26100000D03*
X129500000Y-26100000D03*
X130500000Y-26100000D03*
D15*
X131150000Y-26100000D03*
X131950000Y-26100000D03*
%TD*%
D10*
%TO.C,R11*%
X114725000Y-26500000D03*
X116375000Y-26500000D03*
%TD*%
D17*
%TO.C,C11*%
X86000000Y-37500000D03*
X84450000Y-37500000D03*
%TD*%
D10*
%TO.C,R6*%
X127175000Y-32500000D03*
X128825000Y-32500000D03*
%TD*%
D11*
%TO.C,C6*%
X103950000Y-44000000D03*
X105500000Y-44000000D03*
%TD*%
D18*
%TO.C,D2*%
X111000000Y-26500000D03*
X112875000Y-26500000D03*
%TD*%
D11*
%TO.C,C9*%
X100225000Y-49750000D03*
X101775000Y-49750000D03*
%TD*%
D10*
%TO.C,R7*%
X127175000Y-29500000D03*
X128825000Y-29500000D03*
%TD*%
D11*
%TO.C,C5*%
X106000000Y-34500000D03*
X107550000Y-34500000D03*
%TD*%
D18*
%TO.C,D1*%
X111000000Y-22500000D03*
X112875000Y-22500000D03*
%TD*%
D11*
%TO.C,C12*%
X88225000Y-37500000D03*
X89775000Y-37500000D03*
%TD*%
D19*
%TO.C,U1*%
X118500000Y-32000000D03*
X119450000Y-32000000D03*
X120400000Y-32000000D03*
X120400000Y-29725000D03*
X118500000Y-29725000D03*
%TD*%
D10*
%TO.C,R10*%
X114725000Y-22500000D03*
X116375000Y-22500000D03*
%TD*%
D11*
%TO.C,C10*%
X88225000Y-34500000D03*
X89775000Y-34500000D03*
%TD*%
M02*
